<?xml version="1.0" encoding="utf-8"?>
<!-- Generator: Adobe Illustrator 23.0.1, SVG Export Plug-In . SVG Version: 6.00 Build 0)  -->
<svg version="1.1" id="Layer_1" xmlns="http://www.w3.org/2000/svg" xmlns:xlink="http://www.w3.org/1999/xlink" x="0px" y="0px"
	 viewBox="0 0 45 45" style="enable-background:new 0 0 45 45;" xml:space="preserve">
<style type="text/css">
	.st0{fill:#FFFFFF;}
	.st1{stroke:#F3F7DE;stroke-miterlimit:10;}
	.st2{fill:none;stroke:#FFFFFF;stroke-miterlimit:10;}
	.st3{fill:none;stroke:#E71427;stroke-miterlimit:10;}
	.st4{stroke:#FA100C;stroke-miterlimit:10;}
</style>
<path d="M13.6,41.3c-0.5-0.9-0.3-2.2,0-4.9c0,0,0.2-1.5,1.4-6.6l0,0c-1.6-0.6-3.3-1.5-4.9-3c-0.2-0.2-0.3-0.3-0.5-0.5
	c0.3-1.1,0.9-2.6,1.9-4.1c0.5-0.8,1.1-1.5,1.6-2.1c0.7-0.3,1.6-0.8,2.6-1.6c0.6-0.6,1.1-1.1,1.4-1.6c0.3-1.5,0.7-3.1,1-4.6
	c0-0.2-0.1-1.1,0.5-1.8c0.6-0.7,1.6-1.1,2.6-0.9c0.5,0.1,1.5,0.5,2.3,1.4c0.6,0.6,0.9,1.3,1,1.7c0,1.4,0,2.8,0,4.2
	c0.4,0.4,1,0.9,1.9,1.4c1.1,0.6,2.1,0.8,2.8,0.9c1,0.7,2.4,1.9,3.6,3.7c0.6,0.9,0.9,1.8,1.2,2.5c-0.5,0.7-1.2,1.5-2,2.3
	c-1.3,1.2-2.5,2.2-3.6,2.8c0.4,1.6,0.7,3.4,0.9,5.4c0.2,1.9,0.3,3.7,0.3,5.3C28.8,41.5,15.7,45.2,13.6,41.3z"/>
<path d="M45,20.1"/>
<polygon class="st0" points="19.5,16.7 20.1,13.3 21.3,12 22.5,13.5 22.5,16.7 "/>
<line class="st1" x1="15" y1="29.9" x2="28.4" y2="30.6"/>
<polyline class="st1" points="16.3,22.9 15,24.8 17,26.5 "/>
<polyline class="st2" points="27.9,22.9 29.7,26 26.9,27.3 "/>
<line class="st3" x1="2.7" y1="9.8" x2="9.2" y2="16.7"/>
<line class="st3" x1="11.2" y1="2.9" x2="15" y2="10.4"/>
<line class="st3" x1="21.7" y1="1.5" x2="22.1" y2="6.6"/>
<line class="st3" x1="33.4" y1="2.4" x2="27.9" y2="9.1"/>
<line class="st3" x1="42.1" y1="8" x2="34.6" y2="14.9"/>
<path class="st3" d="M15,24.8"/>
<path class="st4" d="M20.7,13.7c0,0-0.1,0.1-0.1,0.1"/>
<path class="st4" d="M22.1,13.8C22.1,13.8,22,13.7,22.1,13.8"/>
</svg>
