<svg id="Calque_1" data-name="Calque 1" xmlns="http://www.w3.org/2000/svg" viewBox="0 0 40 40"><defs><style>.cls-1,.cls-4{fill:#191919;}.cls-1,.cls-2,.cls-3,.cls-6{fill-rule:evenodd;}.cls-2,.cls-6{fill:#fff;}.cls-2{opacity:0.3;}.cls-3,.cls-5{fill:none;stroke:#000;stroke-linecap:round;stroke-linejoin:round;}</style></defs><path class="cls-1" d="M31.2,31.75a1.85,1.85,0,0,1,1.67-1.61,3.43,3.43,0,0,0-.56-.06,68.15,68.15,0,0,0-24.5,0,3.31,3.31,0,0,0-.56.06,1.85,1.85,0,0,1,1.67,1.61c0,.78-.15,1.49-1.11,1.67.18,0-.2,0,0,0,8.17-1.74,16.33-1.2,24.5,0,.19,0-.18,0,0,0C31.35,33.24,31.2,32.53,31.2,31.75Z"/><path class="cls-2" d="M26.74,29l5.57,1.11L31.2,31.2v1.12H26.74A3.87,3.87,0,0,0,26.74,29Z"/><path class="cls-3" d="M31.2,31.75a1.85,1.85,0,0,1,1.67-1.61,3.43,3.43,0,0,0-.56-.06,68.15,68.15,0,0,0-24.5,0,3.31,3.31,0,0,0-.56.06,1.85,1.85,0,0,1,1.67,1.61c0,.78-.15,1.49-1.11,1.67.18,0-.2,0,0,0,8.17-1.74,16.33-1.2,24.5,0,.19,0-.18,0,0,0C31.35,33.24,31.2,32.53,31.2,31.75Z"/><polygon class="cls-1" points="6.69 25.64 3.35 12.27 11.15 25.64 6.69 25.64"/><polygon class="cls-1" points="11.15 25.64 11.15 7.81 16.72 25.64 11.15 25.64"/><polygon class="cls-1" points="33.42 25.64 36.77 12.27 28.97 25.64 33.42 25.64"/><polygon class="cls-1" points="28.97 25.64 28.97 7.81 23.4 25.64 28.97 25.64"/><polygon class="cls-1" points="16.72 25.64 23.4 25.64 20.06 5.59 16.72 25.64"/><polygon class="cls-2" points="35.65 16.72 33.42 25.64 31.76 25.36 35.09 15.61 35.65 15.61 35.65 16.72"/><polygon class="cls-2" points="28.97 15.61 28.97 24.52 27.03 24.52 28.45 10.75 28.97 11.15 28.97 15.61"/><polygon class="cls-2" points="20.06 8.93 23.4 24.52 20.84 24.52 20.06 8.93"/><polygon class="cls-2" points="11.97 11.15 16.06 24.52 14.31 24.74 11.69 10.54 11.97 11.15"/><polygon class="cls-2" points="5.02 15.61 10.24 24.76 8.76 25.14 5.02 15.61"/><polygon class="cls-3" points="6.69 25.64 3.35 12.27 11.15 25.64 6.69 25.64"/><polygon class="cls-3" points="11.15 25.64 11.15 7.81 16.72 25.64 11.15 25.64"/><polygon class="cls-3" points="33.42 25.64 36.77 12.27 28.97 25.64 33.42 25.64"/><polygon class="cls-3" points="28.97 25.64 28.97 7.81 23.4 25.64 28.97 25.64"/><polygon class="cls-3" points="16.72 25.64 23.4 25.64 20.06 5.59 16.72 25.64"/><circle class="cls-4" cx="3.35" cy="12.27" r="2.23"/><path class="cls-2" d="M4.85,10.62a2.33,2.33,0,0,0-2.47-.53,2.41,2.41,0,0,1,.82.53,2.32,2.32,0,0,1,0,3.3,2.41,2.41,0,0,1-.82.53,2.33,2.33,0,0,0,2.47-3.83Z"/><circle class="cls-5" cx="3.35" cy="12.27" r="2.23"/><circle class="cls-4" cx="11.15" cy="7.81" r="2.23"/><path class="cls-2" d="M12.69,6.27a2.31,2.31,0,0,0-2.47-.53,2.14,2.14,0,0,1,.82.53,2.31,2.31,0,0,1,0,3.29,2.14,2.14,0,0,1-.82.53,2.33,2.33,0,0,0,2.47-3.82Z"/><circle class="cls-5" cx="11.15" cy="7.81" r="2.23"/><circle class="cls-4" cx="20.06" cy="5.59" r="2.23"/><path class="cls-2" d="M21.6,4a2.33,2.33,0,0,0-2.47-.53A2.27,2.27,0,0,1,20,4a2.32,2.32,0,0,1,0,3.3,2.41,2.41,0,0,1-.82.53A2.33,2.33,0,0,0,21.6,4Z"/><circle class="cls-5" cx="20.06" cy="5.59" r="2.23"/><circle class="cls-4" cx="28.97" cy="7.81" r="2.23"/><path class="cls-2" d="M30.51,6.27A2.31,2.31,0,0,0,28,5.74a2.14,2.14,0,0,1,.82.53,2.31,2.31,0,0,1,0,3.29,2.14,2.14,0,0,1-.82.53,2.33,2.33,0,0,0,2.47-3.82Z"/><circle class="cls-5" cx="28.97" cy="7.81" r="2.23"/><circle class="cls-4" cx="36.77" cy="12.27" r="2.23"/><path class="cls-2" d="M38.31,10.72a2.33,2.33,0,0,0-2.47-.53,2.41,2.41,0,0,1,.82.53,2.34,2.34,0,0,1,0,3.3,2.41,2.41,0,0,1-.82.53,2.33,2.33,0,0,0,2.47-3.83Z"/><circle class="cls-5" cx="36.77" cy="12.27" r="2.23"/><path class="cls-1" d="M32.87,30.09a74,74,0,0,0-25.62,0c-.92,0-1.67-1-1.67-2.23h0c0-1.23.75-2.23,1.67-2.23a74.47,74.47,0,0,1,25.62,0c.92,0,1.67,1,1.67,2.23h0C34.54,29.09,33.79,30.09,32.87,30.09Z"/><path class="cls-2" d="M25.63,24.52l7.79,1.11,1.12,2.23-1.12,2.23L25.63,29A5.41,5.41,0,0,0,25.63,24.52Z"/><path class="cls-3" d="M32.87,30.09a74,74,0,0,0-25.62,0c-.92,0-1.67-1-1.67-2.23h0c0-1.23.75-2.23,1.67-2.23a74.47,74.47,0,0,1,25.62,0c.92,0,1.67,1,1.67,2.23h0C34.54,29.09,33.79,30.09,32.87,30.09Z"/><path class="cls-1" d="M31.37,32.87a115.52,115.52,0,0,0-22.62,0c-1.14,0-2.06.5-2.06,1.12v.55c0,.62.92,1.12,2.06,1.12h.4A1.34,1.34,0,0,0,7.81,37v.65A1.34,1.34,0,0,0,9.15,39H31a1.34,1.34,0,0,0,1.34-1.35V37A1.34,1.34,0,0,0,31,35.66h.4c1.13,0,2.05-.5,2.05-1.12V34C33.42,33.37,32.5,32.87,31.37,32.87Z"/><path class="cls-2" d="M25.63,32.32l6.68,1.11h1.11v1.11l-1.11,1.12v2.23L31.2,39H25.63A11.79,11.79,0,0,0,25.63,32.32Z"/><polygon class="cls-6" points="21.73 35.66 20.06 37.89 18.39 35.66 20.06 33.43 21.73 35.66"/><path class="cls-3" d="M31.37,32.87a115.52,115.52,0,0,0-22.62,0c-1.14,0-2.06.5-2.06,1.12v.55c0,.62.92,1.12,2.06,1.12h.4A1.34,1.34,0,0,0,7.81,37v.66A1.34,1.34,0,0,0,9.15,39H31a1.34,1.34,0,0,0,1.34-1.34V37A1.34,1.34,0,0,0,31,35.66h.4c1.13,0,2.05-.5,2.05-1.12V34C33.42,33.37,32.5,32.87,31.37,32.87Z"/></svg>