<svg id="Calque_1" data-name="Calque 1" xmlns="http://www.w3.org/2000/svg" viewBox="0 0 40 40"><defs><style>.cls-1,.cls-3,.cls-5{fill:#191919;}.cls-1,.cls-2,.cls-3,.cls-8,.cls-9{stroke:#000;}.cls-1,.cls-2,.cls-3,.cls-6,.cls-7,.cls-8{stroke-linecap:round;stroke-linejoin:round;}.cls-10,.cls-2,.cls-4{fill:#fff;}.cls-3,.cls-4,.cls-7{fill-rule:evenodd;}.cls-10,.cls-4{opacity:0.3;}.cls-6,.cls-7,.cls-8,.cls-9{fill:none;}.cls-6,.cls-7{stroke:#fff;stroke-width:0.5px;}.cls-9{stroke-miterlimit:10;}</style></defs><path class="cls-1" d="M7.83,36H32.14a0,0,0,0,1,0,0v1.69A1.34,1.34,0,0,1,30.8,39H9.18a1.34,1.34,0,0,1-1.34-1.34V36A0,0,0,0,1,7.83,36Z"/><line class="cls-2" x1="19.99" y1="12.25" x2="19.99" y2="3"/><line class="cls-2" x1="17.68" y1="5.31" x2="22.3" y2="5.31"/><path class="cls-3" d="M20,26.11l-4.62-10.4C16,12.38,16.6,9.93,20,9.93s4,2.45,4.62,5.78Z"/><path class="cls-4" d="M20.51,9.93a27.75,27.75,0,0,1,0,10.4L24,15.71V12.25Z"/><path class="cls-3" d="M31.54,13.4C24,13.73,20,19.79,20,22.65v8.09H32.7s4.48-4.35,5.78-9.25S39.05,13.07,31.54,13.4Zm3.15,8.33a14.38,14.38,0,0,1-3.51,5.54H23.46V22.42c0-1.71,2.46-5.34,7-5.54S35.49,18.79,34.69,21.73Z"/><path class="cls-3" d="M8.43,13.42c7.5.33,11.56,6.39,11.56,9.25v8.09H7.28S2.8,26.41,1.5,21.51.93,13.09,8.43,13.42ZM5.28,21.75a14.38,14.38,0,0,0,3.51,5.54h7.73V22.44c0-1.71-2.46-5.34-7-5.54S4.49,18.82,5.28,21.75Z"/><path class="cls-4" d="M30.91,13.4a7,7,0,0,1,0,3.47L34.38,18v3.47l-2.31,4.62-1,1.16a11.42,11.42,0,0,1-.16,3.47h2.31L36.69,25,39,19.18V16.87l-2.31-2.31Z"/><rect class="cls-5" x="7.28" y="30.74" width="25.42" height="5.78" rx="1"/><line class="cls-6" x1="9.55" y1="36.51" x2="7.28" y2="33.65"/><polyline class="cls-7" points="32.7 35.36 29.23 30.73 25.77 30.73 30.39 36.51 26.92 36.51 22.3 30.73 18.83 30.73 23.45 36.51 19.99 36.51 15.37 30.73 11.9 30.73 16.52 36.51 13.05 36.51 8.43 30.73"/><path class="cls-4" d="M32.7,36.51H26.29c1.13-1.77,1-3.72,0-5.77H32.7Z"/><path class="cls-8" d="M23.46,27.27h7.72a14.38,14.38,0,0,0,3.51-5.54c.8-2.94.35-5.05-4.21-4.85s-7,3.83-7,5.54Z"/><path class="cls-8" d="M32.7,30.74s4.48-4.35,5.78-9.25.57-8.42-6.94-8.09a13,13,0,0,0-6.93,2.31C24,12.38,23.38,9.93,20,9.93s-4,2.45-4.62,5.78v0a13,13,0,0,0-6.94-2.31c-7.5-.33-8.24,3.2-6.93,8.09s5.78,9.25,5.78,9.25"/><path class="cls-8" d="M5.28,21.75a14.38,14.38,0,0,0,3.51,5.54h7.73V22.44c0-1.71-2.46-5.34-7-5.54S4.49,18.82,5.28,21.75Z"/><rect class="cls-9" x="7.28" y="30.74" width="25.42" height="5.78" rx="1"/><path class="cls-10" d="M24,37h7.57a0,0,0,0,1,0,0v.71a.8.8,0,0,1-.8.8H24a0,0,0,0,1,0,0V37A0,0,0,0,1,24,37Z"/></svg>