<svg id="Calque_1" data-name="Calque 1" xmlns="http://www.w3.org/2000/svg" viewBox="0 0 40 40"><defs><style>.cls-1,.cls-2,.cls-3,.cls-4{fill:#fff;}.cls-1,.cls-2,.cls-3,.cls-4,.cls-6{stroke:#000;stroke-linecap:round;stroke-linejoin:round;}.cls-2,.cls-3{stroke-width:0.5px;}.cls-2,.cls-4,.cls-5{fill-rule:evenodd;}.cls-5,.cls-7{opacity:0.3;}.cls-6{fill:none;}</style></defs><path class="cls-1" d="M7.85,36H32.16a0,0,0,0,1,0,0v1.69A1.34,1.34,0,0,1,30.82,39H9.2a1.34,1.34,0,0,1-1.34-1.34V36a0,0,0,0,1,0,0Z"/><rect class="cls-1" x="7.3" y="30.74" width="25.42" height="5.78" rx="1"/><polyline class="cls-2" points="32.72 35.36 29.25 30.73 25.79 30.73 30.41 36.51 26.94 36.51 22.32 30.73 18.85 30.73 23.47 36.51 20.01 36.51 15.38 30.73 11.92 30.73 16.54 36.51 13.07 36.51 8.45 30.73"/><line class="cls-3" x1="9.57" y1="36.51" x2="7.3" y2="33.65"/><line class="cls-1" x1="20.01" y1="12.25" x2="20.01" y2="3"/><line class="cls-1" x1="17.7" y1="5.31" x2="22.32" y2="5.31"/><path class="cls-4" d="M20,26.11l-4.63-10.4C16,12.38,16.62,9.93,20,9.93s4,2.45,4.62,5.78Z"/><path class="cls-4" d="M31.56,13.4C24.06,13.73,20,19.79,20,22.65v8.09H32.72s4.47-4.35,5.78-9.25S39.06,13.07,31.56,13.4Zm3.15,8.33a14.38,14.38,0,0,1-3.51,5.54H23.47V22.42c0-1.71,2.47-5.34,7-5.54S35.51,18.79,34.71,21.73Z"/><path class="cls-4" d="M8.45,13.42C16,13.75,20,19.81,20,22.67v8.09H7.3s-4.48-4.35-5.78-9.25S1,13.09,8.45,13.42ZM5.3,21.75a14.38,14.38,0,0,0,3.51,5.54h7.73V22.44c0-1.71-2.46-5.34-7-5.54S4.51,18.82,5.3,21.75Z"/><path class="cls-5" d="M20.53,9.93a27.75,27.75,0,0,1,0,10.4L24,15.71V12.25Z"/><path class="cls-5" d="M30.93,13.4a6.84,6.84,0,0,1,0,3.47L34.4,18v3.47l-2.32,4.62-1,1.16a11.74,11.74,0,0,1-.16,3.47h2.31L36.71,25,39,19.18V16.87l-2.31-2.31Z"/><path class="cls-6" d="M23.47,27.27H31.2a14.38,14.38,0,0,0,3.51-5.54c.8-2.94.35-5.05-4.21-4.85s-7,3.83-7,5.54Z"/><path class="cls-6" d="M1.52,21.51c1.3,4.9,5.78,9.25,5.78,9.25h1a1.13,1.13,0,0,0-1,1.13v3.47a1.14,1.14,0,0,0,1.15,1.15H31.56a1.15,1.15,0,0,0,1.16-1.15V31.89a1.15,1.15,0,0,0-1.16-1.15h1.16s4.47-4.35,5.78-9.25.56-8.42-6.94-8.09a13,13,0,0,0-6.93,2.31C24,12.38,23.39,9.93,20,9.93s-4,2.45-4.63,5.78v0a13,13,0,0,0-6.94-2.31C1,13.09.21,16.62,1.52,21.51Z"/><path class="cls-6" d="M5.3,21.75a14.38,14.38,0,0,0,3.51,5.54h7.73V22.44c0-1.71-2.46-5.34-7-5.54S4.51,18.82,5.3,21.75Z"/><path class="cls-5" d="M32.09,36.51H26.31c1.13-1.77,1-3.72,0-5.77h5.78Z"/><rect class="cls-7" x="24.06" y="36.97" width="7.8" height="1.73"/></svg>