<svg id="Calque_1" data-name="Calque 1" xmlns="http://www.w3.org/2000/svg" viewBox="0 0 40 40"><defs><style>.cls-1,.cls-2,.cls-4{fill:#fff;stroke:#000;stroke-linecap:round;stroke-linejoin:round;}.cls-1,.cls-3{fill-rule:evenodd;}.cls-3{opacity:0.3;}.cls-4{stroke-width:0.5px;}</style></defs><path class="cls-1" d="M7.61,30.27c1.24.26,2.33.08,2.65-.57a46.54,46.54,0,0,1,4.65-6.2A9.27,9.27,0,0,0,18,21.68a22.59,22.59,0,0,0,4-4.63,3.76,3.76,0,0,0,.45-1,11,11,0,0,1-2,3.07c-.21,0,4.31,5.41-1.49,9.54-6.07,4.32-5.17,8.26-5.17,8.26H35.49c.94-5.12.43-31.71-15.5-30.09C19.51,5,18.57,4.09,17.33,4.05c-.2,1.23.28,1.87-.18,3.17l-2.64.38A4.57,4.57,0,0,0,14,6.26a2.4,2.4,0,0,0-3-1.13c-.55.4.62,1.24.81,2.54,0,.12-.16.23-.09.33-4.34,4.39-7.93,14.68-8,14.86a4.67,4.67,0,0,0,2,6.64l2,.77"/><rect class="cls-2" x="12.75" y="36.93" width="23.77" height="2.07" rx="0.85"/><ellipse cx="5.89" cy="24.3" rx="1.17" ry="0.53" transform="translate(-17.34 15.04) rotate(-54.65)"/><path class="cls-3" d="M20.43,6.48l5.36.78,5,4.46,3.07,6.92,1.92,11.74-.17,6.21-.65.34H33C34.75,35.85,35.21,9.7,20.6,6.82l-.17-.34"/><line class="cls-4" x1="22.48" y1="6.83" x2="22.18" y2="9.1"/><line class="cls-4" x1="24.3" y1="7.17" x2="23.77" y2="9.39"/><line class="cls-4" x1="26.1" y1="7.81" x2="25.17" y2="9.89"/><line class="cls-4" x1="27.72" y1="8.8" x2="26.54" y2="10.75"/><line class="cls-4" x1="29.1" y1="10.02" x2="27.58" y2="11.72"/><line class="cls-4" x1="30.42" y1="11.46" x2="28.6" y2="12.83"/><line class="cls-4" x1="31.45" y1="13.02" x2="29.4" y2="14.01"/><line class="cls-4" x1="32.2" y1="14.52" x2="30.08" y2="15.36"/><line class="cls-4" x1="32.94" y1="16.07" x2="30.78" y2="16.78"/><line class="cls-4" x1="33.58" y1="17.8" x2="31.34" y2="18.21"/><line class="cls-4" x1="34.17" y1="19.75" x2="31.9" y2="19.93"/><line class="cls-4" x1="34.59" y1="21.56" x2="32.31" y2="21.67"/><line class="cls-4" x1="34.95" y1="23.48" x2="32.67" y2="23.51"/><line class="cls-4" x1="35.23" y1="25.12" x2="32.95" y2="25.12"/><line class="cls-4" x1="35.42" y1="26.73" x2="33.14" y2="26.73"/><line class="cls-4" x1="35.6" y1="28.33" x2="33.31" y2="28.34"/><line class="cls-4" x1="35.68" y1="29.9" x2="33.4" y2="29.91"/><line class="cls-4" x1="35.77" y1="31.41" x2="33.49" y2="31.42"/><line class="cls-4" x1="35.77" y1="33.41" x2="33.49" y2="33.33"/><line class="cls-4" x1="35.68" y1="35.12" x2="33.4" y2="34.99"/><path class="cls-3" d="M11.3,5.93v-1h1A5.18,5.18,0,0,1,14.61,8l-.28.1C13.8,7.36,12,5.41,11.3,5.93Z"/><path class="cls-3" d="M17.12,5.09v-1h1a5.21,5.21,0,0,1,2.28,3.06l-.59.15S17.79,4.57,17.12,5.09Z"/><path class="cls-3" d="M30.08,36.93h5.15l1.29.45v1.23l-.88.39H30.08S31.62,37.91,30.08,36.93Z"/><path class="cls-3" d="M8.82,29.12l4.94-6.27s4.22-.79,8.44-7.2l.21.41-2,3.07-2.05,2.54-2.9,1.84-.88.34L9.89,30.1l-1.32.28-1-.11Z"/><ellipse cx="11.56" cy="13.46" rx="2.19" ry="1.07" transform="translate(-5.88 16.74) rotate(-60)"/></svg>