<svg id="Calque_1" data-name="Calque 1" xmlns="http://www.w3.org/2000/svg" viewBox="0 0 40 40"><defs><style>.cls-1{fill:#191919;}.cls-2{fill:#fff;opacity:0.3;}.cls-3{fill:none;stroke:#000;stroke-miterlimit:10;}</style></defs><path class="cls-1" d="M24.07,26.28A6.36,6.36,0,0,0,27,21a6.49,6.49,0,0,0-3.84-5.8,4.5,4.5,0,1,0-6.32,0A6.49,6.49,0,0,0,13,21a6.36,6.36,0,0,0,2.93,5.28A13,13,0,0,0,8,38.5H32A13,13,0,0,0,24.07,26.28Z"/><path class="cls-2" d="M22.71,12a3.7,3.7,0,0,1-1.25,3.13c.27,0,.64.18.9.25A4.11,4.11,0,0,0,24,12a4,4,0,0,0-4-4,4.23,4.23,0,0,0-.5.05A3.75,3.75,0,0,1,22.71,12Z"/><path class="cls-2" d="M22.64,15.06a3,3,0,0,1-.32.3c2,1.11,2.62,3.21,2.62,5.64a6.07,6.07,0,0,1-2.56,5.18c.25.05.85.24,1.09.31a6.49,6.49,0,0,0,3-5.49A6.41,6.41,0,0,0,22.64,15.06Z"/><path class="cls-2" d="M23.76,26.59c-.3.13-.44-.29-.76-.2,4.59,1.61,6.5,6.07,6.5,11A2.44,2.44,0,0,1,28.76,39h3.13A12.31,12.31,0,0,0,32,37.5C32,32.16,28.91,27.89,23.76,26.59Z"/><path class="cls-3" d="M24.07,26.28A6.36,6.36,0,0,0,27,21a6.49,6.49,0,0,0-3.84-5.8,4.5,4.5,0,1,0-6.32,0A6.49,6.49,0,0,0,13,21a6.36,6.36,0,0,0,2.93,5.28A13,13,0,0,0,8,38.5H32A13,13,0,0,0,24.07,26.28Z"/></svg>