<svg id="Calque_1" data-name="Calque 1" xmlns="http://www.w3.org/2000/svg" viewBox="0 0 40 40"><defs><style>.cls-1{fill:#fff;}.cls-2{fill:none;stroke:#000;stroke-miterlimit:10;}.cls-3{opacity:0.3;}</style></defs><path class="cls-1" d="M24.07,26.31A6.37,6.37,0,0,0,27,21a6.47,6.47,0,0,0-3.84-5.8,4.5,4.5,0,1,0-6.32,0A6.47,6.47,0,0,0,13,21a6.37,6.37,0,0,0,2.93,5.28A13,13,0,0,0,8,38.53H32A13,13,0,0,0,24.07,26.31Z"/><path class="cls-2" d="M24.07,26.31A6.37,6.37,0,0,0,27,21a6.47,6.47,0,0,0-3.84-5.8,4.5,4.5,0,1,0-6.32,0A6.47,6.47,0,0,0,13,21a6.37,6.37,0,0,0,2.93,5.28A13,13,0,0,0,8,38.53H32A13,13,0,0,0,24.07,26.31Z"/><path class="cls-3" d="M22.71,12a3.73,3.73,0,0,1-1.25,3.13,9.21,9.21,0,0,1,.9.25A4.11,4.11,0,0,0,24,12a4,4,0,0,0-4-4,4.23,4.23,0,0,0-.5.05A3.74,3.74,0,0,1,22.71,12Z"/><path class="cls-3" d="M22.64,15.09a2.89,2.89,0,0,1-.32.29c2,1.12,2.62,3.21,2.62,5.65a6.05,6.05,0,0,1-2.56,5.17c.25.06.85.25,1.09.32a6.49,6.49,0,0,0,3-5.49A6.4,6.4,0,0,0,22.64,15.09Z"/><path class="cls-3" d="M23.76,26.62c-.3.12-.44-.29-.76-.2,4.59,1.61,6.5,6.06,6.5,11A2.44,2.44,0,0,1,28.76,39h3.13a12.46,12.46,0,0,0,.11-1.5C32,32.19,28.91,27.91,23.76,26.62Z"/></svg>