<svg id="Calque_1" data-name="Calque 1" xmlns="http://www.w3.org/2000/svg" viewBox="0 0 40 40"><defs><style>.cls-1,.cls-5{fill:#191919;}.cls-1,.cls-2,.cls-3,.cls-4{fill-rule:evenodd;}.cls-2{fill:#fff;opacity:0.3;}.cls-3,.cls-4,.cls-6{fill:none;stroke:#000;}.cls-3,.cls-6{stroke-miterlimit:10;}</style></defs><path class="cls-1" d="M27.78,17.81l-.34-.53-5,5a2,2,0,0,1-2.82-2.83L25.12,14C22.79,10.7,20,6.9,20,6.9s-6.2,8.42-7.75,10.91-1.7,7.53,0,11l2,4.09H25.78l2-4.09C29.48,25.34,29.33,20.3,27.78,17.81Z"/><polygon class="cls-2" points="18 8.95 19 7.95 21 7.95 25 13.95 23 15.95 18 8.95"/><path class="cls-2" d="M25,20l2-2h1l1,3v4l-2,5-1,2H23S29,25,25,20Z"/><path class="cls-3" d="M27.78,17.86l-.34-.53-5,5a2,2,0,0,1-2.82-2.83L25.12,14C22.79,10.75,20,7,20,7s-6.2,8.42-7.75,10.91-1.7,7.52,0,11l2,4.09H25.78l2-4.09C29.48,25.38,29.33,20.35,27.78,17.86Z"/><path class="cls-1" d="M17,33h3a5.81,5.81,0,0,1-3.14,5c-2.71,1.34-3.65.47-4.86,0s-1.24-1.19-4,0c-2.32,1-4,1.13-4,1V36a10.34,10.34,0,0,0,4-1c1.24-.67,3-1,4,0a2.48,2.48,0,0,0,1.31.63A3.1,3.1,0,0,0,17,33Z"/><path class="cls-1" d="M23,33H20a5.82,5.82,0,0,0,3.14,5c2.71,1.34,3.65.47,4.86,0s1.24-1.19,4,0c2.32,1,4,1.13,4,1V36a10.53,10.53,0,0,1-4-1c-1.24-.67-3-1-4,0a2.48,2.48,0,0,1-1.31.63A3.1,3.1,0,0,1,23,33Z"/><path class="cls-2" d="M31,35l5,1v3H34l-3-1S33,36,31,35Z"/><path class="cls-2" d="M14,36l2-1h3v1l-2,2-3,1S16,37,14,36Z"/><path class="cls-4" d="M17,32.9h3a5.82,5.82,0,0,1-3.14,5c-2.71,1.34-3.65.46-4.86,0s-1.24-1.19-4,0c-2.32,1-4,1.12-4,1v-3a10.71,10.71,0,0,0,4-1c1.24-.67,3-1,4,0a2.48,2.48,0,0,0,1.31.63A3.1,3.1,0,0,0,17,32.9Z"/><path class="cls-4" d="M23,32.91H20a5.82,5.82,0,0,0,3.14,5c2.71,1.33,3.65.46,4.86,0s1.24-1.2,4,0c2.32,1,4,1.12,4,1v-3a10.71,10.71,0,0,1-4-1c-1.24-.68-3-1-4,0a2.47,2.47,0,0,1-1.31.62A3.09,3.09,0,0,1,23,32.91Z"/><circle class="cls-5" cx="20" cy="5.95" r="2"/><circle class="cls-6" cx="20" cy="5.95" r="2"/><path class="cls-2" d="M20,4.45a1.39,1.39,0,0,0-.5.09,1.49,1.49,0,0,1,0,2.81,1.39,1.39,0,0,0,.5.1,1.5,1.5,0,0,0,0-3Z"/><rect class="cls-5" x="13" y="31.9" width="14" height="3" rx="1.5"/><path class="cls-2" d="M22,32h4l1,1v1l-1,1H22S24,34,22,32Z"/><rect class="cls-6" x="13" y="31.95" width="14" height="3" rx="1.5"/></svg>