<svg id="Calque_1" data-name="Calque 1" xmlns="http://www.w3.org/2000/svg" viewBox="0 0 40 40"><defs><style>.cls-1{fill:#191919;}.cls-2,.cls-3{fill:#fff;}.cls-3{opacity:0.25;}</style></defs><rect class="cls-1" x="6.25" y="34.97" width="27.33" height="3.78" rx="0.75"/><path class="cls-2" d="M32.83,35.22a.5.5,0,0,1,.5.5V38a.51.51,0,0,1-.5.5H7a.51.51,0,0,1-.5-.5V35.72a.5.5,0,0,1,.5-.5H32.83m0-.5H7a1,1,0,0,0-1,1V38a1,1,0,0,0,1,1H32.83a1,1,0,0,0,1-1V35.72a1,1,0,0,0-1-1Z"/><path class="cls-1" d="M8.15,10.92a.83.83,0,0,1-.83-.83V5.82A.83.83,0,0,1,8.15,5h3.2a.82.82,0,0,1,.82.82V7.14H17V5.82A.83.83,0,0,1,17.78,5h4.27a.83.83,0,0,1,.83.82V7.14h4.78V5.82A.82.82,0,0,1,28.48,5h3.21a.82.82,0,0,1,.82.82v4.27a.83.83,0,0,1-.82.83Z"/><path class="cls-2" d="M31.69,5.25a.57.57,0,0,1,.57.57v4.27a.58.58,0,0,1-.57.58H8.15a.58.58,0,0,1-.58-.58V5.82a.57.57,0,0,1,.58-.57h3.2a.57.57,0,0,1,.57.57V7.39H17.2V5.82a.57.57,0,0,1,.58-.57h4.27a.57.57,0,0,1,.58.57V7.39h5.28V5.82a.57.57,0,0,1,.57-.57h3.21m0-.5H28.48a1.07,1.07,0,0,0-1.07,1.07V6.89H23.13V5.82a1.07,1.07,0,0,0-1.08-1.07H17.78A1.08,1.08,0,0,0,16.7,5.82V6.89H12.42V5.82a1.07,1.07,0,0,0-1.07-1.07H8.15A1.07,1.07,0,0,0,7.07,5.82v4.27a1.08,1.08,0,0,0,1.08,1.08H31.69a1.07,1.07,0,0,0,1.07-1.08V5.82a1.07,1.07,0,0,0-1.07-1.07Z"/><polygon class="cls-1" points="7.82 34.47 11.44 31.76 28.39 31.76 32.01 34.47 7.82 34.47"/><path class="cls-2" d="M28.31,32l3,2.21H8.57L11.52,32H28.31m.17-.5H11.35L7.07,34.72H32.76l-4.28-3.21Z"/><polygon class="cls-1" points="11.46 14.13 8.74 11.42 31.09 11.42 28.38 14.13 11.46 14.13"/><path class="cls-2" d="M30.48,11.67l-2.21,2.21H11.56L9.35,11.67H30.48m1.21-.5H8.14l3.21,3.21H28.48l3.21-3.21Z"/><rect class="cls-1" x="11.6" y="14.63" width="16.63" height="16.63"/><path class="cls-2" d="M28,14.88V31H11.85V14.88H28m.5-.5H11.35V31.51H28.48V14.38Z"/><rect class="cls-3" x="24.2" y="14.38" width="4.28" height="17.13"/><path class="cls-3" d="M26.34,34.72h5.49a2,2,0,0,1,2,2V37a2,2,0,0,1-2,2H26.34a0,0,0,0,1,0,0V34.72a0,0,0,0,1,0,0Z"/><polygon class="cls-3" points="31.69 34.72 25.27 34.72 25.27 31.51 28.02 31.51 31.69 34.72"/><polygon class="cls-3" points="31.69 11.17 25.27 11.17 25.27 14.38 28.02 14.38 31.69 11.17"/><path class="cls-3" d="M30.08,4.75a2.67,2.67,0,0,0-2.67,2.67V6.89H26.34v4.28h3.74a2.68,2.68,0,0,0,2.68-2.68V7.42A2.67,2.67,0,0,0,30.08,4.75Z"/><path d="M31.69,5.5a.32.32,0,0,1,.32.32v4.27a.33.33,0,0,1-.32.33v.75l-.53-.53L28,13.85l-.22.22V31.88l.3.23,4.28,3.21.45-.59v.74a.32.32,0,0,1,.32.32v2.13a.33.33,0,0,1-.32.33H7.08a.33.33,0,0,1-.33-.33V35.79a.32.32,0,0,1,.33-.32v-.75l.45.6,4.28-3.21.3-.23V14.07l-.22-.22L8.67,10.64l-.52.52v-.74a.33.33,0,0,1-.33-.33V5.82a.32.32,0,0,1,.33-.32h3.2a.32.32,0,0,1,.32.32V7.64h5.78V5.82a.32.32,0,0,1,.33-.32h4.27a.32.32,0,0,1,.33.32V7.64h5.78V5.82a.32.32,0,0,1,.32-.32h3.21m0-.75H28.48a1.07,1.07,0,0,0-1.07,1.07V6.89H23.13V5.82a1.07,1.07,0,0,0-1.08-1.07H17.78A1.08,1.08,0,0,0,16.7,5.82V6.89H12.42V5.82a1.07,1.07,0,0,0-1.07-1.07H8.15A1.07,1.07,0,0,0,7.07,5.82v4.27a1.08,1.08,0,0,0,1.08,1.08h0l3.21,3.21V31.51L7.07,34.72h0A1.07,1.07,0,0,0,6,35.79v2.13A1.08,1.08,0,0,0,7.08,39H32.76a1.07,1.07,0,0,0,1.07-1.08V35.79a1.07,1.07,0,0,0-1.07-1.07h0l-4.28-3.21V14.38l3.21-3.21h0a1.07,1.07,0,0,0,1.07-1.08V5.82a1.07,1.07,0,0,0-1.07-1.07Z"/><polygon points="8.14 10.37 8.14 11.17 8.68 10.63 8.14 10.37"/><polygon points="7.07 35.54 7.07 34.73 7.61 35.27 7.07 35.54"/><polygon points="31.69 10.37 31.69 11.17 31.16 10.63 31.69 10.37"/><polygon points="32.76 35.54 32.76 34.73 32.23 35.27 32.76 35.54"/></svg>