<svg id="Calque_1" data-name="Calque 1" xmlns="http://www.w3.org/2000/svg" viewBox="0 0 40 40"><defs><style>.cls-1,.cls-6{fill:#191919;}.cls-1,.cls-3,.cls-5{fill-rule:evenodd;}.cls-2,.cls-3{fill:#fff;}.cls-3{opacity:0.3;}.cls-4,.cls-5,.cls-7{fill:none;}.cls-4{stroke:#fff;stroke-linecap:round;stroke-linejoin:round;stroke-width:0.5px;}.cls-5,.cls-7{stroke:#000;stroke-miterlimit:10;}</style></defs><path class="cls-1" d="M7.61,30.22c1.24.26,2.33.08,2.65-.57a46.54,46.54,0,0,1,4.65-6.2A9.21,9.21,0,0,0,18,21.62,22.26,22.26,0,0,0,22,17a3.9,3.9,0,0,0,.45-1,11,11,0,0,1-2,3.07c-.21,0,4.31,5.4-1.49,9.53-6.07,4.32-5.17,8.27-5.17,8.27H35.49c.94-5.12.43-31.71-15.5-30.09C19.51,4.9,18.57,4,17.33,4c-.2,1.22.28,1.87-.18,3.17l-2.64.38A4.57,4.57,0,0,0,14,6.21a2.4,2.4,0,0,0-3-1.13c-.55.4.62,1.23.81,2.53,0,.13-.16.24-.09.34-4.34,4.39-7.93,14.67-8,14.86a4.67,4.67,0,0,0,2,6.64"/><ellipse class="cls-2" cx="5.89" cy="24.25" rx="1.17" ry="0.53" transform="translate(-17.3 15.02) rotate(-54.65)"/><path class="cls-3" d="M20.43,6.43l5.36.78,5,4.46,3.07,6.91,1.92,11.75-.17,6.21-.65.34H33C34.75,35.8,35.21,9.64,20.6,6.76l-.17-.33"/><line class="cls-4" x1="22.48" y1="6.78" x2="22.18" y2="9.04"/><line class="cls-4" x1="24.3" y1="7.12" x2="23.77" y2="9.34"/><line class="cls-4" x1="26.1" y1="7.76" x2="25.17" y2="9.84"/><line class="cls-4" x1="27.72" y1="8.75" x2="26.54" y2="10.7"/><line class="cls-4" x1="29.1" y1="9.97" x2="27.58" y2="11.67"/><line class="cls-4" x1="30.42" y1="11.41" x2="28.6" y2="12.78"/><line class="cls-4" x1="31.45" y1="12.97" x2="29.4" y2="13.96"/><line class="cls-4" x1="32.2" y1="14.47" x2="30.08" y2="15.31"/><line class="cls-4" x1="32.94" y1="16.01" x2="30.78" y2="16.73"/><line class="cls-4" x1="33.58" y1="17.74" x2="31.34" y2="18.16"/><line class="cls-4" x1="34.17" y1="19.7" x2="31.9" y2="19.88"/><line class="cls-4" x1="34.59" y1="21.51" x2="32.31" y2="21.61"/><line class="cls-4" x1="34.95" y1="23.43" x2="32.67" y2="23.46"/><line class="cls-4" x1="35.23" y1="25.07" x2="32.95" y2="25.07"/><line class="cls-4" x1="35.42" y1="26.67" x2="33.14" y2="26.68"/><line class="cls-4" x1="35.6" y1="28.28" x2="33.31" y2="28.29"/><line class="cls-4" x1="35.68" y1="29.85" x2="33.4" y2="29.85"/><line class="cls-4" x1="35.77" y1="31.36" x2="33.49" y2="31.37"/><line class="cls-4" x1="35.77" y1="33.35" x2="33.49" y2="33.28"/><line class="cls-4" x1="35.68" y1="35.06" x2="33.4" y2="34.94"/><path class="cls-3" d="M11.3,5.88v-1h1A5.21,5.21,0,0,1,14.61,7.9L14.33,8C13.8,7.3,12,5.36,11.3,5.88Z"/><path class="cls-3" d="M17.12,5V4h1a5.21,5.21,0,0,1,2.28,3.06l-.59.15S17.79,4.51,17.12,5Z"/><path class="cls-3" d="M8.82,29.06l4.94-6.27S18,22,22.2,15.6l.21.41-2,3.07-2.05,2.53-2.9,1.85-.88.33L9.89,30.05l-1.32.28-1-.11Z"/><path class="cls-5" d="M7.61,30.22c1.24.26,2.33.08,2.65-.57a46.54,46.54,0,0,1,4.65-6.2A9.21,9.21,0,0,0,18,21.62,22.26,22.26,0,0,0,22,17a3.9,3.9,0,0,0,.45-1,11,11,0,0,1-2,3.07c-.21,0,4.31,5.4-1.49,9.53-6.07,4.32-5.17,8.27-5.17,8.27H35.49c.94-5.12.43-31.71-15.5-30.09C19.51,4.9,18.57,4,17.33,4c-.2,1.22.28,1.87-.18,3.17l-2.64.38A4.57,4.57,0,0,0,14,6.21a2.4,2.4,0,0,0-3-1.13c-.55.4.62,1.23.81,2.53,0,.13-.16.24-.09.34-4.34,4.39-7.93,14.67-8,14.86a4.67,4.67,0,0,0,2,6.64Z"/><rect class="cls-6" x="12.75" y="36.88" width="23.77" height="2.07" rx="0.85"/><path class="cls-3" d="M30.08,36.88h5.15l1.29.45v1.23l-.88.39H30.08S31.62,37.86,30.08,36.88Z"/><rect class="cls-7" x="12.75" y="36.88" width="23.77" height="2.07" rx="0.85"/><ellipse class="cls-2" cx="11.56" cy="13.46" rx="2.19" ry="1.07" transform="translate(-5.88 16.74) rotate(-60)"/></svg>