<svg id="Calque_1" data-name="Calque 1" xmlns="http://www.w3.org/2000/svg" viewBox="0 0 40 40"><defs><style>.cls-1,.cls-6,.cls-7{fill:none;}.cls-1,.cls-2,.cls-3,.cls-4,.cls-6,.cls-7{stroke:#000;stroke-linecap:round;stroke-linejoin:round;}.cls-1,.cls-2{stroke-width:0.75px;}.cls-1,.cls-2,.cls-3,.cls-5,.cls-6{fill-rule:evenodd;}.cls-2,.cls-3,.cls-4{fill:#fff;}.cls-5{opacity:0.3;}.cls-6,.cls-7{stroke-width:0.5px;}</style></defs><polyline class="cls-1" points="20.01 14.43 20.01 8.84 24.48 5.49 15.54 5.49 22.25 9.96 20.01 2.14 17.78 9.96"/><polygon class="cls-2" points="15.54 17.78 20.01 12.2 24.48 17.78 20.01 24.64 15.54 17.78"/><path class="cls-3" d="M29.36,16.36c-6.07.26-9.35,5.17-9.35,7.48v6.54H30.3S33.92,26.86,35,22.9,35.43,16.1,29.36,16.36Zm2.55,6.74a11.63,11.63,0,0,1-2.84,4.48H22.82V23.66c0-1.39,2-4.33,5.68-4.48S32.55,20.72,31.91,23.1Z"/><path class="cls-3" d="M10.66,16.36c6.07.26,9.35,5.17,9.35,7.48v6.54H9.73S6.11,26.86,5.05,22.9,4.6,16.1,10.66,16.36ZM8.11,23.1A11.73,11.73,0,0,0,11,27.58h6.25V23.66c0-1.39-2-4.33-5.69-4.48S7.47,20.72,8.11,23.1Z"/><path class="cls-3" d="M20,30.06C12.57,24.11,5.49,18.15,1,12.19L5.49,30.06Z"/><path class="cls-3" d="M20,30.06c7.45-5.95,14.52-11.91,19-17.87L34.53,30.06Z"/><path class="cls-4" d="M6.61,35.65H33.42a0,0,0,0,1,0,0v2A1.34,1.34,0,0,1,32.07,39H8a1.34,1.34,0,0,1-1.34-1.34v-2A0,0,0,0,1,6.61,35.65Z"/><path class="cls-5" d="M33.09,38.67H24.48a1.28,1.28,0,0,0,0-1.9h8.61Z"/><rect class="cls-4" x="5.49" y="30.06" width="29.04" height="6.7" rx="1"/><polyline class="cls-6" points="34.53 35.33 30.57 30.23 26.61 30.23 31.89 36.6 27.93 36.6 22.65 30.23 18.69 30.23 23.97 36.6 20.01 36.6 14.73 30.23 10.77 30.23 16.05 36.6 12.09 36.6 6.81 30.23"/><line class="cls-7" x1="8.09" y1="36.6" x2="5.49" y2="33.44"/><path class="cls-5" d="M26.71,30.06h6.71l1.11,1.12v4.47l-1.11,1.12H26.71A16.77,16.77,0,0,0,26.71,30.06Z"/><path class="cls-5" d="M30.06,30.06h4.47L39,13.31l-2.23,2.24C35.49,20.13,32.45,25,30.06,30.06Z"/><path class="cls-5" d="M20,12.19a19.48,19.48,0,0,1,0,10.06l4.47-4.47Z"/><path class="cls-5" d="M26.71,16.66a2,2,0,0,1,0,2.24H29L32.3,20l2.23-2.23-1.11-1.12-3.36-1.11Z"/></svg>