<svg id="Calque_1" data-name="Calque 1" xmlns="http://www.w3.org/2000/svg" xmlns:xlink="http://www.w3.org/1999/xlink" viewBox="0 0 40 40"><defs><style>.cls-1,.cls-7{fill:none;}.cls-2{fill:#191919;}.cls-3,.cls-6{opacity:0.3;}.cls-4{clip-path:url(#clip-path);}.cls-5,.cls-6{fill:#fff;}.cls-7{stroke:#000;stroke-miterlimit:10;}</style><clipPath id="clip-path"><path class="cls-1" d="M32.78,25.32C32.78,35.71,27.71,39,20,39S7.25,34.57,7.25,24.18,12.33,5.94,20,5.94,32.78,14.93,32.78,25.32Z"/></clipPath></defs><path class="cls-2" d="M32.78,25.32C32.78,35.71,27.71,39,20,39S7.25,34.57,7.25,24.18,12.33,5.94,20,5.94,32.78,14.93,32.78,25.32Z"/><g class="cls-3"><g class="cls-4"><ellipse class="cls-5" cx="12.48" cy="9.93" rx="5.22" ry="5.13"/><ellipse class="cls-5" cx="17.12" cy="23.61" rx="6.38" ry="6.27"/><ellipse class="cls-5" cx="28.72" cy="32.73" rx="4.06" ry="3.99"/><ellipse class="cls-5" cx="10.16" cy="37.29" rx="4.06" ry="3.99"/><ellipse class="cls-5" cx="26.4" cy="12.21" rx="2.9" ry="2.85"/></g></g><path class="cls-6" d="M20,5.94c-.42,0-.83,0-1.24.07,7.11.81,10.93,9.42,10.52,19.31S26,38.59,19,39c.33,0,.66,0,1,0,7.69,0,12.76-3.29,12.76-13.68S27.71,5.94,20,5.94Z"/><path class="cls-7" d="M32.78,25.32C32.78,35.71,27.71,39,20,39S7.25,34.57,7.25,24.18,12.33,5.94,20,5.94,32.78,14.93,32.78,25.32Z"/></svg>