<svg id="Calque_1" data-name="Calque 1" xmlns="http://www.w3.org/2000/svg" viewBox="0 0 40 40"><defs><style>.cls-1{fill:#191919;}.cls-2,.cls-4{fill:none;stroke-miterlimit:10;}.cls-2{stroke:#fff;stroke-width:0.5px;}.cls-3,.cls-5{fill:#fff;}.cls-3{opacity:0.3;}.cls-4{stroke:#000;}</style></defs><path class="cls-1" d="M28.67,14.82c-1.43.7-2.93,7.84-2.88,12.8.05,6.2,3.63,10.07,2.88,10.05H11.62c.14.09,2.7-11.74,3.87-13.73C17.5,20.54,19.25,10.91,28.67,14.82Z"/><path class="cls-2" d="M18.14,20.66S21,36.08,16.45,36.34H12"/><line class="cls-2" x1="18.54" y1="34.12" x2="12.54" y2="34.12"/><line class="cls-2" x1="18.98" y1="31.3" x2="13.24" y2="31.3"/><line class="cls-2" x1="19.03" y1="28.5" x2="13.98" y2="28.5"/><line class="cls-2" x1="18.84" y1="25.87" x2="14.74" y2="25.87"/><path class="cls-3" d="M26,22S25.46,32.22,28,36.34H23.75s-2.08-8.63,0-15.38Z"/><path class="cls-4" d="M28.67,14.82c-1.43.7-2.93,7.84-2.88,12.8.05,6.2,3.63,10.07,2.88,10.05H11.62c.14.09,2.7-11.74,3.87-13.73C17.5,20.54,19.25,10.91,28.67,14.82Z"/><path class="cls-1" d="M13.24,10s2-2.23,3.19-2.47c0,0,3.67-2.36,5.15-4.68,0,0,.75.54-1,4.24,0,0,4.65.36,8-4.58,0,0,1.2,1.67-3.36,5.71a10.36,10.36,0,0,0,7.9-2s-.44,2.1-3.65,3.69c0,0,5.15.88,8.37-1a4.84,4.84,0,0,1-3.07,2.86c-.81-.43-.14,9.69-8.7,8.58,0,0,2.63,2.72,1.46,4.46,0,0-.92-1.74-4.79-2.32,0,0,1.28,4.26.06,4.7,0,0-1.68-2.25-7.1-3.59,0,0-7.08-1.09-5.48,2.56A9.1,9.1,0,0,1,7.12,20s2.77,2.35,3.33-.75c0,0,4.16,3.3,5.63-.15,0,0,1.52-2.91-2.29-4.6a3,3,0,0,0-4.23,1.54s-1-1.87-2.63-1.59l-.15,2L4.39,15l-.75,2s-1.67-2.27-1-7C2.62,9.94,10.68,12.36,13.24,10Z"/><path class="cls-5" d="M15.49,11.33,20.4,9.57s-.06,2.42-1.34,3C19.06,12.6,16.39,14.11,15.49,11.33Z"/><polygon class="cls-3" points="21.2 4.02 18.32 8.23 20.15 7.33 21.2 4.02"/><path class="cls-3" d="M28,4s-3.77,4.16-5.14,4.55l1.61-.17S27.8,6.74,28,4Z"/><path class="cls-3" d="M22.52,26.86c.3-.1,1.34-4.11-2.12-6.83C20.4,20,22.7,25.55,22.52,26.86Z"/><path class="cls-3" d="M9,14.82s1.57-2.29,3.52-.92L10,15.26l-.66.49Z"/><path class="cls-3" d="M36,10.3c.48-.2.72-.33.6-.33L28,10.08l1.1-.07s2.67-1.23,2.75-2.55c0,0-4.5,2.8-5.51,2.72l.23,0-.23,0c3.16.72,4.77,1.47,3.22,2.25l2.63-.38s-.62,1.23-3.38,1.45c0,0,1.65,1,2.48.4,0,0-1.64,2.72-3.81,2a2.89,2.89,0,0,0,2.36.79s-1.81,2.1-4,1.08c0,0,1.64,1.36,2.2,1,0,0-2.73.84-4.55,0l.08.05-.28-.14A31.1,31.1,0,0,1,27.44,24a6.16,6.16,0,0,0-2.2-4h0s6.13,1.87,8.11-3.82l1.17-4.71,2-.49.34-1.11A5.35,5.35,0,0,1,36,10.3Zm-3.53,1.27c.69-.22,1.32-.44,1.88-.64C33.74,11.16,33.09,11.39,32.49,11.57Z"/><path class="cls-3" d="M8.41,24S7,22.75,15.49,22.41c0,0-6.59,1.09-5.49,2.56l-.56.43Z"/><path class="cls-3" d="M16.46,13.77s3.77-.46,5-1.65A4,4,0,0,1,16.46,13.77Z"/><path class="cls-4" d="M13.24,10s2-2.23,3.19-2.47c0,0,3.67-2.36,5.15-4.68,0,0,.75.54-1,4.24,0,0,4.65.36,8-4.58,0,0,1.2,1.67-3.36,5.71a10.36,10.36,0,0,0,7.9-2s-.44,2.1-3.65,3.69c0,0,5.15.88,8.37-1a4.84,4.84,0,0,1-3.07,2.86c-.81-.43-.14,9.69-8.7,8.58,0,0,2.63,2.72,1.46,4.46,0,0-.92-1.74-4.79-2.32,0,0,1.28,4.26.06,4.7,0,0-1.68-2.25-7.1-3.59,0,0-7.08-1.09-5.48,2.56A9.1,9.1,0,0,1,7.12,20s2.77,2.35,3.33-.75c0,0,4.16,3.3,5.63-.15,0,0,1.52-2.91-2.29-4.6a3,3,0,0,0-4.23,1.54s-1-1.87-2.63-1.59l-.15,2L4.39,15l-.75,2s-1.67-2.27-1-7C2.62,9.94,10.68,12.36,13.24,10Z"/><rect class="cls-1" x="10.02" y="36.34" width="21.31" height="2.66" rx="1"/><path class="cls-3" d="M24.67,36.59h5.75l.83,1.56-1,.82-5.61-.2S25.6,38.06,24.67,36.59Z"/><rect class="cls-4" x="10.02" y="36.34" width="21.31" height="2.66" rx="1"/></svg>