<?xml version="1.0" encoding="utf-8"?>
<!-- Generator: Adobe Illustrator 23.0.1, SVG Export Plug-In . SVG Version: 6.00 Build 0)  -->
<svg version="1.1" id="Layer_1" xmlns="http://www.w3.org/2000/svg" xmlns:xlink="http://www.w3.org/1999/xlink" x="0px" y="0px"
	 viewBox="0 0 1280 886" style="enable-background:new 0 0 1280 886;" xml:space="preserve">
<g transform="translate(0.000000,886.000000) scale(0.100000,-0.100000)">
	<path d="M7023.2,8736.9c-373.8-16.9-741.3-58.3-1041.8-116.7c-395.3-77.8-754-220.7-1143-456.6
		c-165.8-101.5-451.1-306.1-700.6-503.1c-125.1-98.9-357.9-272.3-518.1-385.5c-424-299.3-571.5-413.5-771.6-597.8
		c-106.8-98.9-292.5-293.4-352.3-369.5c-32.7-42.3-23.9-36.4,111.6,72.7c977.2,785.5,1948.8,1297.8,3020.9,1592.1
		c412.9,113.3,882.3,191.1,1386.9,230.8c187.3,14.4,872,14.4,1068.1,0c385.8-28.7,735.7-72.7,1076-134.4l211.2-38l350.7-6.8
		c380.2-6.8,409.7-10.1,557.9-62.6c121.2-43.1,289.3-142,393-230.8c19.1-16.9,35.9-27.9,37.5-26.2c7.2,6.8-98,138.7-140.3,176.7
		c-97.2,87.1-189.7,141.2-387.4,228.3c-64.6,27.9-160.2,71.9-212.8,97.2c-634.5,308.6-1390.9,482.8-2284.4,527.6
		C7537.3,8741.9,7156.4,8743.6,7023.2,8736.9z"/>
	<path d="M7334.1,8133.2c-770.8-27.9-1490.5-154.7-2183.9-385.5c-206.4-68.5-216-71.9-212.8-76.1c2.4-1.7,26.3,0.8,54.2,5.1
		c86.1,14.4,400.1,49.9,597,67.6c381,34.7,641.6,45.7,1064.1,45.7c688.7,0.8,946.9-25.4,1861.1-185.2
		c432.8-76.1,664-114.1,667.1-109.9c1.6,1.7-19.9,9.3-47,17.8c-181.7,53.3-444.8,156.4-531.6,208.8c-63.8,38-108.4,77.8-120.4,108.2
		c-8.8,23.7-8.8,28.7,5.6,49c38.3,55,161.8,97.2,373,128.5c66.2,9.3,139.5,20.3,163.4,23.7c40.6,5.9,33.5,7.6-103.6,25.4
		c-322.8,41.4-627.3,65.1-988.4,77.8C7674.4,8143.3,7601.9,8143.3,7334.1,8133.2z"/>
	<path d="M6030.9,7702c-698.2-43.1-1313.6-203.8-1984.7-516.6c-245.5-115-722.9-380.5-980.4-546.2
		c-219.2-141.2-593-410.9-583.4-421.1c0.8-0.8,55,26.2,118.8,60.9c234.3,126,614.5,295.1,965.2,429.5
		c1367,523.4,2826.4,731.4,4409.3,626.5c224-15.2,574.7-48.2,761.2-72.7c97.2-12.7,218.4-18.6,466.3-24.5
		c422.4-10.1,522.1-21.1,657.6-71c63.8-23.7,98.8-44.8,150.6-87.9c31.9-27.9,34.3-28.7,28.7-9.3c-31.1,102.3-208,186-578.7,273.1
		c-150.6,35.5-664,137.8-938.1,186c-425.6,76.1-849.7,126-1416.4,166.6C6940.3,7707,6184.7,7712.1,6030.9,7702z"/>
	<path d="M6724.3,7283.4c-26.3-1.7-115.6-6.8-199.3-11.8c-427.2-26.2-828.9-80.3-1227.5-164.9c-228-48.2-600.2-148-620.1-164.9
		c-3.2-3.4,51-8.5,122-11c498.2-22,1111.1-120.1,1873.1-298.5c440-104,768.4-198.7,1078.4-312.8c43.8-16.1,80.5-28.7,82.1-28.7
		c2.4,0-16.7,18.6-42.2,41.4c-111.6,99.8-176.9,191.9-194.5,274.8c-46.2,221.5,312.4,446.4,898.3,563.1c199.3,39.7,196.9,38,78.9,49
		c-516.5,49.9-757.2,61.7-1303.2,64.3C6996.1,7285.1,6750.6,7285.1,6724.3,7283.4z"/>
	<path d="M2591.6,6807.4c-33.5-11-67-32.1-86.9-55c-11.2-11.8-23.9-22-28.7-22c-12.8,0-37.5-30.4-63.8-80.3
		c-12-22.8-35.1-58.3-49.4-79.5c-34.3-47.3-63-107.4-70.1-145.4c-2.4-16.1,0.8-83.7,8.8-151.3c9.6-94.7,12-157.3,8-274.8
		c-7.2-197.8-10.4-190.2,123.5-274.8c109.2-70.2,171.4-118.4,238.3-187.7c32.7-33,87.7-70.2,211.2-141.2
		c330-190.2,541.2-323,653.6-411.8c173.8-137.8,236.7-164,300.5-124.3c35.9,22,36.7,44.8,4.8,83.7c-53.4,65.1-156.2,126-548.4,327.2
		c-67.8,34.7-161,89.6-207.2,121.8c-172.2,120.9-428.8,356-483.8,442.2c-18.3,30.4-47,71.9-62.2,93c-41.4,56.6-97.2,180.9-115.6,257
		c-47.8,201.2,8,382.2,180.1,579.2c39.9,45.7,42.2,51.6,26.3,50.7C2620.3,6814.2,2602.7,6810.8,2591.6,6807.4z"/>
	<path d="M4575.5,6798.1c-288.5-16.9-458.3-51.6-883.9-181.8c-111.6-33.8-287.7-87.1-391.4-117.5c-278.2-82-450.3-147.1-599.4-225.7
		c-72.5-38.9-159.4-92.2-155.4-96.4c1.6-1.7,31.1,4.2,66.2,13.5c350.7,89.6,803.4,169.1,1195.6,209.7
		c1051.3,110.8,2132.9,45.7,3359.6-202.1c203.3-40.6,188.1-38,422.4-63.4c356.3-38.9,499-76.1,620.9-160.6
		c23.9-16.9,44.6-27.9,46.2-26.2c7.2,6.8-27.1,58.3-59,90.5c-124.3,125.1-312.4,195.3-883.1,328.9c-140.3,33-332.4,82-426.4,109.9
		C6090.7,6710.2,5203.6,6833.6,4575.5,6798.1z"/>
	<path d="M4855.2,6387.2c-213.6-6.8-637.6-43.1-650.4-56.6c-1.6-1.7,46.2-7.6,106.8-13.5c353.1-32.1,784.3-131.1,1069.7-243.5
		c141.1-55.8,290.1-130.2,589.8-294.2c297.3-163.2,668.7-354.3,675.1-348.3c1.6,1.7-12,22-30.3,44.8
		c-17.5,22.8-44.6,67.6-59.8,100.6c-59.8,130.2-22.3,238.4,120.4,346.7c129.9,98.9,341.1,175,540.4,195.3
		c29.5,3.4,51.8,7.6,50.2,9.3c-18.3,19.4-814.6,150.5-1168.5,191.9C5666.6,6371.1,5187.6,6397.4,4855.2,6387.2z"/>
	<path d="M3233.2,6205.4c-149.8-8.5-248.7-21.1-385.8-46.5c-94.1-18.6-267.8-63.4-276.6-72.7c-0.8-1.7,181.7-2.5,405.7-2.5
		c413.7,0,489.4-3.4,826.6-38.9c749.2-77.8,1583-279.9,2462.9-595.2c212.8-76.1,604.2-228.3,757.2-295.1
		c37.5-16.1,69.3-27.1,71.7-24.5c9.6,10.1-61.4,61.7-137.1,101.5c-116.4,60.9-491,240.1-632.1,302.7
		c-65.4,28.7-185.7,76.9-267,105.7c-187.3,67.6-265.4,103.2-526.1,236.7c-424.8,218.1-596.2,271.4-995.5,308.6
		C4294.1,6208,3484.3,6220.7,3233.2,6205.4z"/>
	<path d="M2922.4,6002.5c-100.4-2.5-204.8-5.9-230.4-6.8c-26.3,0-45.4-2.5-43.8-5.1c2.4-1.7,47-10.1,99.6-16.9
		c1495.3-202.9,2439-743.2,2848.7-1631.8c140.3-303.5,212.8-618.9,230.4-996.8l6.4-131.1l54.2-64.3
		c146.7-174.2,373.8-369.5,580.3-499.7c299.7-189.4,607.4-310.3,1157.3-454.9c508.5-133.6,849.7-179.2,1275.3-171.6
		c315.6,5.1,440,23.7,717.4,107.4c389.8,117.5,602.6,228.3,758,392.3c130.7,138.7,190.5,269.7,200.1,436.3
		c8.8,169.1-48.6,318.8-145.9,379.6c-15.1,9.3-27.1,16.1-27.1,14.4s11.2-27.9,23.9-59.2c46.2-108.2,59-211.4,35.9-303.5
		c-53.4-216.4-267-403.3-625.7-547c-275-110.8-566.7-170.8-1008.3-208c-235.9-19.4-678.3-12.7-856.8,12.7
		c-334,49-556.3,126.8-940.5,329.7c-337.2,178.4-506.1,301.8-613.7,450.7c-180.9,247.7-314.8,574.1-377,919.9
		c-23.9,133.6-25.5,431.2-2.4,541.1c38.3,187.7,121.2,355.1,232.7,470.9c66.2,67.6,271.8,194.5,363.5,224.1
		c16.7,5.1,30.3,11.8,30.3,14.4c0,2.5-63,33-140.3,66.8C5340.6,5789.4,4113.2,6040.6,2922.4,6002.5z"/>
	<path d="M2609.1,5927.3c28.7-54.1,124.3-186.9,188.1-261.3c125.1-146.3,307.7-279.9,559.5-407.5
		c231.1-118.4,324.4-169.9,400.1-220.7c73.3-49.9,125.9-107.4,125.9-137.8c0-29.6-31.9-60.9-73.3-71.9
		c-39.1-11-70.9-50.7-160.2-199.5c-27.1-45.7-94.9-148-149.1-227.4c-253.5-367.8-363.5-610.5-302.9-667.9
		c27.9-27.1,89.3-26.2,200.1,2.5c680.7,177.6,1295.2,168.3,1804.5-27.9c180.1-69.3,408.9-194.5,553.2-303.5
		c28.7-21.1,52.6-38,53.4-36.4c1.6,0.8-1.6,44-5.6,94.7c-102,1207.4-858.4,1981.9-2294.7,2348.8
		c-210.4,54.1-780.3,149.7-891.1,149.7h-26.3L2609.1,5927.3z"/>
	<path d="M2887.3,5319.3c153.8-232.5,230.4-388.9,294.9-600.3c72.5-240.1,74.1-427.8,5.6-732.2c-38.3-169.9-44.6-268-19.1-288.3
		c18.3-13.5,60.6-16.1,60.6-3.4c0,5.1-7.2,8.5-15.1,8.5c-8.8,0-23.1,10.1-31.9,22c-59,79.5,32.7,287.5,296.5,673.9
		c137.9,202.9,204.8,315.4,204.8,345.8c0,67.6-286.9,308.6-540.4,454c-49.4,28.7-101.2,56.6-115.6,63.4
		c-14.3,6.8-54.2,25.4-88.5,42.3C2887.3,5330.3,2877.7,5332.9,2887.3,5319.3z"/>
	<path d="M8677.1,4988.8c-52.6-4.2-224-13.5-380.2-20.3c-347.5-16.1-497.4-32.1-847.3-90.5c-82.9-14.4-224.8-34.7-314.8-46.5
		c-271.8-33.8-347.5-48.2-644.8-122.6c-131.5-33-323.6-75.2-341.1-75.2c-4,0-35.1-120.1-31.9-123.4c1.6-1.7,20.7,0,42.2,4.2
		c78.9,16.1,514.1,86.2,684.7,110.8c362.7,51.6,758,96.4,1076,122.6c118.8,10.1,212.8,23.7,322.8,46.5
		c85.3,17.8,212.8,38.9,283,46.5c70.1,7.6,190.5,21.1,267,31.3c177.7,22,396.1,23.7,522.1,3.4c140.3-22.8,225.6-48.2,406.5-119.2
		c35.9-14.4-50.2,65.9-95.6,88.8c-63,32.1-341.9,114.1-444.8,131.1C9084.4,4992.1,8814.2,4998.9,8677.1,4988.8z"/>
	<path d="M1419.1,4868.7c-36.7-28.7-101.2-88.8-143.5-133.6c-81.3-86.2-192.1-220.7-186.5-227.4c2.4-1.7,19.1,15.2,37.5,38
		c70.9,87.1,173,194.5,257.5,269.7C1514,4931.3,1530.7,4955.8,1419.1,4868.7z"/>
	<path d="M1442.2,4840.8c-94.9-77.8-212-195.3-283.8-284.9c-54.2-69.3-63-96.4-39.1-122.6c17.5-18.6,79.7,33,113.2,93.9
		c44.6,81.2,115.6,177.6,208,282.4c46.2,51.6,82.9,94.7,81.3,94.7S1484.5,4875.5,1442.2,4840.8z"/>
	<path d="M2005.7,4782.5c-148.3-54.1-262.2-110.8-370.6-186c-80.5-55-112.4-72.7-133.1-72.7c-49.4,0-43,40.6,23.1,132.7
		c20.7,29.6,35.9,53.3,33.5,53.3c-2.4,0-31.9-19.4-65.4-44c-61.4-44-188.9-171.6-224.8-225.7c-19.9-30.4-17.5-29.6,35.9,7.6
		c17.5,12.7,57.4,34.7,87.7,49.9l55.8,27.1l-55.8-60.9c-30.3-33-48.6-58.3-39.9-55c55.8,22,133.1,32.1,215.2,27.9
		c103.6-5.1,332.4-62.6,462.3-116.7c155.4-64.3,255.1-155.6,374.6-343.3c39.1-61.7,72.5-112.5,74.9-112.5
		c12.8,0,97.2,57.5,91.7,61.7c-4,1.7-33.5,12.7-65.4,22.8c-93.3,28.7-112.4,64.3-60.6,114.1l28.7,27.9l-43,16.9
		c-23.1,9.3-58.2,21.1-76.5,27.1c-19.1,5.1-47.8,22-63,37.2c-24.7,23.7-27.9,31.3-23.1,51.6c8.8,35.5,52.6,76.1,107.6,98.1
		c26.3,11,45.4,22.8,42.2,26.2c-14.3,15.2-130.7,25.4-232.7,20.3c-110-5.1-141.1,0.8-149.8,27.9c-1.6,5.9,20.7,35.5,50.2,65.9
		l54.2,55l-43-5.1c-258.2-28.7-302.1-26.2-302.1,13.5c0.8,51.6,114,161.5,260.6,252C2121.3,4818.8,2109.4,4819.7,2005.7,4782.5z"/>
	<path d="M7832.3,4645.5c-301.3-15.2-572.3-38.9-952.5-84.6c-278.2-32.1-766-104-775.5-112.5c-6.4-6.8-18.3-144.6-12-144.6
		c2.4,0,107.6,13.5,234.3,29.6c294.1,38,713.4,82.9,983.6,105.7c283.8,22.8,334.8,29.6,440,59.2c49.4,13.5,122.7,30.4,162.6,37.2
		c298.9,55,848.9,50.7,1202.8-8.5l31.9-5.9l-23.1,26.2c-46.2,52.4-152.2,75.2-402.5,86.2C8532.1,4642.1,7920.7,4649.7,7832.3,4645.5
		z"/>
	<path d="M1038.1,4461.2c-9.6-15.2-19.1-39.7-21.5-54.1c-4.8-24.5-3.2-26.2,27.1-35.5c19.1-5.1,40.7-19.4,52.6-34.7
		c23.9-29.6,34.3-28.7,83.7,9.3c27.1,21.1,32.7,30.4,32.7,53.3c0,43.1-12.8,50.7-47,26.2c-15.1-11-33.5-20.3-39.9-20.3
		c-14.3,0-31.9,25.4-32.7,47.3c0,18.6-14.3,37.2-28.7,37.2C1058.8,4489.9,1046.9,4477.2,1038.1,4461.2z"/>
	<path d="M916.2,4462.9c-14.3-24.5-25.5-56.6-42.2-118.4c-23.1-90.5-47.8-51.6-42.2,68.5c0.8,33,0,60-3.2,60
		c-8.8,0-36.7-86.2-45.4-140.4c-4-27.1-10.4-88.8-13.6-135.3c-2.4-47.3-8-90.5-11.2-96.4c-11.2-19.4-31.1-1.7-40.7,35.5
		c-15.9,60-17.5,19.4-3.2-65.9c7.2-44,15.1-79.5,16.7-79.5c5.6,0,24.7,47.3,30.3,75.2c7.2,42.3,78.1,166.6,127.5,224.9
		c23.9,27.9,40.7,52.4,35.9,53.3c-9.6,4.2-8.8,46.5,1.6,93.9C935.3,4481.5,932.1,4489.9,916.2,4462.9z"/>
	<path d="M1301.9,4424.8c-90.9-65.1-157.8-144.6-138.7-164.9c8.8-9.3,72.5,44.8,107.6,91.3c13.6,18.6,39.1,49,56.6,69.3
		C1366.5,4463.7,1358.5,4465.4,1301.9,4424.8z"/>
	<path d="M1455.8,4417.2c-12.8-2.5-50.2-11.8-82.1-22c-45.4-14.4-63.8-24.5-85.3-50.7c-42.2-49-37.5-60.9,15.1-35.5
		c38.3,18.6,124.3,37.2,124.3,27.1c0-1.7-28.7-25.4-63.8-52.4c-55-42.3-63.8-54.1-67.8-80.3c-3.2-16.9-6.4-39.7-8.8-51.6
		c-7.2-44,6.4-45.7,70.9-8.5c34.3,19.4,61.4,32.1,61.4,27.9s-8.8-21.1-19.9-38c-11.2-16.9-19.9-32.1-19.9-33.8s24.7-1.7,55.8,0
		c100.4,5.9,219.2-34.7,333.2-114.1c114.8-80.3,298.9-248.6,386.6-353.4c134.7-161.5,236.7-324.7,338.8-541.1l59.8-126l15.1,45.7
		c8,25.4,39.1,100.6,70.1,166.6c43,93,66.2,131.9,102.8,173.3c56.6,64.3,81.3,77.8,158.6,90.5c63,10.1,138.7,43.1,198.5,86.2
		c38.3,27.9,145.9,132.7,145.9,142c0,2.5-15.1,4.2-34.3,2.5c-51.8-4.2-70.9,16.1-75.7,79.5c-1.6,27.1,2.4,76.1,8.8,107.4
		c8,43.1,8.8,55,1.6,46.5c-57.4-65.1-201.7-257.9-245.5-328.1c-51-82-55-86.2-49.4-55c2.4,18.6,10.4,42.3,16.7,53.3
		c15.1,23.7,10.4,23.7-29.5-3.4c-18.3-11.8-56.6-31.3-85.3-43.1c-28.7-11-61.4-27.1-72.5-35.5c-49.4-36.4-59-33.8-19.9,5.1
		c23.1,23.7,63,51.6,93.3,65.9c29.5,14.4,53.4,27.1,53.4,29.6c0,2.5-25.5,11-57.4,18.6c-122.7,31.3-206.4,110.8-341.1,323.8
		c-185.7,292.5-279.8,356.8-664,453.2C1642.3,4414.7,1516.3,4426.5,1455.8,4417.2z"/>
	<path d="M973.5,4357.2c-20.7-7.6-106-119.2-151.4-199.5c-41.4-73.6-43.8-80.3-43.8-135.3c0-47.3-1.6-55-9.6-42.3
		c-5.6,7.6-11.2,12.7-12.8,10.1c-1.6-1.7-11.2-18.6-21.5-36.4c-10.4-18.6-43.8-65.9-74.9-105.7c-97.2-128.5-161.8-305.2-132.3-364.4
		c8-15.2,11.2-14.4,77.3,12.7c130.7,55,199.3,118.4,262.2,241.8c43,85.4,63,106.5,133.1,144.6c64.6,33.8,90.9,55.8,109.2,88.8
		c15.9,28.7,31.9,36.4,31.9,15.2c0-22-50.2-73.6-115.6-119.2c-72.5-49.9-106.8-86.2-155.4-163.2c-67-105.7-128.3-160.6-242.3-216.4
		c-55.8-27.9-56.6-28.7-34.3-37.2c57.4-23.7,98.8-9.3,325.2,108.2c98.8,51.6,178.5,98.1,199.3,118.4c19.9,17.8,65.4,71,102,117.5
		c35.9,46.5,74.1,91.3,85.3,98.9c16.7,11.8,19.1,19.4,19.1,67.6c0,54.1-4.8,63.4-20.7,46.5c-11.2-11.8-33.5-1.7-39.1,16.9
		c-2.4,9.3,0.8,27.9,8,42.3c9.6,19.4,10.4,29.6,3.2,43.1c-5.6,11-6.4,33-3.2,55.8l5.6,38l-23.9-14.4c-45.4-28.7-63.8,0.8-33.5,53.3
		c24.7,42.3,19.1,47.3-16.7,16.9c-37.5-32.1-59.8-26.2-58.2,16.1c0.8,22-0.8,24.5-17.5,21.1c-13.6-2.5-23.9,3.4-39.1,22.8
		C1062,4352.9,1011,4369.8,973.5,4357.2z M957.6,4086.6c0-24.5-34.3-81.2-56.6-94.7c-31.9-18.6-50.2-6.8-44.6,29.6
		c5.6,36.4,17.5,53.3,49.4,67.6C939.3,4105.2,957.6,4103.5,957.6,4086.6z M617.3,3690.1c3.2-3.4-1.6-16.1-10.4-28.7
		c-8.8-12.7-19.9-32.1-23.9-43.1c-7.2-16.9-8-14.4-4.8,16.1C582.2,3679.9,601.3,3707,617.3,3690.1z"/>
	<path d="M1293.2,4281.9c-24.7-13.5-48.6-33.8-57.4-49c-31.9-55.8-17.5-52.4,59,16.1C1360.9,4308.1,1360.9,4317.4,1293.2,4281.9z"/>
	<path d="M6648.6,4278.5c-160.2-10.1-462.3-33.8-518.1-40.6l-43.8-5.9l1.6-33c1.6-18.6,3.2-33.8,4.8-35.5c0.8-1.7,71.7,1.7,157,7.6
		c216,13.5,1124.7,12.7,1327.1-0.8c87.7-5.9,245.5-22,350.7-35.5c200.1-25.4,356.3-35.5,352.3-22c-8.8,28.7-131.5,62.6-397.7,110.8
		c-284.6,50.7-356.3,56.6-751.6,59.2C6934,4284.5,6716.4,4281.9,6648.6,4278.5z"/>
	<path d="M1338.6,4110.3c-20.7-14.4-43-36.4-49.4-50.7c-15.9-32.1-15.9-34.7,2.4-34.7c8.8,0,26.3,14.4,39.1,32.1
		c27.9,38,52.6,77.8,47.8,77.8C1376.9,4134.8,1358.5,4123.8,1338.6,4110.3z"/>
	<path d="M2962.2,4063.8c-189.7-69.3-280.6-108.2-379.4-162.3c-102-55.8-99.6-53.3-73.3-85.4l22.3-27.9l75.7,28.7
		c41.4,15.2,149.1,58.3,239.1,96.4c90.1,37.2,188.9,76.1,219.2,87.1c31.1,10.1,56.6,18.6,57.4,19.4s7.2,25.4,13.6,54.1
		c8,38,8.8,52.4,2.4,51.6C3133.6,4125.5,3054.7,4097.6,2962.2,4063.8z"/>
	<path d="M6282,4108.6c-67.8-3.4-138.7-9.3-157.8-11.8c-29.5-4.2-32.7-7.6-30.3-23.7c2.4-10.1,8-44.8,12.8-77.8
		c4.8-32.1,17.5-100.6,29.5-151.3l19.9-91.3l93.3,5.9c100.4,5.9,318.8-6.8,439.2-25.4c41.4-6.8,76.5-10.1,78.1-8.5
		c1.6,1.7-3.2,11.8-10.4,23.7c-6.4,11-14.3,38.9-16.7,61.7c-3.2,33,0,48.2,14.3,75.2c48.6,87.9,225.6,163.2,504.5,214.8l87.7,16.1
		h-470.3C6617.5,4115.4,6349.7,4112,6282,4108.6z"/>
	<path d="M1386.4,4078.2c-35.1-5.9-46.2-31.3-46.2-107.4V3904l-33.5-34.7c-51.8-53.3-105.2-123.4-92.5-123.4
		c20.7,0.8,102,40.6,204,100.6c102,59.2,196.1,102.3,223.2,102.3c7.2,0-10.4-14.4-39.9-31.3c-30.3-16.1-54.2-33.8-54.2-37.2
		c0-4.2,15.9-7.6,34.3-7.6c53.4,0,151.4-29.6,214.4-65.1c64.6-35.5,157.8-126,267-257c168.2-202.9,253.5-366.1,348.3-662.9
		c67.8-209.7,130.7-333.1,220-428.7c39.9-42.3,142.7-120.1,149.1-113.3c1.6,1.7-8,25.4-19.9,52.4c-12.8,27.1-29.5,69.3-36.7,92.2
		c-11.2,34.7-20.7,47.3-54.2,71.9c-51.8,37.2-96.4,96.4-118,158.1c-15.1,43.1-16.7,60-13.6,137.8l4,88.8l-54.2,118.4
		c-173,373.7-363.5,617.2-675.1,863.3C1658.2,4051.1,1519.5,4099.3,1386.4,4078.2z"/>
	<path d="M3057.9,3858.3c-154.6-40.6-445.6-154.7-432-169.1c2.4-1.7,87.7,11.8,190.5,31.3l185.7,35.5l41.4,48.2
		c23.1,26.2,41.4,49.9,42.2,54.1C3085.8,3864.2,3082.6,3865.1,3057.9,3858.3z"/>
	<path d="M4169.8,3841.4c-293.3-21.1-506.9-55.8-773.1-124.3l-107.6-27.9l-63.8-69.3c-108.4-118.4-204-175.9-333.2-200.4
		c-34.3-6.8-72.5-19.4-85.3-28.7c-51-38.9-98-107.4-151.4-221.5c-79.7-171.6-99.6-237.6-99.6-336.5c0-70.2,3.2-87.1,21.5-129.4
		c13.6-30.4,39.9-66.8,67-95.5c42.2-42.3,47.8-45.7,83.7-45.7c28.7,0,43-4.2,55.8-17.8c39.9-42.3,161,14.4,271.8,126l71.7,73.6
		l22.3-27.9c27.9-36.4,39.9-78.6,40.7-150.5c0-32.1,2.4-64.3,5.6-72.7c3.2-7.6,24.7-29.6,47.8-49.9l43-35.5l56.6,19.4
		c79.7,27.1,180.1,81.2,277.4,151.3c81.3,58.3,136.3,104.8,302.9,258.7l82.9,76.1l123.5,44c212,75.2,373.8,99.8,500.6,75.2
		c80.5-15.2,125.1-41.4,223.2-132.7c106-97.2,134.7-117.5,169.8-117.5h29.5l17.5-56.6c35.9-120.1,93.3-219,153-267.2
		c23.1-19.4,51-25.4,256.7-56.6c125.9-19.4,231.1-33,232.7-31.3c1.6,1.7,16.7,38.9,34.3,82.9c21.5,54.1,38.3,83.7,51.8,93l19.9,12.7
		l-22.3,25.4l-23.1,24.5l-16.7,270.6c-19.1,309.5-19.9,336.5-8,314.5c12-21.1,49.4-39.7,63.8-31.3c14.3,10.1,10.4,14.4-80.5,72.7
		c-99.6,64.3-306.9,169.9-426.4,217.3c-308.5,122.6-654.4,191.9-962.1,191.9c-184.1,0-334.8-27.1-491-86.2
		c-63.8-24.5-70.9-30.4-151.4-115.8c-77.3-81.2-185.7-169.9-254.3-207.1c-19.1-10.1-27.1-11-31.1-3.4c-3.2,5.9,0,13.5,8.8,18.6
		c92.5,56.6,189.7,136.1,264.6,215.6l86.9,91.3l98.8,34.7c163.4,56.6,238.3,70.2,416.1,75.2c174.6,5.1,296.5-4.2,476.6-36.4
		c349.9-62.6,682.3-188.5,965.2-366.9l79.7-49.9l-2.4,65.1l-2.4,65.1l-103.6,73.6c-176.2,126-413.7,245.2-625.7,315.4
		C4823.4,3816.9,4446.3,3862.5,4169.8,3841.4z"/>
	<path d="M9199.2,3778c56.6-22.8,87.7-46.5,87.7-65.9c0-14.4-2.4-14.4-49.4,1.7c-32.7,11-81.3,17.8-137.9,20.3l-87.7,4.2l42.2-21.1
		c23.9-12.7,41.4-26.2,41.4-34.7c0-10.1,6.4-11.8,30.3-8.5c81.3,11,143.5,13.5,256.7,13.5l123.5-0.8l-23.9,16.9
		c-66.2,46.5-212,93.9-289.3,92.2h-37.5L9199.2,3778z"/>
	<path d="M9438.3,3785.6c0-1.7,17.5-15.2,39.9-30.4c23.1-16.1,41.4-35.5,44.6-47.3c4-17.8,10.4-20.3,57.4-25.4
		c29.5-3.4,74.9-9.3,100.4-13.5c26.3-3.4,48.6-5.9,50.2-4.2c5.6,5.1-73.3,54.1-114.8,71.9
		C9567.5,3756.9,9438.3,3792.4,9438.3,3785.6z"/>
	<path d="M9701.4,3761.1c35.9-29.6,52.6-55,57.4-86.2c1.6-13.5,15.1-19.4,74.1-31.3c94.1-19.4,96.4-19.4,82.9-2.5
		c-37.5,48.2-164.2,128.5-226.4,143.7C9667.1,3789.8,9667.9,3789,9701.4,3761.1z"/>
	<path d="M2543.8,3772.9c0-10.1,51-60.9,61.4-60.9c4.8,0,29.5,10.1,55,22.8l47,22l-35.9,5.9
		C2593.2,3775.5,2543.8,3779.7,2543.8,3772.9z"/>
	<path d="M2894.5,3690.1c-82.1-36.4-156.2-46.5-186.5-25.4c-22.3,15.2-44.6,17.8-44.6,5.9c0-11,77.3-40.6,138.7-52.4
		c45.4-9.3,55.8-8.5,82.9,4.2c27.1,13.5,100.4,98.9,83.7,98.1C2964.6,3719.7,2931.9,3706.1,2894.5,3690.1z"/>
	<path d="M9987.5,3679.9c34.3-33.8,42.2-46.5,39.1-63.4c-3.2-18.6,0.8-22,44.6-37.2c27.1-10.1,62.2-23.7,78.9-31.3
		c15.9-7.6,29.5-10.1,29.5-6.8c0,12.7-89.3,97.2-131.5,126c-22.3,15.2-54.2,33-71.7,41.4l-31.9,13.5L9987.5,3679.9z"/>
	<path d="M8811.1,3684.1c-47-9.3-56.6-22.8-15.9-22.8c13.5,0,36.7-5.9,49.4-13.5c22.3-12.7,31.1-11.8,117.2,1.7
		c51.8,8.5,90.9,18.6,87.7,21.1c-9.6,9.3-108.4,24.5-153.8,23.7C8871.6,3693.4,8833.4,3689.2,8811.1,3684.1z"/>
	<path d="M6180.7,3676.5c1.6-5.9,13.6-39.7,25.5-75.2l22.3-64.3l263.8-5.1c166.6-3.4,328.4-11.8,439.2-22.8
		c96.4-9.3,216.8-18.6,267-19.4c67.8-2.5,99.6-6.8,122-18.6c37.5-18.6,43.8-13.5,19.9,16.1c-13.6,16.9-50.2,33.8-145.9,68.5
		c-143.5,50.7-275.8,82-434.4,100.6C6513.1,3685.8,6172.8,3697.7,6180.7,3676.5z"/>
	<path d="M9239.1,3656.2c-518.1-48.2-935-203.8-1351-503.1c-140.3-100.6-181.7-140.4-83.7-77.8
		c302.9,191.1,785.9,353.4,1255.4,421.1c153.8,22,393.7,26.2,518.1,8.5c326.8-45.7,573.9-164.9,681.5-327.2
		c55-82.9,74.9-151.3,74.9-253.7c0-45.7,0.8-82.9,1.6-82.9c8.8,0,77.3,133.6,90.1,175c27.9,87.9,17.5,184.3-29.5,276.5
		c-30.3,60.9-115.6,146.3-188.9,190.2c-111.6,67.6-302.9,125.1-522.9,157.3C9597,3652.9,9313.2,3663,9239.1,3656.2z"/>
	<path d="M8681.1,3626.7c-24.7-3.4-66.2-15.2-91.7-25.4l-47-18.6l35.1-11c35.1-11,67-4.2,222.4,44
		C8833.4,3626.7,8738.5,3635.1,8681.1,3626.7z"/>
	<path d="M10210.7,3602.1c8.8-21.1,16.7-51.6,16.7-67.6c0-24.5,4.8-33,24.7-45.7c12.8-8.5,45.4-33.8,70.9-56.6l47-41.4l-12.8,31.3
		c-23.9,62.6-67,122.6-133.1,188.5l-29.5,29.6L10210.7,3602.1z"/>
	<path d="M1905.3,3582.7c-138.7-92.2-330-259.6-510.9-446.4c-92.5-96.4-106.8-125.1-82.1-164.9c16.7-27.9,47-40.6,136.3-60
		c58.2-12.7,110.8-15.2,298.1-15.2c285.3,0,629.7,25.4,629.7,45.7c-0.8,39.7,7.2,38.9-376.2,38.9c-271,0-385.8,3.4-460.7,12.7
		l-99.6,12.7l192.9,5.1c242.3,6.8,682.3,41.4,694.2,54.1c4.8,4.2-50.2,138.7-65.4,161.5c-8.8,12.7-19.1,10.1-117.2-24.5
		c-133.9-49-265.4-84.6-409.7-111.6c-137.1-25.4-290.9-45.7-290.9-38c0,9.3,218.4,116.7,338.8,166.6c106,44,340.3,120.9,369,120.9
		c33.5,0.8,36.7,13.5,11.2,51.6c-12.8,20.3-36.7,52.4-51.8,71l-27.9,33.8l-54.2-27.9c-108.4-55.8-288.5-168.3-431.2-269.7
		c-80.5-56.6-144.3-98.9-141.9-95.5c2.4,4.2,44.6,44.8,94.1,89.6c112.4,102.3,280.6,236.7,390.6,311.1
		c91.7,61.7,92.5,63.4,51.8,104.8l-19.9,18.6L1905.3,3582.7z"/>
	<path d="M8457.2,3533.6c-24.7-3.4-57.4-12.7-71.7-19.4l-27.1-11.8l44.6-0.8c41.4-0.8,114,17.8,130.7,33.8
		C8542.4,3544.6,8520.1,3543.8,8457.2,3533.6z"/>
	<path d="M8298.5,3460.1c-27.1-13.5-27.1-13.5-8-16.9c11.2-0.8,36.7,5.1,55.8,14.4l35.9,16.9l-27.9-0.8
		C8339.2,3473.6,8313.7,3467.7,8298.5,3460.1z"/>
	<path d="M8173.4,3395.8c-35.9-13.5-40.6-22-13.5-22c12.8,0.8,35.9,7.6,51,16.9c25.5,15.2,26.3,16.1,8,15.2
		C8207.7,3406,8187.7,3400.9,8173.4,3395.8z"/>
	<path d="M8075.4,3334.1c-19.9-9.3-23.9-14.4-14.3-16.9c7.2-1.7,27.1,4.2,43.8,13.5C8142.3,3351.9,8117.6,3354.4,8075.4,3334.1z"/>
	<path d="M2091.8,3306.2c-165.8-44.8-419.3-144.6-533.2-210.5l-31.1-17.8l47.8,5.1c144.3,16.1,386.6,73.6,550,131.1
		c127.5,44.8,123.5,41.4,97.2,82.9c-12,19.4-26.3,34.7-31.9,34.7C2185.9,3330.7,2141.2,3319.7,2091.8,3306.2z"/>
	<path d="M6415.1,3187.8c-30.3-4.2-56.6-9.3-59-11.8c-2.4-1.7,8-22,23.1-44c14.3-22.8,28.7-44,31.9-49c3.2-5.1,25.5,2.5,55.8,18.6
		c61.4,33.8,125.1,52.4,176.2,52.4c86.9,0-5.6,28.7-118,37.2C6494.8,3192.9,6444.6,3192.1,6415.1,3187.8z"/>
	<path d="M5759.1,3110.1c2.4-20.3,10.4-138.7,17.5-264.6c12.8-224.1,13.5-229.1,33.5-251.1c17.5-20.3,23.9-22,53.4-17.8
		c43.8,5.9,110.8-15.2,153.8-48.2c19.9-15.2,51-55,76.5-96.4c23.9-39.7,51.8-76.9,62.2-83.7c10.4-7.6,41.4-19.4,70.1-26.2
		c59-16.1,86.1-39.7,118.8-103.2c19.9-39.7,23.9-42.3,118-85.4c268.6-122.6,555.6-198.7,887.1-235c383.4-41.4,997.1-29.6,1351,25.4
		c100.4,16.1,263.8,49,254.3,51.6c-4,1.7-130.7,6.8-282.2,11.8c-487.8,16.1-793.9,49.9-1155.7,126.8
		c-563.5,120.9-1022.6,334.8-1390.9,647.7c-94.1,80.3-285.3,278.2-330.8,343.3c-15.1,22-31.1,40.6-34.3,40.6
		C5757.5,3145.6,5756.7,3129.5,5759.1,3110.1z"/>
	<path d="M4617.7,2927.4c-55.8-96.4-71.7-129.4-100.4-208.8c-48.6-138.7-84.5-346.7-84.5-494.6c0-76.1,0-76.1,30.3-110.8
		c15.9-19.4,71.7-71,124.3-115c90.1-76.9,164.2-150.5,164.2-164c0-3.4-9.6-18.6-20.7-33c-12-14.4-19.9-27.1-18.3-28.7
		c8-7.6,91.7-22,126.7-22c38.3,0,39.1,0.8,43.8,27.9c3.2,18.6,0,44.8-10.4,75.2c-12.8,38-27.1,59.2-72.5,104.8
		c-42.2,42.3-64.6,71.9-86.9,120.1c-27.9,60.9-29.5,68.5-27.9,135.3c2.4,82-5.6,104-53.4,147.1c-17.5,16.1-31.9,35.5-31.9,42.3
		c0,21.1,36.7,126.8,63.8,184.3c35.1,74.4,78.1,140.4,141.1,216.4l52.6,63.4l-27.1,29.6c-32.7,36.4-96.4,82.9-136.3,99.8l-28.7,13.5
		L4617.7,2927.4z"/>
	<path d="M6624.7,2979c-87.7-8.5-111.6-12.7-111.6-19.4c0-10.1,141.9-126.8,154.6-126.8c4.8,0,13.6,7.6,18.3,16.9
		c27.1,44.8,176.9,118.4,242.3,118.4c12.8,0,23.1,4.2,23.1,8.5C6951.5,2984.1,6695.6,2986.6,6624.7,2979z"/>
	<path d="M4820.2,2794.7c-86.9-104.8-151.4-219.8-187.3-335.7l-17.5-56.6l35.1-34.7c46.2-44.8,56.6-71.9,51.8-137
		c-7.2-98.1,26.3-176.7,109.2-258.7c63.8-64.3,86.9-108.2,86.9-172.5c0.8-47.3,1.6-48.2,20.7-43.1c40.7,9.3,86.9,35.5,118.8,65.9
		c17.5,17.8,32.7,33.8,32.7,37.2c0,2.5-11.2,10.1-23.9,16.1c-31.9,15.2-71.7,58.3-85.3,93c-5.6,15.2-14.3,56.6-18.3,91.3
		c-12,100.6-22.3,128.5-60.6,172.5l-35.9,40.6l30.3,10.1c72.5,24.5,142.7,71.9,208,141.2c35.9,38,65.4,72.7,65.4,77.8
		s-13.6,30.4-29.5,57.5c-15.9,26.2-40.7,82.9-54.2,124.3c-14.3,42.3-29.5,76.9-32.7,77.8c-4,0.8-20.7,4.2-36.7,7.6
		c-16.7,2.5-53.4,21.1-81.3,41.4l-51.8,36.4L4820.2,2794.7z"/>
	<path d="M10174.8,2763.4c-36.7-60-91.7-160.6-89.3-164c1.6-1.7,31.1,16.1,64.6,38.9c57.4,38.9,61.4,43.1,52.6,60.9
		c-5.6,10.1-7.2,34.7-4.8,59.2c2.4,22,4,40.6,2.4,40.6C10198.7,2798.9,10187.6,2782.8,10174.8,2763.4z"/>
	<path d="M7190.6,2780.3c-37.5-4.2-153.8-5.1-259-2.5c-112.4,2.5-187.3,1.7-183.3-3.4c9.6-9.3,205.6-124.3,271.8-159.8l49.4-26.2
		l13.5,37.2c16.7,48.2,69.3,97.2,143.5,135.3c30.3,16.1,50.2,28.7,43.8,27.9C7264,2788.8,7228.1,2784.5,7190.6,2780.3z"/>
	<path d="M3077.8,2667c-23.9-25.4-60.6-60-81.3-76.9c-47.8-37.2-46.2-41.4,54.2-126c90.1-76.1,116.4-114.1,121.2-175
		c3.2-41.4,1.6-47.3-31.1-90.5c-55.8-76.1-284.6-301-461.5-453.2c-66.2-56.6-234.3-186-249.5-191.9c-16.7-5.9,11.2-32.1,61.4-57.5
		c31.1-15.2,51.8-21.1,59.8-16.9c7.2,4.2,26.3,13.5,42.2,22c16.7,7.6,37.5,27.9,47,44c15.9,27.1,138.7,129.4,238.3,199.5
		c100.4,70.2,181.7,157.3,255.1,272.3c46.2,73.6,155.4,272.3,162.6,297.6c8.8,30.4-16.7,76.1-67.8,118.4
		c-26.3,21.1-47,38.9-47.8,39.7c0,0.8-3.2,38.9-6.4,85.4c-5.6,82-23.9,146.3-45.4,153.9C3124.8,2713.5,3101.7,2693.2,3077.8,2667z"
		/>
	<path d="M9995.5,2643.3c-39.9-33-133.1-145.4-125.9-152.2c1.6-1.7,39.9,13.5,83.7,34.7l81.3,38l-4,31.3
		c-2.4,20.3,0.8,41.4,8.8,58.3c7.2,15.2,10.4,27.1,7.2,27.1C10042.5,2680.5,10020.2,2663.6,9995.5,2643.3z"/>
	<path d="M9655.1,2497.1c-79.7-67.6-144.3-125.1-142.7-126c3.2-3.4,94.8,22,171.4,47.3c55.8,17.8,57.4,19.4,57.4,46.5
		c0,31.3,15.9,76.1,44.6,123.4c10.4,18.6,18.3,33,16.7,33C9801.8,2621.4,9735.6,2565.5,9655.1,2497.1z"/>
	<path d="M7106.9,2573.2c17.5-16.9,358.7-172.5,402.5-184.3c19.1-5.1,19.9-4.2,17.5,33c-4.8,59.2,23.9,98.9,106,148
		c12,7.6-3.2,7.6-63.8,3.4c-91.7-7.6-400.9-5.9-442.4,1.7C7110.1,2578.2,7102.2,2577.4,7106.9,2573.2z"/>
	<path d="M2904,2535.1c-18.3-9.3-51.8-18.6-74.1-21.1c-34.3-4.2-42.2-2.5-55.8,13.5c-13.6,15.2-47,25.4-47,13.5
		c0-16.9,52.6-149.7,72.5-182.6c26.3-44,82.1-92.2,131.5-114.1c30.3-13.5,77.3-12.7,110,0.8c12.8,5.9,13.6,4.2,5.6-10.1
		c-17.5-36.4-74.9-40.6-146.7-11.8c-17.5,7.6-26.3,4.2-59-19.4c-29.5-21.1-50.2-49-90.1-117.5c-74.9-130.2-141.9-229.1-231.1-338.2
		c-75.7-92.2-102.8-115.8-135.5-115.8c-19.9,0-19.9-11.8,0.8-47.3c9.6-16.9,20.7-26.2,25.5-22.8c33.5,19.4,171.4,125.1,238.3,181.8
		c187.3,158.1,459.9,425.3,492.6,481.9c35.1,60.9,9.6,128.5-74.9,200.4c-31.1,26.2-72.5,65.1-92.5,86.2l-35.9,38.9L2904,2535.1z"/>
	<path d="M5811.7,2532.6c-15.1-8.5-28.7-33-49.4-87.1l-27.9-76.1l55.8-9.3c109.2-19.4,250.3-79.5,377-162.3
		c47.8-31.3,68.5-49.9,73.3-65.9c11.2-41.4,5.6-172.5-9.6-229.1c-25.5-96.4-25.5-95.5-4-88.8c55,17.8,96.4,93.9,111.6,202.9
		c14.3,104.8,13.5,111.6-19.1,182.6c-31.9,70.2-47.8,83.7-122.7,101.5c-54.2,11.8-72.5,27.9-118,103.2
		c-51.8,82.9-65.4,98.1-111.6,120.9S5844.4,2552,5811.7,2532.6z"/>
	<path d="M9392.9,2470c-57.4-40.6-128.3-93.9-157.8-118.4c-62.2-49.9-59.8-50.7,55.8-30.4c110,19.4,105.2,17.8,110.8,49.9
		c4.8,26.2,42.2,93,84.5,151.3c9.6,12.7,15.9,22.8,14.3,22.8C9498.1,2545.3,9450.3,2511.4,9392.9,2470z"/>
	<path d="M3568,2519c-12.8-9.3-47.8-30.4-77.3-46.5c-47-25.4-54.2-32.1-54.2-52.4c0.8-48.2,18.3-103.2,75.7-230
		c61.4-138.7,83.7-217.3,100.4-354.3l9.6-79.5l55.8,5.1c30.3,2.5,56.6,6.8,58.2,8.5c4.8,4.2-27.9,235-36.7,263c-4.8,13.5-8,38-8,55
		c0,16.9-4.8,59.2-11.2,93.9c-6.4,34.7-17.5,120.9-24.7,190.2C3637.3,2537.6,3624.6,2558.8,3568,2519z"/>
	<path d="M9117.1,2419.3c-30.3-22-95.6-64.3-145.9-93c-50.2-29.6-90.9-55-89.3-55.8c1.6-1.7,155.4,16.1,259.8,29.6
		c0.8,0,0,9.3-3.2,21.1c-7.2,31.3,2.4,74.4,24.7,109.1c10.4,16.9,16.7,29.6,13.5,29.6C9173.7,2459,9146.6,2441.3,9117.1,2419.3z"/>
	<path d="M7752.6,2413.4c-82.9-20.3-157.8-37.2-166.6-37.2c-50.2,0,82.1-45.7,184.9-63.4c28.7-5.1,33.5-3.4,33.5,9.3
		c0,25.4,59.8,76.1,118.8,100.6c31.1,13.5,56.6,25.4,56.6,27.1C7979.7,2460.7,7880.1,2445.5,7752.6,2413.4z"/>
	<path d="M3356.8,2412.5c-27.9-11-51.8-21.1-53.4-22c-0.8-1.7,2.4-16.1,7.2-33c5.6-19.4,5.6-38,0.8-54.1
		c-7.2-22-2.4-31.3,50.2-106.5c102.8-146.3,154.6-289.2,143.5-393.2l-4.8-44.8h51.8h52.6l-4,27.9c-2.4,14.4-6.4,48.2-8.8,73.6
		c-8.8,89.6-43,210.5-82.9,294.2c-55.8,118.4-79.7,184.3-86.1,235.9c-2.4,24.5-7.2,44-9.6,44
		C3411,2433.6,3385.5,2424.3,3356.8,2412.5z"/>
	<path d="M8497.8,2409.1c-72.5-35.5-255.1-145.4-255.1-153c0-4.2,55.8-6.8,123.5-6.8h123.5l-13.5,28.7c-17.5,38.9-5.6,69.3,47,119.2
		c22.3,21.1,36.7,38,33.5,38C8552.8,2435.3,8526.5,2423.5,8497.8,2409.1z"/>
	<path d="M8903.5,2426.9c-7.2-4.2-67.8-30.4-135.5-57.5c-120.4-49-238.3-106.5-238.3-116.7c0-5.9,201.7,2.5,265.4,10.1l37.5,5.1
		v34.7c0,30.4,4.8,39.7,46.2,83.7C8924.2,2433.6,8929.8,2443,8903.5,2426.9z"/>
	<path d="M5269.7,2410c0-3.4,26.3-32.1,58.2-65.1c112.4-115.8,204-151.3,436-171.6c149.1-12.7,239.1-28.7,276.6-49
		c31.9-17.8,31.9-18.6,37.5-75.2c7.2-76.9,19.1-125.1,42.2-174.2c16.7-35.5,51-66.8,62.2-55.8c6.4,7.6,27.9,153,27.9,191.1
		c0,69.3-15.1,109.9-53.4,145.4c-69.3,65.9-200.9,124.3-386.6,175C5685,2353.3,5269.7,2419.3,5269.7,2410z"/>
	<path d="M8173.4,2393.1c-48.6-13.5-134.7-40.6-191.3-60c-119.6-41.4-118-43.1,39.1-60.9l102-11l19.9,32.1
		c17.5,27.9,71.7,76.1,128.3,114.1C8296.1,2423.5,8271.4,2420.1,8173.4,2393.1z"/>
	<path d="M6009.4,1976.2c-20.7-22-39.9-49-41.4-59.2c-1.6-10.1-9.6-48.2-17.5-85.4c-8.8-44.8-11.2-73.6-6.4-87.9
		c10.4-30.4,25.5-33,28.7-4.2c1.6,15.2,9.6,27.1,23.1,33.8c32.7,16.9,47,39.7,56.6,87.9c9.6,51.6,10.4,130.2,0.8,145.4
		C6048.4,2013.4,6034.9,2004.1,6009.4,1976.2z"/>
	<path d="M6063.6,1810.5c-27.1-73.6-70.9-145.4-118.8-194.5c-35.9-36.4-37.5-37.2-66.2-27.9c-35.1,11-61.4,2.5-79.7-27.9
		c-7.2-11.8-35.9-40.6-63.8-64.3c-27.1-22.8-57.4-55-66.2-70.2c-15.9-27.1-22.3-72.7-12-83.7c3.2-2.5,22.3,10.1,43,28.7l38.3,33.8
		l49.4-10.1c44.6-9.3,51-8.5,70.1,6.8c14.3,11.8,22.3,26.2,23.9,45.7c1.6,23.7,15.1,42.3,80.5,109.1
		c55.8,57.5,90.9,103.2,123.5,159.8c49.4,85.4,49.4,84.6,13.5,134.4l-13.5,20.3L6063.6,1810.5z"/>
	<path d="M6293.9,1830l-31.9-34.7l2.4-95.5c3.2-96.4-6.4-162.3-26.3-186c-12.8-16.1-51.8-119.2-51.8-137.8
		c0-19.4,31.1-39.7,61.4-39.7h26.3l-15.9-33.8c-8.8-18.6-14.3-33.8-11.2-33.8c18.3,0,61.4,32.1,75.7,55.8
		c38.3,65.9,58.2,185.2,37.5,225.7c-4.8,10.1-9.6,44.8-11.2,77.8c-2.4,76.1-15.9,231.7-19.9,235
		C6327.4,1863.8,6311.5,1849.4,6293.9,1830z"/>
	<path d="M5058.5,1817.3c-17.5-18.6-51-43.1-74.9-55.8c-105.2-52.4-157-105.7-151.4-156.4c1.6-10.1-5.6-36.4-15.9-56.6
		c-21.5-44-18.3-82,11.2-110.8l19.9-19.4v22.8c0,16.9,9.6,34.7,31.9,57.5c22.3,23.7,33.5,44,36.7,67.6c4.8,27.1,11.2,36.4,34.3,49.9
		c41.4,23.7,106.8,75.2,120.4,95.5c27.1,38.9,39.9,105.7,25.5,129.4C5091.2,1848.6,5080.8,1841.8,5058.5,1817.3z"/>
	<path d="M6109.8,1700.6c-57.4-109.1-101.2-169.9-123.5-169.9c-27.1,0-46.2-16.1-63.8-53.3c-36.7-74.4-51.8-195.3-27.9-216.4
		c8.8-7.6,12-5.1,16.7,13.5c11.2,50.7,24.7,61.7,74.1,61.7c82.9,0,123.5,40.6,133.1,134.4c7.2,64.3,23.1,124.3,55.8,202.1
		c14.3,35.5,28.7,75.2,31.9,87.1c4.8,20.3,3.2,22.8-22.3,26.2C6156,1789.4,6156,1789.4,6109.8,1700.6z"/>
	<path d="M6218.2,1744.6c-4.8-22.8-19.9-66.8-33.5-99.8c-29.5-69.3-46.2-132.7-46.2-171.6c0-24.5,1.6-27.1,15.1-18.6
		c8.8,4.2,23.1,8.5,31.9,8.5c12.8,0,16.7,5.1,16.7,21.1c0,11.8,7.2,32.1,15.9,44.8c21.5,32.1,31.1,86.2,31.9,177.6
		c0,60.9-2.4,77.8-11.2,77.8C6232.6,1784.3,6223.8,1767.4,6218.2,1744.6z"/>
	<path d="M4640,1728.5c-56.6-38-158.6-79.5-220.8-90.5c-51-8.5-99.6-2.5-151.4,20.3c-24.7,11-26.3,10.1-69.3-33
		c-23.9-24.5-61.4-52.4-82.1-61.7c-77.3-34.7-129.9-88.8-129.9-133.6c0-16.9,2.4-16.1,38.3,11c20.7,16.1,71.7,45.7,113.2,65.9
		c41.4,21.1,93.3,49.9,114.8,64.3c44.6,30.4,79.7,34.7,114.8,12.7c22.3-13.5,27.9-13.5,102,0c63.8,11.8,97.2,24.5,174.6,64.3
		c52.6,27.9,113.2,56.6,134.7,65.1l39.1,15.2l-63,14.4c-34.3,8.5-64.6,15.2-67,14.4C4685.5,1757.2,4663.9,1744.6,4640,1728.5z"/>
	<path d="M3670,1744.6l-42.2-3.4l-19.9-44.8c-11.2-24.5-19.9-48.2-19.9-53.3c0-4.2-7.2-16.1-16.7-26.2
		c-13.6-16.1-21.5-18.6-53.4-14.4c-43.8,5.9-47.8,3.4-76.5-44c-14.3-24.5-33.5-43.1-63-58.3c-22.3-11.8-47.8-28.7-56.6-36.4
		c-15.9-14.4-39.9-59.2-35.1-65.1c2.4-1.7,18.3,3.4,36.7,11c27.1,11,37.5,11.8,54.2,4.2c27.1-13.5,74.9-12.7,142.7,2.5
		c30.3,6.8,71.7,12.7,90.9,12.7c39.1,0,80.5,22.8,94.9,52.4c9.6,20.3,24.7,121.8,31.1,216.4c3.2,47.3,2.4,52.4-11.2,50.7
		C3717.8,1747.9,3692.3,1746.3,3670,1744.6z"/>
	<path d="M3456.4,1693.8c-21.5-26.2-61.4-62.6-86.9-80.3c-39.9-27.1-53.4-32.1-90.9-32.1c-24.7,0-56.6,4.2-70.9,10.1
		c-18.3,7.6-33.5,7.6-48.6,1.7c-15.1-5.9-30.3-5.1-49.4,1.7c-30.3,11-46.2,5.9-78.1-24.5c-9.6-10.1-43.8-31.3-75.7-48.2
		c-38.3-19.4-63-38.9-74.9-58.3c-10.4-16.1-17.5-30.4-15.9-31.3c8.8-9.3,70.1,20.3,92.5,44.8c47,49.9,64.6,55.8,196.1,61.7
		c162.6,8.5,259.8,27.9,293.3,60c19.1,18.6,32.7,24.5,59,24.5c28.7,0,36.7,4.2,57.4,31.3c13.6,16.9,27.9,41.4,31.9,54.1
		c7.2,22,6.4,22.8-28.7,27.9C3504.2,1745.4,3497.8,1743.7,3456.4,1693.8z"/>
	<path d="M4775.5,1692.1c-51-22-116.4-55-145.9-71.9c-35.9-21.1-77.3-37.2-126.7-48.2c-88.5-18.6-124.3-19.4-145.1-3.4
		c-24.7,19.4-52.6,15.2-103.6-17.8c-25.5-16.1-64.6-38.9-86.1-50.7c-22.3-11.8-55.8-37.2-74.9-55.8c-36.7-35.5-47.8-59.2-17.5-37.2
		c24.7,18.6,51,16.9,78.9-5.9c33.5-25.4,123.5-26.2,170.6-0.8c25.5,14.4,36.7,16.1,55.8,10.1c29.5-10.1,200.1-16.9,255.1-10.1
		c35.1,4.2,44.6,10.1,78.9,49c74.1,82,98,123.4,102.8,173.3c4,47.3,11.2,58.3,61.4,95.5C4917.4,1746.3,4872,1734.4,4775.5,1692.1z"
		/>
	<path d="M1956.3,1603.4c-23.1-22-42.2-30.4-81.3-37.2c-53.4-10.1-90.9-33.8-119.6-76.9c-19.9-29.6-33.5-65.1-27.1-71.9
		c8-7.6,59,29.6,94.1,67.6c23.9,27.1,43.8,38.9,79.7,49.9c26.3,8.5,59,23.7,73.3,34.7c31.1,25.4,42.2,25.4,70.9,1.7
		c22.3-18.6,27.1-19.4,174.6-16.9c82.9,1.7,152.2,4.2,153.8,5.9c1.6,0.8-5.6,16.1-15.1,33c-19.1,35.5-29.5,37.2-94.9,13.5
		c-63-22.8-181.7-18.6-228,7.6C1996.2,1638,1991.4,1637.2,1956.3,1603.4z"/>
	<path d="M1991.4,1552.6c-11.2-12.7-34.3-25.4-56.6-30.4c-42.2-10.1-92.5-34.7-106.8-52.4c-4.8-6.8-12.8-22-17.5-35.5l-8-23.7
		l27.1,17.8l27.1,17.8l11.2-17.8c9.6-15.2,23.1-19.4,93.3-27.1c68.5-6.8,86.1-5.9,106.8,4.2c19.9,10.1,62.2,13.5,184.9,14.4
		c87.7,0.8,175.4,5.9,194.5,10.1c61.4,14.4,82.9,34.7,47,44.8c-10.4,2.5-38.3,18.6-62.2,35.5l-43.8,30.4l-155.4-5.1
		c-117.2-4.2-159.4-2.5-172.2,5.9c-9.6,5.1-24.7,15.2-34.3,21.1C2011.3,1572.1,2007.3,1571.2,1991.4,1552.6z"/>
	<path d="M3324.9,1539.1c-41.4-8.5-114.8-16.1-163.4-16.1c-47.8-0.8-101.2-5.1-118-10.1c-33.5-9.3-98-65.9-87.7-76.1
		c14.3-14.4,55.8-16.9,65.4-4.2c8.8,11,12,11,20.7,1.7c14.3-15.2,89.3-24.5,137.1-17.8c56.6,8.5,86.1,19.4,102.8,38.9
		c8.8,10.1,41.4,33,73.3,51.6c31.1,18.6,57.4,37.2,57.4,41.4s-2.4,6.8-5.6,6.8C3403,1554.3,3366.3,1546.7,3324.9,1539.1z"/>
</g>
</svg>
