<svg id="Calque_1" data-name="Calque 1" xmlns="http://www.w3.org/2000/svg" viewBox="0 0 40 40"><defs><style>.cls-1{fill:#fff;}.cls-1,.cls-3{stroke:#000;stroke-miterlimit:10;}.cls-2{opacity:0.3;}.cls-3{fill:#feffeb;}</style></defs><path class="cls-1" d="M32.92,15.18c-.33,1.38-3,8.26-2.88,12.14.2,5.83,1.43,10.21,0,10.38H13.42c-.19,0,.79-10.73,2.15-13.37S17.27,8.73,32.92,15.18Z"/><path class="cls-2" d="M31.34,20.83,30,26l1.3,10.38h-3.9A70.09,70.09,0,0,1,26.15,26C26.15,22.13,31.34,20.83,31.34,20.83Z"/><path class="cls-1" d="M22.06,17s.28,1.54.74,3.27,1.13,3.62,1.9,4.33c.48.45,1.53-.19,2.74-1.28a65.09,65.09,0,0,0,6.3-7.15s3.14-5.89,1.32-10.52-13-2.37-13-2.37S11.81,1.13,8.84,13.42c0,0-5.65,6.17-4.74,13.33.81,6.35.47,4.36,1.15,6.12.26.66,1,1.55-.26,2.85a2.63,2.63,0,0,0,3.4,1.06s3.13-.74,1.77-3.36a10.74,10.74,0,0,1-1-6.37c.21-.69.45-4.43,3.41-6.18,0,0,4.14,2.47,6,1.86,0,0,3.08-1,3.7-1.86C22.63,20.29,23.1,21.12,22.06,17Z"/><rect class="cls-1" x="11.87" y="36.4" width="20.76" height="2.6" rx="1"/><circle cx="15.34" cy="11.44" r="1.95"/><path class="cls-2" d="M21.59,17.16l.9,3.23-1.68,1.44-2.92.79-1.32-.33C16.83,22.48,20.65,20.85,21.59,17.16Z"/><path class="cls-2" d="M12.72,19.89s-9.65.8-3,15.4L10.26,34c-.81-2.27-1.58-4.53-1-6.51C9.23,27.47,8.42,25.92,12.72,19.89Z"/><path class="cls-3" d="M12.76,20.39l3.64,2.05a7.15,7.15,0,0,1-6.51,3.94s-3.63.37-4.11-2c0,0,0-1.29,1.1-1.18C8.5,23.4,10.19,24.2,12.76,20.39Z"/><path class="cls-2" d="M35.23,11.34l.4-1.85-.4-.33V6.56L33.93,4l-2.59-1.3a11.3,11.3,0,0,1,.88,4.83c-2-.74-7-.65-9.06,1.39,1.05-.22,9.21,1,8.18,3.23-1.15,4.72-3,6.56-7.77,10.51l1.28,2.1,2.59-1.4,6.49-7.68.5-1.5a4.05,4.05,0,0,1,.07.62L35,12.48l.24-.73Z"/><path class="cls-2" d="M26.15,36.65h5.59l.81,1.52-.95.8-5.45-.19S27.05,38.08,26.15,36.65Z"/></svg>