<?xml version="1.0" encoding="utf-8"?>
<!-- Generator: Adobe Illustrator 23.0.1, SVG Export Plug-In . SVG Version: 6.00 Build 0)  -->
<svg version="1.1" id="Layer_1" xmlns="http://www.w3.org/2000/svg" xmlns:xlink="http://www.w3.org/1999/xlink" x="0px" y="0px"
	 viewBox="0 0 45 45" style="enable-background:new 0 0 45 45;" xml:space="preserve">
<style type="text/css">
	
		.st0{fill-rule:evenodd;clip-rule:evenodd;fill:#FFFFFF;stroke:#000000;stroke-width:1.5;stroke-linecap:round;stroke-linejoin:round;}
	.st1{fill-rule:evenodd;clip-rule:evenodd;stroke:#000000;stroke-width:1.5;stroke-linecap:round;stroke-linejoin:round;}
	.st2{fill:#FFFFFF;stroke:#000000;stroke-miterlimit:10;}
	.st3{font-family:'MyriadPro-Regular';}
	.st4{font-size:6px;}
</style>
<g>
	<path class="st0" d="M22,10c10.5,1,16.5,8,16,29H15c0-9,10-6.5,8-21"/>
	<path class="st0" d="M24,18c0.4,2.9-5.5,7.4-8,9c-3,2-2.8,4.3-5,4c-1-0.9,1.4-3,0-3c-1,0,0.2,1.2-1,2c-1,0-4,1-4-4c0-2,6-12,6-12
		s1.9-1.9,2-3.5c-0.7-1-0.5-2-0.5-3c1-1,3,2.5,3,2.5h2c0,0,0.8-2,2.5-3c1,0,1,3,1,3"/>
	<path class="st1" d="M9.5,25.5C9.5,25.8,9.3,26,9,26s-0.5-0.2-0.5-0.5S8.7,25,9,25S9.5,25.2,9.5,25.5z"/>
	<path class="st1" d="M14.9,15.7c-0.4,0.7-0.9,1.2-1.2,1c-0.2-0.1-0.1-0.8,0.3-1.5c0.4-0.7,0.9-1.2,1.2-1
		C15.5,14.3,15.3,15,14.9,15.7z"/>
</g>
<path class="st2" d="M5.6,24.9c-2.9,8.9,0.7,11.9,1.9,13.3l-0.6,1.6L8,40.7l2.6-3.4l-1.3-0.9l-0.8,0.6l-1.4-5l2.6-3.3l1.4,2l9.1-7.6
	l-0.9-5.6l-4.9,3.1l-3.3-1.2l-2.3,0.6L5.6,24.9z"/>
<path class="st0" d="M17,11.5c-1.5-2.1-3.3-4.5-2.9-7.5c0-0.4,0.4-3.1,2.2-4.1c3.1-1.6,8.3,3,10.4,5c4.1,3.8,8.3,7.5,7.6,12.5
	c-0.5,3.8-3.8,7.9-7,7.8C24.6,25.2,24.8,22.4,17,11.5z"/>
<text transform="matrix(1 0 0 1 0.702 44.0605)" class="st3 st4">I am not an horse</text>
</svg>
