<svg id="Calque_1" data-name="Calque 1" xmlns="http://www.w3.org/2000/svg" viewBox="0 0 40 40"><defs><style>.cls-1,.cls-4{fill:#191919;}.cls-1,.cls-2,.cls-3,.cls-6{fill-rule:evenodd;}.cls-2{fill:#fff;opacity:0.3;}.cls-3,.cls-5,.cls-6{fill:none;stroke:#000;}.cls-3{stroke-miterlimit:10;}.cls-5,.cls-6{stroke-linecap:round;stroke-linejoin:round;}</style></defs><path class="cls-1" d="M28.1,16.62C26.48,14,19.93,8.3,19.93,8.3s-6.48,5.7-8.1,8.32-1.78,7.91,0,11.55,2.09,4.3,2.09,4.3H26s.31-.65,2.09-4.3S29.72,19.23,28.1,16.62ZM20,25.11A2.9,2.9,0,0,1,17.39,22,2.9,2.9,0,0,1,20,18.81,2.9,2.9,0,0,1,22.54,22,2.9,2.9,0,0,1,20,25.11Z"/><path class="cls-2" d="M18.19,9.88l2.92-.52,7,7.26-1.71,2.09S24.77,15.07,18.19,9.88Z"/><path class="cls-3" d="M28,16.62C26.4,14,19.85,8.3,19.85,8.3s-6.48,5.7-8.1,8.32-1.79,7.91,0,11.55,2.09,4.3,2.09,4.3H25.93s.31-.65,2.09-4.3S29.64,19.23,28,16.62Zm-8.14,8.49A2.9,2.9,0,0,1,17.31,22a2.9,2.9,0,0,1,2.57-3.15A2.9,2.9,0,0,1,22.46,22,2.9,2.9,0,0,1,19.88,25.11Z"/><circle class="cls-4" cx="19.92" cy="7.25" r="2.1"/><path class="cls-2" d="M19.4,5.15a1.89,1.89,0,0,0-.53.08,2.09,2.09,0,0,1,0,4,2.34,2.34,0,0,0,.53.08,2.11,2.11,0,0,0,0-4.21Z"/><circle class="cls-5" cx="19.92" cy="7.25" r="2.1"/><path class="cls-1" d="M19.92,24.06C12.11,18.88,7.15,11.81,3.11,4.1c2.25,9,3.94,17.43,4.21,24.17,0,0,13.66-2.1,25.21,0,.27-6.74,2-15.13,4.2-24.17-4.54,7.83-9.43,15.27-16.81,20"/><path class="cls-2" d="M33.31,9.74l1.89-3,.77.55s-4.13,19.22-3.41,20.44l-1,.41-3.62-.41S29.78,25.33,33.31,9.74Z"/><path class="cls-2" d="M4,6.2c0-.13,9.48,15.5,15.91,18.1C19.92,25,9,22.09,4,6.2Z"/><path class="cls-6" d="M19.92,24.06C12.11,18.88,7.15,11.81,3.11,4.1c2.25,9,3.94,17.43,4.21,24.17,0,0,13.66-2.1,25.21,0,.27-6.74,2-15.13,4.2-24.17-4.54,7.83-9.43,15.27-16.81,20"/><circle class="cls-4" cx="3.11" cy="4.1" r="2.1"/><path class="cls-2" d="M2.59,2a1.89,1.89,0,0,0-.53.08,2.08,2.08,0,0,1,1.58,2,2.1,2.1,0,0,1-1.58,2,2.33,2.33,0,0,0,.53.07,2.1,2.1,0,1,0,0-4.2Z"/><circle class="cls-5" cx="3.11" cy="4.1" r="2.1"/><circle class="cls-4" cx="36.73" cy="4.1" r="2.1"/><path class="cls-2" d="M36.21,2a1.89,1.89,0,0,0-.53.08,2.09,2.09,0,0,1,0,4.05,2.33,2.33,0,0,0,.53.07,2.1,2.1,0,1,0,0-4.2Z"/><circle class="cls-5" cx="36.73" cy="4.1" r="2.1"/><path class="cls-1" d="M32,31.42a70.07,70.07,0,0,0-24.17,0,1.57,1.57,0,0,1-1.57-1.58h0a1.57,1.57,0,0,1,1.57-1.57,70.07,70.07,0,0,1,24.17,0,1.57,1.57,0,0,1,1.57,1.57h0A1.57,1.57,0,0,1,32,31.42Z"/><path class="cls-2" d="M23.78,27.57l8.23.7,1.57,1.05v1.42L32,31.47l-8.23-1.1A1.56,1.56,0,0,0,23.78,27.57Z"/><path class="cls-3" d="M32,31.42a70.07,70.07,0,0,0-24.17,0,1.57,1.57,0,0,1-1.57-1.58h0a1.57,1.57,0,0,1,1.57-1.57,70.07,70.07,0,0,1,24.17,0,1.57,1.57,0,0,1,1.57,1.57h0A1.57,1.57,0,0,1,32,31.42Z"/><path class="cls-1" d="M30.43,33A1.74,1.74,0,0,1,32,31.47a3.07,3.07,0,0,0-.53,0,64.11,64.11,0,0,0-23.11,0,3.07,3.07,0,0,0-.53,0A1.74,1.74,0,0,1,9.42,33a1.72,1.72,0,0,1-1.58,1.52,2.33,2.33,0,0,0,.53.06,64.11,64.11,0,0,1,23.11,0,2.33,2.33,0,0,0,.53-.06A1.72,1.72,0,0,1,30.43,33Z"/><path class="cls-2" d="M25.07,30.78l5.45.69,0,1,.76,1.8-3.09.3-3.15-.67A2.41,2.41,0,0,0,25.07,30.78Z"/><path class="cls-6" d="M30.43,33A1.74,1.74,0,0,1,32,31.47a3.07,3.07,0,0,0-.53,0,64.11,64.11,0,0,0-23.11,0,3.07,3.07,0,0,0-.53,0A1.74,1.74,0,0,1,9.42,33a1.72,1.72,0,0,1-1.58,1.52,2.33,2.33,0,0,0,.53.06,64.11,64.11,0,0,1,23.11,0,2.33,2.33,0,0,0,.53-.06A1.72,1.72,0,0,1,30.43,33Z"/><path class="cls-1" d="M31.48,38.77H8.37a2.1,2.1,0,0,1-2.1-2.1h0a2.1,2.1,0,0,1,2.1-2.1,64.11,64.11,0,0,1,23.11,0,2.1,2.1,0,0,1,2.1,2.1h0A2.1,2.1,0,0,1,31.48,38.77Z"/><path class="cls-2" d="M23.78,33.85l7,.59,2.84,1v2.35l-1.4.82-4,.31H23.78A5.07,5.07,0,0,0,23.78,33.85Z"/><path class="cls-6" d="M31.48,38.77H8.37a2.1,2.1,0,0,1-2.1-2.1h0a2.1,2.1,0,0,1,2.1-2.1,64.11,64.11,0,0,1,23.11,0,2.1,2.1,0,0,1,2.1,2.1h0A2.1,2.1,0,0,1,31.48,38.77Z"/></svg>