<svg id="Calque_1" data-name="Calque 1" xmlns="http://www.w3.org/2000/svg" viewBox="0 0 40 40"><defs><style>.cls-1,.cls-2,.cls-3{fill:#fff;stroke:#000;}.cls-1,.cls-2,.cls-4{fill-rule:evenodd;}.cls-2,.cls-3{stroke-linecap:round;stroke-linejoin:round;}.cls-4{opacity:0.3;}</style></defs><path class="cls-1" d="M28.09,16.65C26.47,14,19.92,8.34,19.92,8.34s-6.48,5.7-8.1,8.31-1.79,7.91,0,11.56,2.09,4.3,2.09,4.3H26s.31-.65,2.09-4.3S29.71,19.27,28.09,16.65ZM20,25.15A2.9,2.9,0,0,1,17.38,22,2.9,2.9,0,0,1,20,18.85,2.9,2.9,0,0,1,22.53,22,2.9,2.9,0,0,1,20,25.15Z"/><path class="cls-2" d="M31.47,38.81H8.35a2.1,2.1,0,0,1-2.1-2.1h0a2.1,2.1,0,0,1,2.1-2.1,64.16,64.16,0,0,1,23.12,0,2.1,2.1,0,0,1,2.1,2.1h0A2.1,2.1,0,0,1,31.47,38.81Z"/><path class="cls-2" d="M32,31.46a70,70,0,0,0-24.16,0,1.58,1.58,0,0,1-1.58-1.58h0a1.57,1.57,0,0,1,1.58-1.57,69.52,69.52,0,0,1,24.16,0,1.57,1.57,0,0,1,1.58,1.57h0A1.58,1.58,0,0,1,32,31.46Z"/><path class="cls-2" d="M30.42,33A1.74,1.74,0,0,1,32,31.51a3,3,0,0,0-.52-.05,64.16,64.16,0,0,0-23.12,0,3,3,0,0,0-.52.05A1.75,1.75,0,0,1,9.41,33a1.73,1.73,0,0,1-1.58,1.52,2.24,2.24,0,0,0,.52.06,64.16,64.16,0,0,1,23.12,0,2.24,2.24,0,0,0,.52-.06A1.72,1.72,0,0,1,30.42,33Z"/><path class="cls-2" d="M19.91,24.1C12.1,18.92,7.13,11.84,3.1,4.14c2.25,9,3.94,17.43,4.2,24.17,0,0,13.66-2.11,25.22,0,.26-6.74,1.95-15.13,4.2-24.17-4.54,7.83-9.43,15.27-16.81,20"/><circle class="cls-3" cx="3.1" cy="4.14" r="2.1"/><circle class="cls-3" cx="19.91" cy="7.29" r="2.1"/><circle class="cls-3" cx="36.72" cy="4.14" r="2.1"/><path class="cls-4" d="M2.58,2a2.26,2.26,0,0,0-.53.07,2.09,2.09,0,0,1,0,4.06,2.26,2.26,0,0,0,.53.07,2.1,2.1,0,0,0,0-4.2Z"/><path class="cls-4" d="M19.39,5.19a1.84,1.84,0,0,0-.53.08,2.09,2.09,0,0,1,0,4.05,2.26,2.26,0,0,0,.53.07,2.1,2.1,0,0,0,0-4.2Z"/><path class="cls-4" d="M36.2,2a2.26,2.26,0,0,0-.53.07,2.09,2.09,0,0,1,0,4.06,2.26,2.26,0,0,0,.53.07,2.1,2.1,0,0,0,0-4.2Z"/><path class="cls-4" d="M33.3,9.78l1.89-3,.76.56s-4.12,19.22-3.4,20.44l-1,.41-3.62-.41S29.77,25.37,33.3,9.78Z"/><path class="cls-4" d="M18.17,9.92l2.93-.53,7,7.26-1.71,2.1S24.76,15.11,18.17,9.92Z"/><path class="cls-4" d="M23.77,27.61l8.22.7,1.58,1.05v1.42L32,31.51l-8.22-1.1A1.57,1.57,0,0,0,23.77,27.61Z"/><path class="cls-4" d="M25.06,30.82l5.44.69,0,1,.76,1.8-3.1.3-3.14-.68A2.41,2.41,0,0,0,25.06,30.82Z"/><path class="cls-4" d="M23.77,33.89l7,.59,2.84,1v2.35l-1.4.82-4,.31H23.77A5.09,5.09,0,0,0,23.77,33.89Z"/><path class="cls-4" d="M4,6.24c0-.13,9.49,15.5,15.92,18.1C19.9,25.06,9,22.13,4,6.24Z"/></svg>