<?xml version="1.0" encoding="utf-8"?>
<!-- Generator: Adobe Illustrator 23.0.1, SVG Export Plug-In . SVG Version: 6.00 Build 0)  -->
<svg version="1.1" id="Layer_1" xmlns="http://www.w3.org/2000/svg" xmlns:xlink="http://www.w3.org/1999/xlink" x="0px" y="0px"
	 viewBox="0 0 45 45" style="enable-background:new 0 0 45 45;" xml:space="preserve">
<style type="text/css">
	.st0{fill-rule:evenodd;clip-rule:evenodd;stroke:#000000;stroke-width:1.5;stroke-linecap:round;stroke-linejoin:round;}
	
		.st1{fill-rule:evenodd;clip-rule:evenodd;fill:#FFFFFF;stroke:#FFFFFF;stroke-width:1.5;stroke-linecap:round;stroke-linejoin:round;}
	.st2{fill-rule:evenodd;clip-rule:evenodd;fill:#FFFFFF;}
	.st3{fill-rule:evenodd;clip-rule:evenodd;stroke:#FFFFFF;stroke-width:0.5;stroke-linejoin:round;}
	.st4{fill-rule:evenodd;clip-rule:evenodd;stroke:#000000;stroke-width:1.5;stroke-linejoin:round;}
	.st5{fill-rule:evenodd;clip-rule:evenodd;stroke:#000000;stroke-width:1.5;}
	.st6{fill:none;stroke:#FFFFFF;stroke-linecap:round;}
	.st7{fill-rule:evenodd;clip-rule:evenodd;fill:#FFFFFF;stroke:#000000;}
	.st8{fill-rule:evenodd;clip-rule:evenodd;stroke:#FFFFFF;}
</style>
<g>
	<path class="st0" d="M18.3,15.6c8,0.8,12.6,6.5,12.3,23.5H12.9c0-7.3,7.7-5.3,6.1-17"/>
	<path class="st0" d="M19.8,22.1c0.3,2.4-4.3,6-6.1,7.3c-2.3,1.6-2.2,3.5-3.8,3.2c-0.8-0.8,1.1-2.5,0-2.4c-0.8,0,0.1,1-0.8,1.6
		c-0.8,0-3.1,0.8-3.1-3.2c0-1.6,4.6-9.7,4.6-9.7s1.4-1.5,1.5-2.8c-0.6-0.8-0.4-1.6-0.4-2.4c0.8-0.8,2.3,2,2.3,2h1.5
		c0,0,0.6-1.6,1.9-2.4c0.8,0,0.8,2.4,0.8,2.4"/>
	<path class="st1" d="M8.7,28.2c0,0.2-0.2,0.4-0.4,0.4s-0.4-0.2-0.4-0.4s0.2-0.4,0.4-0.4S8.7,28,8.7,28.2z"/>
	<path class="st1" d="M12.8,20.3c-0.3,0.6-0.7,1-0.9,0.8c-0.2-0.1-0.1-0.7,0.2-1.3s0.7-1,0.9-0.8C13.3,19.1,13.2,19.7,12.8,20.3z"/>
	<path class="st2" d="M20.2,16l-0.3,1.2l0.4,0.1c2.4,0.8,4.3,2,6.1,5.5s2.5,8.3,2.1,16.4l0,0.4h1.7l0-0.4c0.4-8.1-0.7-13.6-2.5-17.3
		c-1.8-3.6-4.4-5.4-7-5.8L20.2,16z"/>
</g>
<g>
	<path class="st3" d="M19.3,23.5l12.4,9.3l1-1.3l-12.4-9.3L19.3,23.5z"/>
	<path class="st4" d="M23.1,21.7l1.5-0.6l7.8,5.9l-0.1,1.6L23.1,21.7z"/>
	<path class="st4" d="M21.6,23.3l1.3-1.7l9.6,7.2l-1.3,1.7L21.6,23.3z"/>
	<path class="st5" d="M24.6,21.1l4.2-5.6l7.8,5.9L32.4,27L24.6,21.1z"/>
	<path class="st4" d="M28.9,15.5l-0.6-2.1l10.6,7.9l-2.2,0.1L28.9,15.5z"/>
	<path class="st4" d="M28.3,13.4l1.6-2.2l1.8,1.4l-0.7,0.9l2.3,1.7l0.7-0.9l2.3,1.7l-0.7,0.9l2.3,1.7l0.7-0.9l1.8,1.4l-1.6,2.2
		L28.3,13.4z"/>
	<path class="st6" d="M21.8,23.1l9.6,7.2l0,0"/>
	<path class="st6" d="M23.5,21.7l8.7,6.5"/>
	<path class="st6" d="M24.6,21.1l7.8,5.9"/>
	<path class="st6" d="M28.9,15.5l7.8,5.9"/>
	<path class="st6" d="M28.3,13.4l10.6,7.9"/>
</g>
<path class="st7" d="M20.6,25.2c-1.1,0.7-0.8,4.5,1.6,6.6c2.5,2.2,6.4,1.8,7,0.6C30,30.3,22.4,24,20.6,25.2z"/>
<path class="st8" d="M13.1,34.2c6.8-4.4,9-5.2,9.3-4.7c0.1,0.1,0.3,0.7,0.9,1.2c0.3,0.3,0.4,0.3,0.5,0.4c0.2,0.4-2.1,1.9-11.6,6.3"
	/>
<path class="st8" d="M50,30.8"/>
<path class="st3" d="M59.2,23.3"/>
</svg>
