<?xml version="1.0" encoding="utf-8"?>
<!-- Generator: Adobe Illustrator 23.0.1, SVG Export Plug-In . SVG Version: 6.00 Build 0)  -->
<svg version="1.1" id="Layer_1" xmlns="http://www.w3.org/2000/svg" xmlns:xlink="http://www.w3.org/1999/xlink" x="0px" y="0px"
	 viewBox="0 0 45 45" style="enable-background:new 0 0 45 45;" xml:space="preserve">
<style type="text/css">
	
		.st0{fill-rule:evenodd;clip-rule:evenodd;fill:#FFFFFF;stroke:#000000;stroke-width:1.5;stroke-linecap:round;stroke-linejoin:round;}
	.st1{fill-rule:evenodd;clip-rule:evenodd;stroke:#000000;stroke-width:1.5;stroke-linecap:round;stroke-linejoin:round;}
	.st2{fill-rule:evenodd;clip-rule:evenodd;fill:#FFFFFF;stroke:#000000;stroke-width:1.5;stroke-linejoin:round;}
	.st3{fill-rule:evenodd;clip-rule:evenodd;fill:#FFFFFF;stroke:#000000;stroke-width:1.5;}
	.st4{fill:none;stroke:#000000;stroke-width:1.5;stroke-linecap:round;}
</style>
<g>
	<path class="st0" d="M17.6,16c7.6,0.8,12,6.4,11.6,23H12.5c0-7.1,7.2-5.2,5.8-16.7"/>
	<path class="st0" d="M19,22.3c0.3,2.3-4,5.9-5.8,7.1c-2.2,1.6-2,3.4-3.6,3.2c-0.8-0.7,1-2.4,0-2.4c-0.7,0,0.1,1-0.7,1.6
		c-0.7,0-2.9,0.8-2.9-3.2c0-1.6,4.3-9.5,4.3-9.5s1.4-1.5,1.4-2.8c-0.5-0.8-0.4-1.6-0.4-2.4c0.7-0.8,2.2,2,2.2,2h1.4
		c0,0,0.6-1.6,1.8-2.4c0.7,0,0.7,2.4,0.7,2.4"/>
	<path class="st1" d="M8.5,28.3c0,0.2-0.2,0.4-0.4,0.4s-0.4-0.2-0.4-0.4s0.2-0.4,0.4-0.4S8.5,28.1,8.5,28.3z"/>
	<path class="st1" d="M12.5,20.5c-0.3,0.6-0.7,0.9-0.9,0.8c-0.2-0.1-0.1-0.7,0.2-1.2c0.3-0.6,0.7-0.9,0.9-0.8
		C12.9,19.4,12.8,20,12.5,20.5z"/>
</g>
<g>
	<path class="st2" d="M18.9,25.4c0.7,0.5,1.4,1.1,2.1,1.6c3.4,2.5,6.8,5.1,10.2,7.6c0.4-0.5,0.8-1.1,1.2-1.6l-12.3-9.2L18.9,25.4z"
		/>
	<path class="st2" d="M21.4,24.9l1.6-2.1l9.6,7.2L31,32.1L21.4,24.9z"/>
	<path class="st2" d="M29.6,13l2-2.6l1.8,1.4l-0.8,1.1l2.3,1.7l0.8-1.1l2.3,1.7l-0.8,1.1l2.3,1.7l0.8-1.1l1.8,1.4l-2,2.6"/>
	<path class="st0" d="M40.1,20.8l-2.6,0.6l-7.8-5.8L29.6,13"/>
	<path class="st3" d="M37.6,21.4L32.7,28l-7.8-5.8l4.9-6.6"/>
	<path class="st0" d="M32.7,28l-0.3,1.8L23.2,23l1.7-0.8"/>
	<path class="st4" d="M29.6,13l10.5,7.9"/>
</g>
<line class="st0" x1="23.9" y1="29.8" x2="12.5" y2="37"/>
<path class="st2" d="M20.2,26.9c0.1,0.6,0.6,3.1,2.8,4.9c2.6,2.2,5.6,1.9,6.1,1.8"/>
</svg>
