<?xml version="1.0" encoding="utf-8"?>
<!-- Generator: Adobe Illustrator 23.0.1, SVG Export Plug-In . SVG Version: 6.00 Build 0)  -->
<svg version="1.1" id="Layer_1" xmlns="http://www.w3.org/2000/svg" xmlns:xlink="http://www.w3.org/1999/xlink" x="0px" y="0px"
	 viewBox="0 0 45 45" style="enable-background:new 0 0 45 45;" xml:space="preserve">
<style type="text/css">
	.st0{stroke:#FFFFFF;stroke-width:1.5;stroke-linecap:round;}
	.st1{fill:#FFFFFF;stroke:#000000;stroke-miterlimit:10;}
</style>
<path class="st0" d="M27.8,9c-2.2,0-4,1.8-4,4c0,0.9,0.3,1.7,0.8,2.4c-2,1.1-3.3,3.2-3.3,5.6c0,2,0.9,3.8,2.4,5
	c-3,1.1-7.4,5.5-7.4,13.5h23c0-7.9-4.4-12.4-7.4-13.5c1.5-1.2,2.4-3,2.4-5c0-2.4-1.3-4.5-3.3-5.6c0.5-0.7,0.8-1.5,0.8-2.4
	C31.8,10.8,30.1,9,27.8,9z"/>
<path class="st0" d="M21.5,7c-2.4,0-4.4,1.9-4.4,4.3c0,0.9,0.3,1.8,0.8,2.5c-2.1,1.2-3.6,3.4-3.6,6c0,2.2,1,4.1,2.6,5.4
	c-3.3,1.1-8.1,5.9-8.1,14.3H34c0-8.4-4.8-13.2-8.1-14.3c1.6-1.3,2.6-3.2,2.6-5.4c0-2.6-1.4-4.8-3.6-6c0.5-0.7,0.8-1.6,0.8-2.5
	C25.8,8.9,23.9,7,21.5,7z"/>
<circle class="st1" cx="19.5" cy="18.6" r="2.4"/>
<ellipse class="st1" cx="24.7" cy="19.1" rx="3.6" ry="3.9"/>
</svg>
