<?xml version="1.0" encoding="utf-8"?>
<!-- Generator: Adobe Illustrator 23.0.1, SVG Export Plug-In . SVG Version: 6.00 Build 0)  -->
<svg version="1.1" id="Calque_1" xmlns="http://www.w3.org/2000/svg" xmlns:xlink="http://www.w3.org/1999/xlink" x="0px" y="0px"
	 viewBox="0 0 40 40" style="enable-background:new 0 0 40 40;" xml:space="preserve">
<style type="text/css">
	.st0{fill:#FFFFFF;}
	.st1{fill:none;stroke:#000000;stroke-miterlimit:10;}
	.st2{opacity:0.3;enable-background:new    ;}
	.st3{display:none;fill:#FFFFFF;stroke:#000000;stroke-linecap:round;stroke-linejoin:round;}
	.st4{display:none;opacity:0.3;fill-rule:evenodd;clip-rule:evenodd;enable-background:new    ;}
	.st5{display:none;fill:#191919;}
	.st6{display:none;fill:none;stroke:#000000;stroke-miterlimit:10;}
	.st7{display:none;opacity:0.3;enable-background:new    ;}
	.st8{opacity:0.3;fill:#FFFFFF;enable-background:new    ;}
	.st9{fill-rule:evenodd;clip-rule:evenodd;}
	.st10{display:none;fill-rule:evenodd;clip-rule:evenodd;fill:#FFFFFF;}
</style>
<path class="st0" d="M24.1,26.3c1.8-1.2,2.9-3.2,2.9-5.3c0-2.5-1.5-4.8-3.8-5.8c1.8-1.7,1.8-4.6,0-6.4c-1.7-1.8-4.6-1.8-6.4,0
	s-1.8,4.6,0,6.4l0,0c-2.3,1-3.8,3.3-3.8,5.8c0,2.1,1.1,4.1,2.9,5.3c-4.9,2.1-8,6.9-7.9,12.2h24C32.1,33.2,29,28.4,24.1,26.3z"/>
<path class="st1" d="M24.1,26.3c1.8-1.2,2.9-3.2,2.9-5.3c0-2.5-1.5-4.8-3.8-5.8c1.8-1.7,1.8-4.6,0-6.4c-1.7-1.8-4.6-1.8-6.4,0
	c-1.8,1.7-1.8,4.6,0,6.4l0,0c-2.3,1-3.8,3.3-3.8,5.8c0,2.1,1.1,4.1,2.9,5.3c-4.9,2.1-8,6.9-7.9,12.2h24C32.1,33.2,29,28.4,24.1,26.3
	z"/>
<path class="st2" d="M23,12c0.1,1.2-0.4,2.4-1.3,3.2c0.3,0.1,0.6,0.2,0.9,0.3c1.1-0.8,1.7-2.2,1.6-3.5c0-2.3-1.8-4.1-4-4.1
	c-0.2,0-0.3,0-0.5,0.1C21.7,8.2,23.1,9.9,23,12z"/>
<path class="st2" d="M22.7,15c-0.1,0.1-0.2,0.2-0.3,0.3c2,1.1,2.6,3.2,2.6,5.6c0.1,2-0.9,4-2.6,5.2c0.3,0.1,0.9,0.3,1.1,0.3
	c1.9-1.2,3-3.3,3-5.5C26.6,18.5,25.1,16,22.7,15z"/>
<path class="st2" d="M23.8,26.6c-0.3,0.1-0.4-0.3-0.8-0.2c4.6,1.6,6.5,6.1,6.5,11c0,0.6-0.3,1.2-0.7,1.6h3.1c0.1-0.5,0.1-1,0.1-1.5
	C32,32.2,28.9,27.9,23.8,26.6z"/>
<path class="st3" d="M7.2,36.7h25.7c0.5,0,1,0.4,1,1V38c0,0.5-0.4,1-1,1H7.2c-0.5,0-1-0.4-1-1v-0.4C6.2,37.1,6.6,36.7,7.2,36.7z"/>
<path class="st4" d="M25.6,36.8H33l0.8,1L33.5,39h-7.9C25.6,39,27.5,38.1,25.6,36.8z"/>
<path class="st5" d="M31,16.6c-1-0.8-2.9,1.6-7.1,1.6c-4.1,0-6-2.4-7-1.6c-2,1.6,1.9,13.7,7,13.7C29,30.4,32.9,18.2,31,16.6z"/>
<path class="st6" d="M31,16.5c-1-0.8-2.9,1.6-7.1,1.6c-4.1,0-6-2.4-7-1.6c-2,1.6,1.9,13.7,7,13.7C29,30.3,33,18.1,31,16.5z"/>
<path class="st7" d="M29.4,17.2c0.2,1.3,0.8,7.4-3.3,11.2c-0.6,0.5-1.3,1.1-2.2,1.6c0.9-0.3,2.4-0.9,3.9-2.2c4-3.7,4.4-10.4,3-11.1
	C30.6,16.6,30.2,16.6,29.4,17.2z"/>
<path class="st2" d="M31,16.4c-1-0.8-2.9,1.6-7.1,1.6c-4.1,0-6-2.4-7-1.6c-2,1.6,1.9,13.7,7,13.7C29,30.2,33,18,31,16.4z"/>
<path class="st5" d="M31,16.6c-1-0.8-2.9,1.6-7.1,1.6c-4.1,0-6-2.4-7-1.6c-2,1.6,1.9,13.7,7,13.7C29,30.4,32.9,18.2,31,16.6z"/>
<path class="st8" d="M29.4,17.2c0.1,1.4,0.7,7.4-3.3,11.3c-0.6,0.5-1.3,1.1-2.2,1.6c0.9-0.3,2.4-0.9,3.9-2.2c4-3.7,4.4-10.4,3-11.1
	C30.6,16.6,30.2,16.6,29.4,17.2z"/>
<path class="st8" d="M31.1,16.6c-1-0.8-2.9,1.6-7.1,1.6c-4.1,0-6-2.4-7-1.6c-2,1.6,1.9,13.7,7,13.7C29.1,30.4,33,18.2,31.1,16.6z"/>
<polygon class="st9" points="25.7,23.2 24.1,25.4 22.4,23.2 24.1,20.9 "/>
<path class="st1" d="M31,16.5c-1-0.8-2.9,1.6-7.1,1.6c-4.1,0-6-2.4-7-1.6c-2,1.6,1.9,13.7,7,13.7C29,30.3,33,18.1,31,16.5z"/>
<polygon class="st10" points="25.7,23 24,25.3 22.4,23 24,20.8 "/>
</svg>
