<?xml version="1.0" encoding="utf-8"?>
<!-- Generator: Adobe Illustrator 23.0.1, SVG Export Plug-In . SVG Version: 6.00 Build 0)  -->
<svg version="1.1" id="Calque_1" xmlns="http://www.w3.org/2000/svg" xmlns:xlink="http://www.w3.org/1999/xlink" x="0px" y="0px"
	 viewBox="0 0 40 40" style="enable-background:new 0 0 40 40;" xml:space="preserve">
<style type="text/css">
	.st0{fill:#191919;}
	.st1{opacity:0.3;fill:#FFFFFF;enable-background:new    ;}
	.st2{fill:none;stroke:#000000;stroke-miterlimit:10;}
	.st3{display:none;fill:#191919;}
	.st4{display:none;opacity:0.3;fill-rule:evenodd;clip-rule:evenodd;fill:#FFFFFF;enable-background:new    ;}
	.st5{display:none;fill:none;stroke:#000000;stroke-linecap:round;stroke-linejoin:round;}
	.st6{fill-rule:evenodd;clip-rule:evenodd;fill:#FFFFFF;}
</style>
<path class="st0" d="M24.1,26.3c1.8-1.2,2.9-3.1,2.9-5.3c0-2.5-1.5-4.8-3.8-5.8c1.8-1.7,1.8-4.6,0-6.4c-1.7-1.8-4.6-1.8-6.4,0
	s-1.8,4.6,0,6.4l0,0c-2.3,1-3.8,3.3-3.8,5.8c0,2.1,1.1,4.1,2.9,5.3c-4.9,2.1-8,6.9-7.9,12.2h24C32.1,33.2,29,28.4,24.1,26.3z"/>
<path class="st1" d="M22.7,12c0.1,1.2-0.4,2.3-1.3,3.1c0.3,0,0.6,0.2,0.9,0.3c1.1-0.8,1.7-2.1,1.6-3.4c0-2.2-1.8-4-4-4
	c-0.2,0-0.3,0-0.5,0.1C21.4,8.3,22.8,10,22.7,12z"/>
<path class="st1" d="M22.6,15.1c-0.1,0.1-0.2,0.2-0.3,0.3c2,1.1,2.6,3.2,2.6,5.6c0.1,2-0.9,4-2.6,5.2c0.3,0,0.9,0.2,1.1,0.3
	c1.9-1.2,3-3.3,3-5.5C26.5,18.4,25,16.1,22.6,15.1z"/>
<path class="st1" d="M23.8,26.6c-0.3,0.1-0.4-0.3-0.8-0.2c4.6,1.6,6.5,6.1,6.5,11c0,0.6-0.3,1.2-0.7,1.6h3.1c0.1-0.5,0.1-1,0.1-1.5
	C32,32.2,28.9,27.9,23.8,26.6z"/>
<path class="st2" d="M24.1,26.3c1.8-1.2,2.9-3.1,2.9-5.3c0-2.5-1.5-4.8-3.8-5.8c1.8-1.7,1.8-4.6,0-6.4c-1.7-1.8-4.6-1.8-6.4,0
	s-1.8,4.6,0,6.4l0,0c-2.3,1-3.8,3.3-3.8,5.8c0,2.1,1.1,4.1,2.9,5.3c-4.9,2.1-8,6.9-7.9,12.2h24C32.1,33.2,29,28.4,24.1,26.3z"/>
<path class="st3" d="M7.2,36.2h25.7c0.5,0,1,0.4,1,1v0.4c0,0.5-0.4,1-1,1H7.2c-0.5,0-1-0.4-1-1v-0.4C6.2,36.6,6.6,36.2,7.2,36.2z"/>
<path class="st4" d="M25.6,36.3H33l0.8,1l-0.3,1.2h-7.9C25.6,38.5,27.5,37.6,25.6,36.3z"/>
<path class="st5" d="M7.2,36.2h25.7c0.5,0,1,0.4,1,1v0.4c0,0.5-0.4,1-1,1H7.2c-0.5,0-1-0.4-1-1v-0.4C6.2,36.6,6.6,36.2,7.2,36.2z"/>
<path class="st3" d="M30.5,17c-1-0.8-2.9,1.6-7.1,1.6c-4.1,0-6-2.4-7-1.6c-2,1.6,1.9,13.7,7,13.7C28.5,30.8,32.4,18.6,30.5,17z"/>
<path class="st1" d="M28.9,17.6C29,19,29.6,25,25.6,28.9c-0.6,0.5-1.3,1.1-2.2,1.6c0.9-0.3,2.4-0.9,3.9-2.2c4-3.7,4.4-10.4,3-11.1
	C30.1,17,29.7,17,28.9,17.6z"/>
<path class="st1" d="M30.6,17c-1-0.8-2.9,1.6-7.1,1.6c-4.1,0-6-2.4-7-1.6c-2,1.6,1.9,13.7,7,13.7C28.6,30.8,32.5,18.6,30.6,17z"/>
<path class="st2" d="M30.5,16.9c-1-0.8-2.9,1.6-7.1,1.6c-4.1,0-6-2.4-7-1.6c-2,1.6,1.9,13.7,7,13.7C28.5,30.7,32.5,18.5,30.5,16.9z"
	/>
<polygon class="st6" points="25.2,23.4 23.5,25.7 21.9,23.4 23.5,21.2 "/>
</svg>
