<?xml version="1.0" encoding="utf-8"?>
<!-- Generator: Adobe Illustrator 23.0.1, SVG Export Plug-In . SVG Version: 6.00 Build 0)  -->
<svg version="1.1" id="Calque_1" xmlns="http://www.w3.org/2000/svg" xmlns:xlink="http://www.w3.org/1999/xlink" x="0px" y="0px"
	 viewBox="0 0 40 40" style="enable-background:new 0 0 40 40;" xml:space="preserve">
<image style="display:none;overflow:visible;" width="450" height="253" xlink:href="../../../../../../../Downloads/pixel_pawn.PNG"  transform="matrix(0.1858 0 0 0.153 -42.9592 0)">
</image>
<rect x="18.4" y="31.1" width="3.4" height="3.4"/>
<rect x="18.3" y="4.2" width="3.4" height="3.4"/>
<rect x="18.3" y="17.5" width="3.4" height="3.4"/>
<rect x="4.9" y="17.5" width="3.4" height="3.4"/>
<rect x="31.8" y="17.8" width="3.4" height="3.4"/>
<rect x="8.2" y="14.1" width="3.4" height="3.4"/>
<rect x="8.2" y="20.9" width="3.4" height="3.4"/>
<rect x="8.2" y="10.7" width="3.4" height="3.4"/>
<rect x="8.2" y="24.3" width="3.4" height="3.4"/>
<rect x="15" y="7.6" width="3.4" height="3.4"/>
<rect x="11.6" y="7.6" width="3.4" height="3.4"/>
<rect x="21.7" y="7.6" width="3.4" height="3.4"/>
<rect x="25" y="7.6" width="3.4" height="3.4"/>
<rect x="15" y="27.7" width="3.4" height="3.4"/>
<rect x="11.6" y="27.7" width="3.4" height="3.4"/>
<rect x="21.7" y="27.7" width="3.4" height="3.4"/>
<rect x="25" y="27.7" width="3.4" height="3.4"/>
<rect x="28.4" y="14.4" width="3.4" height="3.4"/>
<rect x="28.4" y="21.1" width="3.4" height="3.4"/>
<rect x="28.4" y="11" width="3.4" height="3.4"/>
<rect x="28.4" y="24.5" width="3.4" height="3.4"/>
<rect x="21.7" y="17.5" width="3.4" height="3.4"/>
<rect x="15" y="17.5" width="3.4" height="3.4"/>
<rect x="18.3" y="20.9" width="3.4" height="3.4"/>
<rect x="18.3" y="14.2" width="3.4" height="3.4"/>
</svg>
