<svg id="Calque_1" data-name="Calque 1" xmlns="http://www.w3.org/2000/svg" viewBox="0 0 40 40"><defs><style>.cls-1,.cls-5{fill:#191919;}.cls-1,.cls-3,.cls-4{fill-rule:evenodd;}.cls-1{opacity:0.9;}.cls-2,.cls-3{fill:#fff;}.cls-3{opacity:0.3;}.cls-4,.cls-6{fill:none;stroke:#000;}.cls-4{stroke-miterlimit:10;}.cls-6{stroke-linecap:round;stroke-linejoin:round;}</style></defs><path class="cls-1" d="M30.8,20.94V11.85c0-6.28-4.65-10.23-10.37-10.23s-10.37,4-10.37,10.23v9.09S9,34.59,8,35.73h4c-.08-1.38.79-3.86,1.64-6.83,1-3.54.74,3.85,1,6.83h4.92a13.76,13.76,0,0,1,.85-4.55,14.76,14.76,0,0,1,.84,4.55h4.92c.28-3,1-13.93,1-10.24,0,3,1,8.87,1.64,10.24h4C31.83,34.59,30.8,20.94,30.8,20.94Z"/><ellipse class="cls-2" cx="24.95" cy="11.28" rx="2.26" ry="3.98"/><ellipse class="cls-2" cx="15.9" cy="11.28" rx="2.26" ry="3.98"/><path class="cls-3" d="M28.42,11.28s-.4-6.57-8-9.66l4.76,1L29.09,6l1.58,4.18.53,7-.12,7.72L32,31.74l1.54,4h-3c-.23.18-1.7-9.68-2.05-12.1"/><path class="cls-3" d="M14,27.6c.34-.27-1.58-.21-3.36,7.82H12Z"/><path class="cls-3" d="M27,24.5s-1.75,3-2,10.92h1.27Z"/><path class="cls-3" d="M20.32,30.12c-.17.25-1.23.16-2.16,5.3h1.36Z"/><path class="cls-3" d="M15.9,15.83a2.26,2.26,0,0,1-2.18-1.71,2.18,2.18,0,0,0-.08.57,2.26,2.26,0,1,0,4.52,0,2.18,2.18,0,0,0-.08-.57A2.26,2.26,0,0,1,15.9,15.83Z"/><path class="cls-3" d="M25,15.83a2.26,2.26,0,0,1-2.18-1.71,2.18,2.18,0,0,0-.08.57,2.26,2.26,0,1,0,4.52,0,2.18,2.18,0,0,0-.08-.57A2.26,2.26,0,0,1,25,15.83Z"/><path class="cls-4" d="M30.8,20.94V11.85c0-6.28-4.65-10.23-10.37-10.23s-10.37,4-10.37,10.23v9.09S9,34.59,8,35.73h4c-.08-1.38.79-3.86,1.64-6.83,1-3.54.74,3.85,1,6.83h4.92a13.76,13.76,0,0,1,.85-4.55,14.76,14.76,0,0,1,.84,4.55h4.92c.28-3,1-13.93,1-10.24,0,3,1,8.87,1.64,10.24h4C31.83,34.59,30.8,20.94,30.8,20.94Z"/><rect class="cls-5" x="6.85" y="35.73" width="27.15" height="2.27" rx="0.97"/><path class="cls-3" d="M26,35.89h7.29l.75,1L33.73,38H26S27.82,37.08,26,35.89Z"/><rect class="cls-6" x="6.85" y="35.73" width="27.15" height="2.27" rx="0.97"/></svg>