<svg id="Calque_1" data-name="Calque 1" xmlns="http://www.w3.org/2000/svg" viewBox="0 0 40 40"><defs><style>.cls-1,.cls-2{fill:#fff;}.cls-1,.cls-4{stroke:#000;}.cls-1{stroke-linecap:round;stroke-linejoin:round;}.cls-2,.cls-3,.cls-4{fill-rule:evenodd;}.cls-2{opacity:0.9;}.cls-3{opacity:0.3;}.cls-4{fill:none;stroke-miterlimit:10;}</style></defs><rect class="cls-1" x="6.85" y="36.11" width="27.15" height="2.27" rx="0.97"/><path class="cls-2" d="M30.8,21.33v-9.1C30.8,6,26.15,2,20.43,2S10.06,6,10.06,12.23v9.1S9,35,8,36.11h4c-.08-1.37.79-3.86,1.64-6.82,1-3.55.74,3.85,1,6.82h4.92a13.81,13.81,0,0,1,.85-4.55,14.87,14.87,0,0,1,.84,4.55h4.92c.28-3,1-13.92,1-10.23,0,3,1,8.86,1.64,10.23h4C31.83,35,30.8,21.33,30.8,21.33Z"/><ellipse cx="24.95" cy="11.66" rx="2.26" ry="3.98"/><ellipse cx="15.9" cy="11.66" rx="2.26" ry="3.98"/><path class="cls-3" d="M28.42,11.66S28,5.09,20.43,2l4.76,1,3.9,3.31,1.58,4.18.53,7-.12,7.72L32,32.12l1.54,4h-3c-.23.18-1.7-9.67-2.05-12.1"/><path class="cls-3" d="M14,28c.34-.27-1.58-.21-3.36,7.82H12Z"/><path class="cls-3" d="M27,24.88s-1.75,3-2,10.92h1.27Z"/><path class="cls-3" d="M20.32,30.51c-.17.25-1.23.15-2.16,5.29h1.36Z"/><path class="cls-3" d="M26,36.27h7.29l.75,1-.27,1.13H26S27.82,37.46,26,36.27Z"/><path class="cls-3" d="M15.9,16.21a2.25,2.25,0,0,1-2.18-1.7,2.12,2.12,0,0,0-.08.57,2.26,2.26,0,1,0,4.52,0,2.12,2.12,0,0,0-.08-.57A2.25,2.25,0,0,1,15.9,16.21Z"/><path class="cls-3" d="M25,16.21a2.25,2.25,0,0,1-2.18-1.7,2.12,2.12,0,0,0-.08.57,2.26,2.26,0,1,0,4.52,0,2.12,2.12,0,0,0-.08-.57A2.25,2.25,0,0,1,25,16.21Z"/><path class="cls-4" d="M30.8,21.33v-9.1C30.8,6,26.15,2,20.43,2S10.06,6,10.06,12.23v9.1S9,35,8,36.11h4c-.08-1.37.79-3.86,1.64-6.82,1-3.55.74,3.85,1,6.82h4.92a13.81,13.81,0,0,1,.85-4.55,14.87,14.87,0,0,1,.84,4.55h4.92c.28-3,1-13.92,1-10.23,0,3,1,8.86,1.64,10.23h4C31.83,35,30.8,21.33,30.8,21.33Z"/></svg>