<svg id="Calque_1" data-name="Calque 1" xmlns="http://www.w3.org/2000/svg" viewBox="0 0 40 40"><defs><style>.cls-1,.cls-2{fill:#fff;}.cls-1,.cls-4{stroke:#000;}.cls-1{stroke-linecap:round;stroke-linejoin:round;}.cls-2,.cls-3,.cls-4{fill-rule:evenodd;}.cls-2{opacity:0.9;}.cls-3{opacity:0.3;}.cls-4{fill:none;stroke-miterlimit:10;}</style></defs><rect class="cls-1" x="6" y="36.69" width="27.61" height="2.31" rx="0.97"/><path class="cls-2" d="M30.35,21.66V12.41C30.35,6,25.63,2,19.8,2S9.26,6,9.26,12.41v9.25s-1.06,13.87-2.11,15h4.09c-.09-1.4.8-3.92,1.66-6.94,1-3.61.76,3.91,1,6.94h5a14,14,0,0,1,.86-4.63,15,15,0,0,1,.87,4.63h5c.29-3,1.05-14.16,1.05-10.41,0,3,1,9,1.66,10.41h4.09C31.4,35.53,30.35,21.66,30.35,21.66Z"/><ellipse cx="24.4" cy="11.83" rx="2.3" ry="4.05"/><ellipse cx="15.2" cy="11.83" rx="2.3" ry="4.05"/><path class="cls-3" d="M27.94,11.83S27.53,5.14,19.8,2l4.85,1,4,3.37,1.61,4.25.54,7.11-.13,7.86.92,7,1.56,4.06H30.05c-.23.18-1.73-9.84-2.09-12.31"/><path class="cls-3" d="M13.28,28.42c.35-.27-1.6-.21-3.42,8h1.38Z"/><path class="cls-3" d="M26.46,25.27s-1.78,3.06-2.06,11.11h1.29Z"/><path class="cls-3" d="M19.7,31c-.18.25-1.25.16-2.2,5.39h1.38Z"/><path class="cls-3" d="M25.43,36.85h7.42l.76,1L33.34,39H25.43S27.32,38.06,25.43,36.85Z"/><path class="cls-3" d="M15.2,16.45A2.3,2.3,0,0,1,13,14.72a2.7,2.7,0,0,0-.08.58,2.3,2.3,0,1,0,4.6,0,2.2,2.2,0,0,0-.08-.58A2.3,2.3,0,0,1,15.2,16.45Z"/><path class="cls-3" d="M24.4,16.45a2.28,2.28,0,0,1-2.21-1.73,2.2,2.2,0,0,0-.09.58,2.31,2.31,0,1,0,4.61,0,2.2,2.2,0,0,0-.09-.58A2.29,2.29,0,0,1,24.4,16.45Z"/><path class="cls-4" d="M30.35,21.66V12.41C30.35,6,25.63,2,19.8,2S9.26,6,9.26,12.41v9.25s-1.06,13.87-2.11,15h4.09c-.09-1.4.8-3.92,1.66-6.94,1-3.61.76,3.91,1,6.94h5a14,14,0,0,1,.86-4.63,15,15,0,0,1,.87,4.63h5c.29-3,1.05-14.16,1.05-10.41,0,3,1,9,1.66,10.41h4.09C31.4,35.53,30.35,21.66,30.35,21.66Z"/></svg>