<?xml version="1.0" encoding="utf-8"?>
<!-- Generator: Adobe Illustrator 23.0.1, SVG Export Plug-In . SVG Version: 6.00 Build 0)  -->
<svg version="1.1" id="Layer_1" xmlns="http://www.w3.org/2000/svg" xmlns:xlink="http://www.w3.org/1999/xlink" x="0px" y="0px"
	 viewBox="0 0 45 45" style="enable-background:new 0 0 45 45;" xml:space="preserve">
<style type="text/css">
	.st0{fill:none;stroke:#000000;stroke-width:1.5;stroke-linecap:round;}
	.st1{fill-rule:evenodd;clip-rule:evenodd;fill:#FFFFFF;stroke:#000000;stroke-width:1.5;}
	
		.st2{fill-rule:evenodd;clip-rule:evenodd;fill:#FFFFFF;stroke:#000000;stroke-width:1.5;stroke-linecap:round;stroke-linejoin:round;}
	.st3{fill:none;stroke:#000000;stroke-width:1.5;stroke-linecap:round;stroke-linejoin:round;}
	.st4{fill:#FFFFFF;stroke:#000000;stroke-miterlimit:10;}
</style>
<g>
	<path class="st0" d="M22.5,11.6V6"/>
	<path class="st0" d="M20,8h5"/>
	<path class="st1" d="M22.5,25c0,0,4.5-7.5,3-10.5c0,0-1-2.5-3-2.5s-3,2.5-3,2.5C18,17.5,22.5,25,22.5,25"/>
	<path class="st2" d="M12.5,37c5.5,3.5,14.5,3.5,20,0v-7c0,0,9-4.5,6-10.5c-4-6.5-13.5-3.5-16,4V27v-3.5c-2.5-7.5-12-10.5-16-4
		c-3,6,6,10.5,6,10.5V37"/>
	<path class="st3" d="M12.5,30c5.5-3,14.5-3,20,0"/>
	<path class="st3" d="M12.5,33.5c5.5-3,14.5-3,20,0"/>
	<path class="st3" d="M12.5,37c5.5-3,14.5-3,20,0"/>
</g>
<rect x="13.6" y="9.6" class="st4" width="17.2" height="15"/>
</svg>
