<svg id="Calque_1" data-name="Calque 1" xmlns="http://www.w3.org/2000/svg" viewBox="0 0 40 40"><defs><style>.cls-1{fill:#191919;}.cls-2,.cls-3{fill:#fff;}.cls-3{opacity:0.3;}</style></defs><rect x="8.92" y="36.54" width="2.46" height="2.46"/><rect x="8.92" y="34.08" width="2.46" height="2.46"/><rect x="11.38" y="36.54" width="2.46" height="2.46"/><rect x="13.85" y="36.54" width="2.46" height="2.46"/><rect x="16.31" y="36.54" width="2.46" height="2.46"/><rect x="18.77" y="36.54" width="2.46" height="2.46"/><rect x="21.23" y="36.54" width="2.46" height="2.46"/><rect x="23.69" y="36.54" width="2.46" height="2.46"/><rect x="26.15" y="36.54" width="2.46" height="2.46"/><rect x="28.62" y="36.54" width="2.46" height="2.46"/><rect x="28.62" y="34.08" width="2.46" height="2.46"/><rect x="26.15" y="31.62" width="2.46" height="2.46"/><rect x="26.15" y="29.15" width="2.46" height="2.46"/><rect x="31.08" y="24.23" width="2.46" height="2.46"/><rect x="28.62" y="26.69" width="2.46" height="2.46"/><rect x="31.08" y="21.77" width="2.46" height="2.46"/><rect x="31.08" y="9.46" width="2.46" height="2.46"/><rect x="33.54" y="19.31" width="2.46" height="2.46"/><rect x="33.54" y="16.85" width="2.46" height="2.46"/><rect x="33.54" y="14.38" width="2.46" height="2.46"/><rect x="33.54" y="11.92" width="2.46" height="2.46"/><rect x="28.62" y="9.46" width="2.46" height="2.46"/><rect x="26.15" y="9.46" width="2.46" height="2.46"/><rect x="4" y="11.92" width="2.46" height="2.46"/><rect x="6.46" y="9.46" width="2.46" height="2.46"/><rect x="8.92" y="9.46" width="2.46" height="2.46"/><rect x="11.38" y="9.46" width="2.46" height="2.46"/><rect x="13.85" y="11.92" width="2.46" height="2.46"/><rect x="16.31" y="4.54" width="2.46" height="2.46"/><rect x="18.77" y="4.54" width="2.46" height="2.46"/><rect x="18.77" y="7" width="2.46" height="2.46"/><rect x="18.77" y="9.46" width="2.46" height="2.46"/><rect x="18.77" y="11.92" width="2.46" height="2.46"/><rect x="21.23" y="4.54" width="2.46" height="2.46"/><rect x="18.77" y="2.08" width="2.46" height="2.46"/><rect x="16.31" y="14.38" width="2.46" height="2.46"/><rect x="18.77" y="14.38" width="2.46" height="2.46"/><rect x="21.23" y="14.38" width="2.46" height="2.46"/><rect x="23.69" y="11.92" width="2.46" height="2.46"/><rect x="21.23" y="31.62" width="2.46" height="2.46"/><rect x="18.77" y="31.62" width="2.46" height="2.46"/><rect x="16.31" y="31.62" width="2.46" height="2.46"/><rect x="13.85" y="31.62" width="2.46" height="2.46"/><rect x="11.38" y="31.62" width="2.46" height="2.46"/><rect x="11.38" y="29.15" width="2.46" height="2.46"/><rect x="8.92" y="26.69" width="2.46" height="2.46"/><rect x="6.46" y="24.23" width="2.46" height="2.46"/><rect x="4" y="19.31" width="2.46" height="2.46"/><rect x="6.46" y="21.77" width="2.46" height="2.46"/><rect x="4" y="16.85" width="2.46" height="2.46"/><rect x="4" y="14.38" width="2.46" height="2.46"/><rect x="23.69" y="31.62" width="2.46" height="2.46"/><rect class="cls-1" x="6.46" y="11.92" width="2.46" height="2.46"/><rect class="cls-1" x="11.38" y="11.92" width="2.46" height="2.46"/><rect class="cls-1" x="13.85" y="14.38" width="2.46" height="2.46"/><rect class="cls-1" x="6.46" y="14.38" width="2.46" height="2.46"/><rect class="cls-1" x="6.46" y="16.85" width="2.46" height="2.46"/><rect class="cls-1" x="6.46" y="19.31" width="2.46" height="2.46"/><rect class="cls-1" x="8.92" y="11.92" width="2.46" height="2.46"/><rect class="cls-1" x="8.92" y="21.77" width="2.46" height="2.46"/><rect class="cls-1" x="16.31" y="16.85" width="2.46" height="2.46"/><rect class="cls-1" x="18.77" y="16.85" width="2.46" height="2.46"/><rect class="cls-1" x="18.77" y="19.31" width="2.46" height="2.46"/><rect class="cls-2" x="16.31" y="19.31" width="2.46" height="2.46"/><rect class="cls-1" x="18.77" y="21.77" width="2.46" height="2.46"/><rect class="cls-2" x="21.23" y="21.77" width="2.46" height="2.46"/><rect class="cls-1" x="16.31" y="24.23" width="2.46" height="2.46"/><rect class="cls-2" x="16.31" y="21.77" width="2.46" height="2.46"/><rect class="cls-1" x="18.77" y="24.23" width="2.46" height="2.46"/><rect class="cls-1" x="16.31" y="29.15" width="2.46" height="2.46"/><rect class="cls-2" x="13.85" y="24.23" width="2.46" height="2.46"/><rect class="cls-1" x="13.85" y="29.15" width="2.46" height="2.46"/><rect class="cls-1" x="18.77" y="29.15" width="2.46" height="2.46"/><rect class="cls-1" x="21.23" y="29.15" width="2.46" height="2.46"/><rect class="cls-1" x="23.69" y="29.15" width="2.46" height="2.46"/><rect class="cls-1" x="13.85" y="34.08" width="2.46" height="2.46"/><rect class="cls-1" x="11.38" y="34.08" width="2.46" height="2.46"/><rect class="cls-1" x="16.31" y="34.08" width="2.46" height="2.46"/><rect class="cls-1" x="18.77" y="34.08" width="2.46" height="2.46"/><rect class="cls-1" x="21.23" y="34.08" width="2.46" height="2.46"/><rect class="cls-1" x="23.69" y="34.08" width="2.46" height="2.46"/><rect class="cls-1" x="26.15" y="34.08" width="2.46" height="2.46"/><rect class="cls-1" x="21.23" y="24.23" width="2.46" height="2.46"/><rect class="cls-2" x="23.69" y="24.23" width="2.46" height="2.46"/><rect class="cls-1" x="26.15" y="24.23" width="2.46" height="2.46"/><rect class="cls-1" x="28.62" y="24.23" width="2.46" height="2.46"/><rect class="cls-2" x="21.23" y="19.31" width="2.46" height="2.46"/><rect class="cls-1" x="21.23" y="16.85" width="2.46" height="2.46"/><rect class="cls-1" x="23.69" y="14.38" width="2.46" height="2.46"/><rect class="cls-1" x="28.62" y="21.77" width="2.46" height="2.46"/><rect class="cls-1" x="28.62" y="11.92" width="2.46" height="2.46"/><rect class="cls-1" x="26.15" y="11.92" width="2.46" height="2.46"/><rect class="cls-1" x="11.38" y="24.23" width="2.46" height="2.46"/><rect class="cls-1" x="16.31" y="26.69" width="2.46" height="2.46"/><rect class="cls-1" x="18.77" y="26.69" width="2.46" height="2.46"/><rect class="cls-1" x="13.85" y="26.69" width="2.46" height="2.46"/><rect class="cls-1" x="21.23" y="26.69" width="2.46" height="2.46"/><rect class="cls-1" x="23.69" y="26.69" width="2.46" height="2.46"/><rect class="cls-1" x="26.15" y="26.69" width="2.46" height="2.46"/><rect class="cls-1" x="11.38" y="26.69" width="2.46" height="2.46"/><rect class="cls-1" x="8.92" y="24.23" width="2.46" height="2.46"/><rect class="cls-1" x="31.08" y="19.31" width="2.46" height="2.46"/><rect class="cls-1" x="31.08" y="16.85" width="2.46" height="2.46"/><rect class="cls-1" x="31.08" y="14.38" width="2.46" height="2.46"/><rect class="cls-1" x="31.08" y="11.92" width="2.46" height="2.46"/><rect x="13.85" y="24.23" width="2.46" height="2.46"/><rect x="16.31" y="21.77" width="2.46" height="2.46"/><rect x="21.23" y="21.77" width="2.46" height="2.46"/><rect x="16.31" y="19.31" width="2.46" height="2.46"/><rect x="21.23" y="19.31" width="2.46" height="2.46"/><rect x="26.15" y="21.77" width="2.46" height="2.46"/><rect x="28.62" y="19.31" width="2.46" height="2.46"/><rect x="28.62" y="14.38" width="2.46" height="2.46"/><rect x="23.69" y="24.23" width="2.46" height="2.46"/><rect x="11.38" y="21.77" width="2.46" height="2.46"/><rect x="8.92" y="19.31" width="2.46" height="2.46"/><rect x="8.92" y="14.38" width="2.46" height="2.46"/><rect x="11.38" y="14.38" width="2.46" height="2.46"/><rect x="13.85" y="16.85" width="2.46" height="2.46"/><rect x="23.69" y="16.85" width="2.46" height="2.46"/><rect x="26.15" y="14.38" width="2.46" height="2.46"/><rect class="cls-3" x="26.15" y="34.08" width="2.46" height="2.46"/><rect class="cls-3" x="23.69" y="29.15" width="2.46" height="2.46"/><rect class="cls-3" x="21.23" y="29.15" width="2.46" height="2.46"/><rect class="cls-3" x="11.38" y="24.23" width="2.46" height="2.46"/><rect class="cls-3" x="26.15" y="26.69" width="2.46" height="2.46"/><rect class="cls-3" x="28.62" y="24.23" width="2.46" height="2.46"/><rect class="cls-3" x="28.62" y="21.77" width="2.46" height="2.46"/><rect class="cls-3" x="31.08" y="19.31" width="2.46" height="2.46"/><rect class="cls-3" x="31.08" y="16.85" width="2.46" height="2.46"/><rect class="cls-3" x="31.08" y="14.38" width="2.46" height="2.46"/><rect class="cls-3" x="31.08" y="11.92" width="2.46" height="2.46"/><rect class="cls-3" x="28.62" y="11.92" width="2.46" height="2.46"/><rect class="cls-3" x="11.38" y="11.92" width="2.46" height="2.46"/><rect class="cls-3" x="21.23" y="16.85" width="2.46" height="2.46"/><rect class="cls-3" x="23.69" y="34.08" width="2.46" height="2.46"/></svg>