<?xml version="1.0" encoding="utf-8"?>
<!-- Generator: Adobe Illustrator 23.0.1, SVG Export Plug-In . SVG Version: 6.00 Build 0)  -->
<svg version="1.1" id="Calque_1" xmlns="http://www.w3.org/2000/svg" xmlns:xlink="http://www.w3.org/1999/xlink" x="0px" y="0px"
	 viewBox="0 0 40 40" style="enable-background:new 0 0 40 40;" xml:space="preserve">
<style type="text/css">
	.st0{fill:#FFFFFF;}
	.st1{fill:none;stroke:#000000;stroke-miterlimit:10;}
	.st2{opacity:0.3;enable-background:new    ;}
	.st3{fill:#FFFFFF;stroke:#000000;stroke-miterlimit:10;}
</style>
<path class="st0" d="M24.1,26.3c1.8-1.2,2.9-3.2,2.9-5.3c0-2.5-1.5-4.8-3.8-5.8c1.8-1.7,1.8-4.6,0-6.4c-1.7-1.8-4.6-1.8-6.4,0
	s-1.8,4.6,0,6.4c0,0,0,0,0,0c-2.3,1-3.8,3.3-3.8,5.8c0,2.1,1.1,4.1,2.9,5.3c-4.9,2.1-8,6.9-7.9,12.2h24C32.1,33.2,29,28.4,24.1,26.3
	z"/>
<path class="st1" d="M24.1,26.3c1.8-1.2,2.9-3.2,2.9-5.3c0-2.5-1.5-4.8-3.8-5.8c1.8-1.7,1.8-4.6,0-6.4c-1.7-1.8-4.6-1.8-6.4,0
	s-1.8,4.6,0,6.4c0,0,0,0,0,0c-2.3,1-3.8,3.3-3.8,5.8c0,2.1,1.1,4.1,2.9,5.3c-4.9,2.1-8,6.9-7.9,12.2h24C32.1,33.2,29,28.4,24.1,26.3
	z"/>
<path class="st2" d="M22.7,12c0.1,1.2-0.4,2.3-1.3,3.1c0.3,0.1,0.6,0.2,0.9,0.3c1.1-0.8,1.7-2.1,1.6-3.4c0-2.2-1.8-4-4-4
	c-0.2,0-0.3,0-0.5,0.1C21.4,8.3,22.8,10,22.7,12z"/>
<path class="st2" d="M22.6,15.1c-0.1,0.1-0.2,0.2-0.3,0.3c2,1.1,2.6,3.2,2.6,5.6c0.1,2-0.9,4-2.6,5.2c0.3,0.1,0.9,0.3,1.1,0.3
	c1.9-1.2,3-3.3,3-5.5C26.5,18.5,25,16.1,22.6,15.1z"/>
<path class="st2" d="M23.8,26.6c-0.3,0.1-0.4-0.3-0.8-0.2c4.6,1.6,6.5,6.1,6.5,11c0,0.6-0.3,1.2-0.7,1.6h3.1c0.1-0.5,0.1-1,0.1-1.5
	C32,32.2,28.9,27.9,23.8,26.6z"/>
<rect x="12" y="24.3" class="st3" width="15.5" height="4.1"/>
<rect x="15.8" y="8" class="st3" width="8.2" height="7.4"/>
</svg>
