<svg id="Calque_1" data-name="Calque 1" xmlns="http://www.w3.org/2000/svg" viewBox="0 0 40 40"><defs><style>.cls-1{fill:#494949;}.cls-2{fill:#fff;}.cls-3{opacity:0.3;}</style></defs><rect x="10.86" y="36.43" width="2.57" height="2.57"/><rect x="10.86" y="33.86" width="2.57" height="2.57"/><rect x="13.43" y="31.29" width="2.57" height="2.57"/><rect x="13.43" y="28.71" width="2.57" height="2.57"/><rect x="16" y="26.14" width="2.57" height="2.57"/><rect x="18.57" y="23.57" width="2.57" height="2.57"/><rect x="21.14" y="21" width="2.57" height="2.57"/><rect x="21.14" y="18.43" width="2.57" height="2.57"/><rect x="23.71" y="15.86" width="2.57" height="2.57"/><rect x="21.14" y="15.86" width="2.57" height="2.57"/><rect x="18.57" y="18.43" width="2.57" height="2.57"/><rect x="16" y="18.43" width="2.57" height="2.57"/><rect x="13.43" y="18.43" width="2.57" height="2.57"/><rect x="10.86" y="21" width="2.57" height="2.57"/><rect x="8.29" y="21" width="2.57" height="2.57"/><rect x="5.71" y="18.43" width="2.57" height="2.57"/><rect x="5.71" y="15.86" width="2.57" height="2.57"/><rect x="8.29" y="13.29" width="2.57" height="2.57"/><rect x="10.86" y="10.71" width="2.57" height="2.57"/><rect x="13.43" y="8.14" width="2.57" height="2.57"/><rect x="10.86" y="5.57" width="2.57" height="2.57"/><rect x="10.86" y="3" width="2.57" height="2.57"/><rect class="cls-1" x="16" y="10.71" width="2.57" height="2.57"/><rect x="16" y="31.29" width="2.57" height="2.57"/><rect x="18.57" y="31.29" width="2.57" height="2.57"/><rect x="21.14" y="31.29" width="2.57" height="2.57"/><rect x="23.71" y="31.29" width="2.57" height="2.57"/><rect x="26.29" y="31.29" width="2.57" height="2.57"/><rect x="28.86" y="31.29" width="2.57" height="2.57"/><rect x="28.86" y="28.71" width="2.57" height="2.57"/><rect x="28.86" y="26.14" width="2.57" height="2.57"/><rect x="31.43" y="23.57" width="2.57" height="2.57"/><rect x="31.43" y="21" width="2.57" height="2.57"/><rect x="31.43" y="18.43" width="2.57" height="2.57"/><rect x="31.43" y="15.86" width="2.57" height="2.57"/><rect x="31.43" y="13.29" width="2.57" height="2.57"/><rect x="28.86" y="10.71" width="2.57" height="2.57"/><rect x="28.86" y="10.71" width="2.57" height="2.57"/><rect x="26.29" y="5.57" width="2.57" height="2.57"/><rect x="23.71" y="5.57" width="2.57" height="2.57"/><rect x="21.14" y="5.57" width="2.57" height="2.57"/><rect x="18.57" y="3" width="2.57" height="2.57"/><rect x="16" y="3" width="2.57" height="2.57"/><rect x="13.43" y="3" width="2.57" height="2.57"/><rect x="13.43" y="36.43" width="2.57" height="2.57"/><rect x="16" y="36.43" width="2.57" height="2.57"/><rect x="18.57" y="36.43" width="2.57" height="2.57"/><rect x="21.14" y="36.43" width="2.57" height="2.57"/><rect x="23.71" y="36.43" width="2.57" height="2.57"/><rect x="26.29" y="36.43" width="2.57" height="2.57"/><rect x="28.86" y="36.43" width="2.57" height="2.57"/><rect x="31.43" y="36.43" width="2.57" height="2.57"/><rect x="31.43" y="33.86" width="2.57" height="2.57"/><rect x="28.86" y="8.14" width="2.57" height="2.57"/><rect class="cls-2" x="8.29" y="18.43" width="2.57" height="2.57"/><rect class="cls-2" x="10.86" y="18.43" width="2.57" height="2.57"/><rect class="cls-2" x="8.29" y="15.86" width="2.57" height="2.57"/><rect class="cls-2" x="10.86" y="15.86" width="2.57" height="2.57"/><rect class="cls-2" x="13.43" y="15.86" width="2.57" height="2.57"/><rect class="cls-2" x="16" y="15.86" width="2.57" height="2.57"/><rect class="cls-2" x="18.57" y="15.86" width="2.57" height="2.57"/><rect class="cls-2" x="21.14" y="15.86" width="2.57" height="2.57"/><rect class="cls-2" x="18.57" y="13.29" width="2.57" height="2.57"/><rect class="cls-2" x="21.14" y="13.29" width="2.57" height="2.57"/><rect class="cls-2" x="18.57" y="10.71" width="2.57" height="2.57"/><rect class="cls-2" x="21.14" y="10.71" width="2.57" height="2.57"/><rect class="cls-2" x="21.14" y="8.14" width="2.57" height="2.57"/><rect class="cls-2" x="23.71" y="8.14" width="2.57" height="2.57"/><rect class="cls-2" x="23.71" y="13.29" width="2.57" height="2.57"/><rect class="cls-2" x="26.29" y="13.29" width="2.57" height="2.57"/><rect class="cls-2" x="28.86" y="13.29" width="2.57" height="2.57"/><rect class="cls-2" x="26.29" y="15.86" width="2.57" height="2.57"/><rect class="cls-2" x="28.86" y="15.86" width="2.57" height="2.57"/><rect class="cls-2" x="26.29" y="18.43" width="2.57" height="2.57"/><rect class="cls-2" x="23.71" y="18.43" width="2.57" height="2.57"/><rect class="cls-2" x="16" y="28.71" width="2.57" height="2.57"/><rect class="cls-2" x="28.86" y="18.43" width="2.57" height="2.57"/><rect class="cls-2" x="26.29" y="21" width="2.57" height="2.57"/><rect class="cls-2" x="23.71" y="21" width="2.57" height="2.57"/><rect class="cls-2" x="28.86" y="21" width="2.57" height="2.57"/><rect class="cls-2" x="26.29" y="23.57" width="2.57" height="2.57"/><rect class="cls-2" x="28.86" y="23.57" width="2.57" height="2.57"/><rect class="cls-2" x="21.14" y="23.57" width="2.57" height="2.57"/><rect class="cls-2" x="23.71" y="23.57" width="2.57" height="2.57"/><rect class="cls-2" x="23.71" y="26.14" width="2.57" height="2.57"/><rect class="cls-2" x="26.29" y="26.14" width="2.57" height="2.57"/><rect class="cls-2" x="23.71" y="28.71" width="2.57" height="2.57"/><rect class="cls-2" x="26.29" y="28.71" width="2.57" height="2.57"/><rect class="cls-2" x="18.57" y="28.71" width="2.57" height="2.57"/><rect class="cls-2" x="21.14" y="28.71" width="2.57" height="2.57"/><rect class="cls-2" x="18.57" y="26.14" width="2.57" height="2.57"/><rect class="cls-2" x="21.14" y="26.14" width="2.57" height="2.57"/><rect class="cls-2" x="26.29" y="33.86" width="2.57" height="2.57"/><rect class="cls-2" x="28.86" y="33.86" width="2.57" height="2.57"/><rect class="cls-2" x="21.14" y="33.86" width="2.57" height="2.57"/><rect class="cls-2" x="23.71" y="33.86" width="2.57" height="2.57"/><rect class="cls-2" x="16" y="33.86" width="2.57" height="2.57"/><rect class="cls-2" x="13.43" y="33.86" width="2.57" height="2.57"/><rect class="cls-2" x="18.57" y="33.86" width="2.57" height="2.57"/><rect class="cls-2" x="26.29" y="8.14" width="2.57" height="2.57"/><rect class="cls-2" x="23.71" y="10.71" width="2.57" height="2.57"/><rect class="cls-2" x="26.29" y="10.71" width="2.57" height="2.57"/><rect class="cls-2" x="13.43" y="13.29" width="2.57" height="2.57"/><rect class="cls-2" x="10.86" y="13.29" width="2.57" height="2.57"/><rect class="cls-2" x="13.43" y="10.71" width="2.57" height="2.57"/><rect class="cls-2" x="13.43" y="5.57" width="2.57" height="2.57"/><rect class="cls-2" x="16" y="5.57" width="2.57" height="2.57"/><rect class="cls-2" x="18.57" y="5.57" width="2.57" height="2.57"/><rect class="cls-2" x="18.57" y="8.14" width="2.57" height="2.57"/><rect class="cls-2" x="16" y="8.14" width="2.57" height="2.57"/><rect class="cls-2" x="16" y="13.29" width="2.57" height="2.57"/><rect class="cls-3" x="18.57" y="5.57" width="2.57" height="2.57"/><rect class="cls-3" x="26.29" y="8.14" width="2.57" height="2.57"/><rect class="cls-3" x="26.29" y="10.71" width="2.57" height="2.57"/><rect class="cls-3" x="28.86" y="13.29" width="2.57" height="2.57"/><rect class="cls-3" x="28.86" y="15.86" width="2.57" height="2.57"/><rect class="cls-3" x="28.86" y="18.43" width="2.57" height="2.57"/><rect class="cls-3" x="28.86" y="21" width="2.57" height="2.57"/><rect class="cls-3" x="28.86" y="23.57" width="2.57" height="2.57"/><rect class="cls-3" x="26.29" y="26.14" width="2.57" height="2.57"/><rect class="cls-3" x="10.86" y="18.43" width="2.57" height="2.57"/><rect class="cls-3" x="21.14" y="15.86" width="2.57" height="2.57"/><rect class="cls-3" x="23.71" y="13.29" width="2.57" height="2.57"/><rect class="cls-3" x="26.29" y="28.71" width="2.57" height="2.57"/><rect class="cls-3" x="23.71" y="28.71" width="2.57" height="2.57"/><rect class="cls-3" x="26.29" y="33.86" width="2.57" height="2.57"/><rect class="cls-3" x="28.86" y="33.86" width="2.57" height="2.57"/></svg>