<svg id="Calque_1" data-name="Calque 1" xmlns="http://www.w3.org/2000/svg" viewBox="0 0 40 40"><defs><style>.cls-1{fill:#fff;}.cls-2{opacity:0.3;}</style></defs><rect x="7.86" y="36.57" width="2.43" height="2.43"/><rect x="10.29" y="36.57" width="2.43" height="2.43"/><rect x="12.71" y="36.57" width="2.43" height="2.43"/><rect x="15.14" y="36.57" width="2.43" height="2.43"/><rect x="17.57" y="36.57" width="2.43" height="2.43"/><rect x="22.43" y="36.57" width="2.43" height="2.43"/><rect x="20" y="36.57" width="2.43" height="2.43"/><rect x="24.86" y="36.57" width="2.43" height="2.43"/><rect x="27.29" y="36.57" width="2.43" height="2.43"/><rect x="29.71" y="36.57" width="2.43" height="2.43"/><rect x="29.71" y="34.14" width="2.43" height="2.43"/><rect x="7.86" y="34.14" width="2.43" height="2.43"/><rect x="10.29" y="31.71" width="2.43" height="2.43"/><rect x="12.71" y="31.71" width="2.43" height="2.43"/><rect x="15.14" y="31.71" width="2.43" height="2.43"/><rect x="17.57" y="31.71" width="2.43" height="2.43"/><rect x="22.43" y="31.71" width="2.43" height="2.43"/><rect x="20" y="31.71" width="2.43" height="2.43"/><rect x="24.86" y="31.71" width="2.43" height="2.43"/><rect x="27.29" y="31.71" width="2.43" height="2.43"/><rect x="27.29" y="29.29" width="2.43" height="2.43"/><rect x="29.71" y="26.86" width="2.43" height="2.43"/><rect x="29.71" y="24.43" width="2.43" height="2.43"/><rect x="32.14" y="22" width="2.43" height="2.43"/><rect x="32.14" y="19.57" width="2.43" height="2.43"/><rect x="32.14" y="17.14" width="2.43" height="2.43"/><rect x="29.71" y="17.14" width="2.43" height="2.43"/><rect x="27.29" y="19.57" width="2.43" height="2.43"/><rect x="24.86" y="22" width="2.43" height="2.43"/><rect x="22.43" y="19.57" width="2.43" height="2.43"/><rect x="20" y="17.14" width="2.43" height="2.43"/><rect x="34.57" y="14.71" width="2.43" height="2.43"/><rect x="10.29" y="29.29" width="2.43" height="2.43"/><rect x="7.86" y="26.86" width="2.43" height="2.43"/><rect x="7.86" y="24.43" width="2.43" height="2.43"/><rect x="5.43" y="22" width="2.43" height="2.43"/><rect x="5.43" y="19.57" width="2.43" height="2.43"/><rect x="5.43" y="17.14" width="2.43" height="2.43"/><rect x="7.86" y="17.14" width="2.43" height="2.43"/><rect x="10.29" y="19.57" width="2.43" height="2.43"/><rect x="12.71" y="22" width="2.43" height="2.43"/><rect x="15.14" y="19.57" width="2.43" height="2.43"/><rect x="17.57" y="17.14" width="2.43" height="2.43"/><rect x="20" y="9.86" width="2.43" height="2.43"/><rect x="17.57" y="9.86" width="2.43" height="2.43"/><rect x="20" y="2.57" width="2.43" height="2.43"/><rect x="22.43" y="5" width="2.43" height="2.43"/><rect x="22.43" y="7.43" width="2.43" height="2.43"/><rect x="15.14" y="5" width="2.43" height="2.43"/><rect x="15.14" y="7.43" width="2.43" height="2.43"/><rect x="17.57" y="2.57" width="2.43" height="2.43"/><rect x="3" y="14.71" width="2.43" height="2.43"/><rect class="cls-1" x="7.86" y="19.57" width="2.43" height="2.43"/><rect class="cls-1" x="7.86" y="22" width="2.43" height="2.43"/><rect class="cls-1" x="10.29" y="22" width="2.43" height="2.43"/><rect class="cls-1" x="10.29" y="24.43" width="2.43" height="2.43"/><rect class="cls-1" x="10.29" y="26.86" width="2.43" height="2.43"/><rect class="cls-1" x="12.71" y="24.43" width="2.43" height="2.43"/><rect class="cls-1" x="12.71" y="26.86" width="2.43" height="2.43"/><rect class="cls-1" x="12.71" y="29.29" width="2.43" height="2.43"/><rect class="cls-1" x="15.14" y="29.29" width="2.43" height="2.43"/><rect class="cls-1" x="15.14" y="26.86" width="2.43" height="2.43"/><rect class="cls-1" x="15.14" y="24.43" width="2.43" height="2.43"/><rect class="cls-1" x="15.14" y="22" width="2.43" height="2.43"/><rect class="cls-1" x="17.57" y="22" width="2.43" height="2.43"/><rect class="cls-1" x="17.57" y="19.57" width="2.43" height="2.43"/><rect class="cls-1" x="20" y="19.57" width="2.43" height="2.43"/><rect class="cls-1" x="20" y="22" width="2.43" height="2.43"/><rect class="cls-1" x="20" y="24.43" width="2.43" height="2.43"/><rect class="cls-1" x="17.57" y="24.43" width="2.43" height="2.43"/><rect class="cls-1" x="17.57" y="26.86" width="2.43" height="2.43"/><rect class="cls-1" x="20" y="26.86" width="2.43" height="2.43"/><rect class="cls-1" x="20" y="29.29" width="2.43" height="2.43"/><rect class="cls-1" x="22.43" y="22" width="2.43" height="2.43"/><rect class="cls-1" x="22.43" y="24.43" width="2.43" height="2.43"/><rect class="cls-1" x="22.43" y="26.86" width="2.43" height="2.43"/><rect class="cls-1" x="22.43" y="29.29" width="2.43" height="2.43"/><rect class="cls-1" x="24.86" y="24.43" width="2.43" height="2.43"/><rect class="cls-1" x="24.86" y="26.86" width="2.43" height="2.43"/><rect class="cls-1" x="27.29" y="22" width="2.43" height="2.43"/><rect class="cls-1" x="29.71" y="22" width="2.43" height="2.43"/><rect class="cls-1" x="29.71" y="19.57" width="2.43" height="2.43"/><rect class="cls-1" x="27.29" y="24.43" width="2.43" height="2.43"/><rect class="cls-1" x="27.29" y="26.86" width="2.43" height="2.43"/><rect class="cls-1" x="24.86" y="29.29" width="2.43" height="2.43"/><rect class="cls-1" x="17.57" y="29.29" width="2.43" height="2.43"/><rect class="cls-1" x="10.29" y="34.14" width="2.43" height="2.43"/><rect class="cls-1" x="12.71" y="34.14" width="2.43" height="2.43"/><rect class="cls-1" x="17.57" y="34.14" width="2.43" height="2.43"/><rect class="cls-1" x="20" y="34.14" width="2.43" height="2.43"/><rect class="cls-1" x="22.43" y="34.14" width="2.43" height="2.43"/><rect class="cls-1" x="24.86" y="34.14" width="2.43" height="2.43"/><rect class="cls-1" x="27.29" y="34.14" width="2.43" height="2.43"/><rect class="cls-1" x="15.14" y="34.14" width="2.43" height="2.43"/><rect class="cls-1" x="17.57" y="7.43" width="2.43" height="2.43"/><rect class="cls-1" x="17.57" y="5" width="2.43" height="2.43"/><rect class="cls-1" x="20" y="5" width="2.43" height="2.43"/><rect class="cls-1" x="20" y="7.43" width="2.43" height="2.43"/><rect class="cls-2" x="20" y="5" width="2.43" height="2.43"/><rect class="cls-2" x="20" y="7.43" width="2.43" height="2.43"/><rect class="cls-2" x="29.71" y="19.57" width="2.43" height="2.43"/><rect class="cls-2" x="29.71" y="22" width="2.43" height="2.43"/><rect class="cls-2" x="27.29" y="26.86" width="2.43" height="2.43"/><rect class="cls-2" x="24.86" y="29.29" width="2.43" height="2.43"/><rect class="cls-2" x="24.86" y="26.86" width="2.43" height="2.43"/><rect class="cls-2" x="27.29" y="34.14" width="2.43" height="2.43"/><rect class="cls-2" x="24.86" y="34.14" width="2.43" height="2.43"/><rect class="cls-2" x="22.43" y="29.29" width="2.43" height="2.43"/><rect class="cls-2" x="27.29" y="24.43" width="2.43" height="2.43"/><rect class="cls-2" x="22.43" y="22" width="2.43" height="2.43"/><rect class="cls-2" x="20" y="19.57" width="2.43" height="2.43"/><rect class="cls-2" x="10.29" y="22" width="2.43" height="2.43"/></svg>