<svg id="Calque_1" data-name="Calque 1" xmlns="http://www.w3.org/2000/svg" viewBox="0 0 40 40"><defs><style>.cls-1{fill:#fff;}.cls-2{opacity:0.3;}</style></defs><rect x="9" y="36.25" width="2.75" height="2.75"/><rect x="9" y="33.5" width="2.75" height="2.75"/><rect x="9" y="30.75" width="2.75" height="2.75"/><rect x="11.75" y="28" width="2.75" height="2.75"/><rect x="14.5" y="25.25" width="2.75" height="2.75"/><rect x="11.75" y="22.5" width="2.75" height="2.75"/><rect x="11.75" y="19.75" width="2.75" height="2.75"/><rect x="11.75" y="17" width="2.75" height="2.75"/><rect x="14.5" y="14.25" width="2.75" height="2.75"/><rect x="11.75" y="11.5" width="2.75" height="2.75"/><rect x="11.75" y="8.75" width="2.75" height="2.75"/><rect class="cls-1" x="14.5" y="8.75" width="2.75" height="2.75"/><rect class="cls-1" x="17.25" y="8.75" width="2.75" height="2.75"/><rect class="cls-1" x="20" y="8.75" width="2.75" height="2.75"/><rect class="cls-1" x="22.75" y="11.5" width="2.75" height="2.75"/><rect class="cls-1" x="20" y="14.25" width="2.75" height="2.75"/><rect class="cls-1" x="22.75" y="17" width="2.75" height="2.75"/><rect class="cls-1" x="22.75" y="19.75" width="2.75" height="2.75"/><rect class="cls-1" x="22.75" y="22.5" width="2.75" height="2.75"/><rect class="cls-1" x="20" y="25.25" width="2.75" height="2.75"/><rect class="cls-1" x="22.75" y="28" width="2.75" height="2.75"/><rect class="cls-1" x="25.5" y="30.75" width="2.75" height="2.75"/><rect class="cls-1" x="25.5" y="33.5" width="2.75" height="2.75"/><rect class="cls-1" x="22.75" y="8.75" width="2.75" height="2.75"/><rect class="cls-1" x="20" y="11.5" width="2.75" height="2.75"/><rect class="cls-1" x="17.25" y="11.5" width="2.75" height="2.75"/><rect class="cls-1" x="17.25" y="14.25" width="2.75" height="2.75"/><rect class="cls-1" x="20" y="17" width="2.75" height="2.75"/><rect class="cls-1" x="17.25" y="17" width="2.75" height="2.75"/><rect class="cls-1" x="14.5" y="17" width="2.75" height="2.75"/><rect class="cls-1" x="14.5" y="19.75" width="2.75" height="2.75"/><rect class="cls-1" x="17.25" y="19.75" width="2.75" height="2.75"/><rect class="cls-1" x="20" y="19.75" width="2.75" height="2.75"/><rect class="cls-1" x="20" y="22.5" width="2.75" height="2.75"/><rect class="cls-1" x="17.25" y="22.5" width="2.75" height="2.75"/><rect class="cls-1" x="17.25" y="25.25" width="2.75" height="2.75"/><rect class="cls-1" x="20" y="28" width="2.75" height="2.75"/><rect class="cls-1" x="22.75" y="30.75" width="2.75" height="2.75"/><rect class="cls-1" x="22.75" y="33.5" width="2.75" height="2.75"/><rect class="cls-1" x="20" y="33.5" width="2.75" height="2.75"/><rect class="cls-1" x="20" y="30.75" width="2.75" height="2.75"/><rect class="cls-1" x="20" y="28" width="2.75" height="2.75"/><rect class="cls-1" x="17.25" y="28" width="2.75" height="2.75"/><rect class="cls-1" x="14.5" y="28" width="2.75" height="2.75"/><rect class="cls-1" x="14.5" y="30.75" width="2.75" height="2.75"/><rect class="cls-1" x="11.75" y="30.75" width="2.75" height="2.75"/><rect class="cls-1" x="11.75" y="33.5" width="2.75" height="2.75"/><rect class="cls-1" x="14.5" y="33.5" width="2.75" height="2.75"/><rect class="cls-1" x="17.25" y="33.5" width="2.75" height="2.75"/><rect class="cls-1" x="17.25" y="30.75" width="2.75" height="2.75"/><rect class="cls-1" x="14.5" y="30.75" width="2.75" height="2.75"/><rect class="cls-1" x="14.5" y="22.5" width="2.75" height="2.75"/><rect class="cls-1" x="14.5" y="11.5" width="2.75" height="2.75"/><rect x="14.5" y="6" width="2.75" height="2.75"/><rect x="17.25" y="6" width="2.75" height="2.75"/><rect x="20" y="6" width="2.75" height="2.75"/><rect x="25.5" y="22.5" width="2.75" height="2.75"/><rect x="25.5" y="19.75" width="2.75" height="2.75"/><rect x="25.5" y="17" width="2.75" height="2.75"/><rect x="22.75" y="14.25" width="2.75" height="2.75"/><rect x="25.5" y="11.5" width="2.75" height="2.75"/><rect x="22.75" y="6" width="2.75" height="2.75"/><rect x="25.5" y="8.75" width="2.75" height="2.75"/><rect x="11.75" y="36.25" width="2.75" height="2.75"/><rect x="14.5" y="36.25" width="2.75" height="2.75"/><rect x="17.25" y="36.25" width="2.75" height="2.75"/><rect x="20" y="36.25" width="2.75" height="2.75"/><rect x="22.75" y="36.25" width="2.75" height="2.75"/><rect x="25.5" y="36.25" width="2.75" height="2.75"/><rect x="28.25" y="36.25" width="2.75" height="2.75"/><rect x="28.25" y="33.5" width="2.75" height="2.75"/><rect x="28.25" y="30.75" width="2.75" height="2.75"/><rect class="cls-2" x="25.5" y="30.75" width="2.75" height="2.75"/><rect class="cls-2" x="22.75" y="28" width="2.75" height="2.75"/><rect class="cls-2" x="20" y="25.25" width="2.75" height="2.75"/><rect class="cls-2" x="22.75" y="19.75" width="2.75" height="2.75"/><rect class="cls-2" x="22.75" y="17" width="2.75" height="2.75"/><rect class="cls-2" x="20" y="14.25" width="2.75" height="2.75"/><rect class="cls-2" x="22.75" y="11.5" width="2.75" height="2.75"/><rect class="cls-2" x="22.75" y="8.75" width="2.75" height="2.75"/><rect class="cls-2" x="22.75" y="22.5" width="2.75" height="2.75"/><rect class="cls-2" x="25.5" y="33.5" width="2.75" height="2.75"/><rect x="25.5" y="28" width="2.75" height="2.75"/><rect x="22.75" y="25.25" width="2.75" height="2.75"/></svg>