<?xml version="1.0" encoding="utf-8"?>
<!-- Generator: Adobe Illustrator 23.0.1, SVG Export Plug-In . SVG Version: 6.00 Build 0)  -->
<svg version="1.1" id="Calque_1" xmlns="http://www.w3.org/2000/svg" xmlns:xlink="http://www.w3.org/1999/xlink" x="0px" y="0px"
	 viewBox="0 0 40 40" style="enable-background:new 0 0 40 40;" xml:space="preserve">
<style type="text/css">
	.st0{fill:#191919;stroke:#000000;stroke-linecap:round;stroke-linejoin:round;}
	.st1{fill:none;stroke:#000000;stroke-linecap:round;stroke-linejoin:round;}
	.st2{fill-rule:evenodd;clip-rule:evenodd;fill:#191919;stroke:#000000;stroke-linecap:round;stroke-linejoin:round;}
	.st3{opacity:0.3;fill-rule:evenodd;clip-rule:evenodd;fill:#FFFFFF;enable-background:new    ;}
	.st4{fill:#191919;}
	.st5{fill:none;stroke:#FFFFFF;stroke-width:0.5;stroke-linecap:round;stroke-linejoin:round;}
	.st6{fill:none;stroke:#000000;stroke-miterlimit:10;}
	.st7{opacity:0.3;fill:#FFFFFF;enable-background:new    ;}
	.st8{stroke:#EAEAEA;stroke-miterlimit:10;}
</style>
<path class="st0" d="M7.8,36h24.3l0,0v1.7c0,0.7-0.6,1.3-1.3,1.3H9.2c-0.7,0-1.3-0.6-1.3-1.3l0,0L7.8,36L7.8,36z"/>
<line class="st1" x1="20" y1="12.2" x2="20" y2="3"/>
<line class="st1" x1="17.7" y1="5.3" x2="22.3" y2="5.3"/>
<path class="st2" d="M20,26.1l-4.6-10.4c0.6-3.3,1.2-5.8,4.6-5.8s4,2.4,4.6,5.8L20,26.1z"/>
<path class="st3" d="M20.5,9.9c0.7,3.4,0.7,7,0,10.4l3.5-4.6v-3.5L20.5,9.9z"/>
<path class="st2" d="M31.5,13.4C24,13.7,20,19.8,20,22.6v8.1h12.7c0,0,4.5-4.4,5.8-9.3S39,13.1,31.5,13.4z M34.7,21.7
	c-0.7,2.1-1.9,4-3.5,5.5h-7.7v-4.9c0-1.7,2.5-5.3,7-5.5S35.5,18.8,34.7,21.7z"/>
<path class="st2" d="M8.4,13.4c7.5,0.3,11.6,6.4,11.6,9.2v8.1H7.3c0,0-4.5-4.4-5.8-9.3S0.9,13.1,8.4,13.4z M5.3,21.7
	c0.7,2.1,1.9,4,3.5,5.5h7.7v-4.9c0-1.7-2.5-5.3-7-5.5S4.5,18.8,5.3,21.7z"/>
<path class="st3" d="M30.9,13.4c0.3,1.1,0.3,2.3,0,3.5l3.5,1.1v3.5l-2.3,4.6l-1,1.2c0.1,1.2,0.1,2.3-0.2,3.5h2.3l3.5-5.7l2.3-5.8
	v-2.3l-2.3-2.3L30.9,13.4z"/>
<path class="st4" d="M8.3,30.7h23.4c0.6,0,1,0.4,1,1v3.8c0,0.6-0.4,1-1,1H8.3c-0.6,0-1-0.4-1-1v-3.8C7.3,31.2,7.7,30.7,8.3,30.7z"/>
<line class="st5" x1="9.6" y1="36.5" x2="7.3" y2="33.6"/>
<polyline class="st5" points="32.7,35.4 29.2,30.7 25.8,30.7 30.4,36.5 26.9,36.5 22.3,30.7 18.8,30.7 23.5,36.5 20,36.5 15.4,30.7 
	11.9,30.7 16.5,36.5 13.1,36.5 8.4,30.7 "/>
<path class="st3" d="M32.7,36.5h-6.4c1.1-1.8,1-3.7,0-5.8h6.4V36.5z"/>
<path class="st1" d="M23.5,27.3h7.7c1.6-1.6,2.8-3.4,3.5-5.5c0.8-2.9,0.3-5-4.2-4.9s-7,3.8-7,5.5L23.5,27.3z"/>
<path class="st1" d="M32.7,30.7c0,0,4.5-4.4,5.8-9.3s0.6-8.4-6.9-8.1c-2.5,0.1-4.9,0.9-6.9,2.3C24,12.4,23.4,9.9,20,9.9
	s-4,2.4-4.6,5.8l0,0c-2-1.4-4.5-2.2-6.9-2.3c-7.5-0.3-8.2,3.2-6.9,8.1s5.8,9.3,5.8,9.3"/>
<path class="st1" d="M5.3,21.7c0.7,2.1,1.9,4,3.5,5.5h7.7v-4.9c0-1.7-2.5-5.3-7-5.5S4.5,18.8,5.3,21.7z"/>
<path class="st6" d="M8.3,30.7h23.4c0.6,0,1,0.4,1,1v3.8c0,0.6-0.4,1-1,1H8.3c-0.6,0-1-0.4-1-1v-3.8C7.3,31.2,7.7,30.7,8.3,30.7z"/>
<path class="st7" d="M24,37h7.6l0,0v0.7c0,0.4-0.4,0.8-0.8,0.8H24l0,0V37L24,37z"/>
<rect x="10.5" y="7.1" class="st8" width="19" height="17.4"/>
</svg>
