<svg id="Calque_1" data-name="Calque 1" xmlns="http://www.w3.org/2000/svg" viewBox="0 0 40 40"><defs><style>.cls-1{fill:#fff;}.cls-2{opacity:0.3;}</style></defs><rect x="7" y="36.43" width="2.6" height="2.57"/><rect x="9.6" y="36.43" width="2.6" height="2.57"/><rect x="12.2" y="36.43" width="2.6" height="2.57"/><rect x="14.8" y="36.43" width="2.6" height="2.57"/><rect x="17.4" y="36.43" width="2.6" height="2.57"/><rect x="20" y="36.43" width="2.6" height="2.57"/><rect x="22.6" y="36.43" width="2.6" height="2.57"/><rect x="25.2" y="36.43" width="2.6" height="2.57"/><rect x="27.8" y="36.43" width="2.6" height="2.57"/><rect x="30.4" y="36.43" width="2.6" height="2.57"/><rect x="30.4" y="33.86" width="2.6" height="2.57"/><rect x="27.8" y="31.29" width="2.6" height="2.57"/><rect x="25.2" y="31.29" width="2.6" height="2.57"/><rect x="20" y="31.29" width="2.6" height="2.57"/><rect x="22.6" y="31.29" width="2.6" height="2.57"/><rect x="17.4" y="31.29" width="2.6" height="2.57"/><rect x="14.8" y="31.29" width="2.6" height="2.57"/><rect x="12.2" y="31.29" width="2.6" height="2.57"/><rect x="12.2" y="28.71" width="2.6" height="2.57"/><rect x="25.2" y="28.71" width="2.6" height="2.57"/><rect x="27.8" y="26.14" width="2.6" height="2.57"/><rect x="27.8" y="23.57" width="2.6" height="2.57"/><rect x="27.8" y="21" width="2.6" height="2.57"/><rect x="27.8" y="18.43" width="2.6" height="2.57"/><rect x="9.6" y="26.14" width="2.6" height="2.57"/><rect x="9.6" y="23.57" width="2.6" height="2.57"/><rect x="9.6" y="21" width="2.6" height="2.57"/><rect x="9.6" y="18.43" width="2.6" height="2.57"/><rect x="12.2" y="15.86" width="2.6" height="2.57"/><rect x="14.8" y="13.29" width="2.6" height="2.57"/><rect x="17.4" y="10.71" width="2.6" height="2.57"/><rect x="14.8" y="8.14" width="2.6" height="2.57"/><rect x="14.8" y="5.57" width="2.6" height="2.57"/><rect x="17.4" y="3" width="2.6" height="2.57"/><rect x="20" y="3" width="2.6" height="2.57"/><rect x="22.6" y="5.57" width="2.6" height="2.57"/><rect x="22.6" y="8.14" width="2.6" height="2.57"/><rect x="20" y="10.71" width="2.6" height="2.57"/><rect x="22.6" y="13.29" width="2.6" height="2.57"/><rect x="25.2" y="15.86" width="2.6" height="2.57"/><rect x="22.6" y="18.43" width="2.6" height="2.57"/><rect x="20" y="21" width="2.6" height="2.57"/><rect x="9.6" y="31.29" width="2.6" height="2.57"/><rect x="7" y="33.86" width="2.6" height="2.57"/><rect class="cls-1" x="9.6" y="33.86" width="2.6" height="2.57"/><rect class="cls-1" x="12.2" y="33.86" width="2.6" height="2.57"/><rect class="cls-1" x="14.8" y="33.86" width="2.6" height="2.57"/><rect class="cls-1" x="17.4" y="33.86" width="2.6" height="2.57"/><rect class="cls-1" x="20" y="33.86" width="2.6" height="2.57"/><rect class="cls-1" x="22.6" y="33.86" width="2.6" height="2.57"/><rect class="cls-1" x="14.8" y="28.71" width="2.6" height="2.57"/><rect class="cls-1" x="17.4" y="28.71" width="2.6" height="2.57"/><rect class="cls-1" x="20" y="28.71" width="2.6" height="2.57"/><rect class="cls-1" x="22.6" y="28.71" width="2.6" height="2.57"/><rect class="cls-1" x="12.2" y="26.14" width="2.6" height="2.57"/><rect class="cls-1" x="14.8" y="26.14" width="2.6" height="2.57"/><rect class="cls-1" x="17.4" y="26.14" width="2.6" height="2.57"/><rect class="cls-1" x="20" y="26.14" width="2.6" height="2.57"/><rect class="cls-1" x="12.2" y="23.57" width="2.6" height="2.57"/><rect class="cls-1" x="14.8" y="23.57" width="2.6" height="2.57"/><rect class="cls-1" x="17.4" y="23.57" width="2.6" height="2.57"/><rect class="cls-1" x="12.2" y="21" width="2.6" height="2.57"/><rect class="cls-1" x="14.8" y="21" width="2.6" height="2.57"/><rect class="cls-1" x="12.2" y="18.43" width="2.6" height="2.57"/><rect class="cls-1" x="14.8" y="18.43" width="2.6" height="2.57"/><rect class="cls-1" x="17.4" y="18.43" width="2.6" height="2.57"/><rect class="cls-1" x="14.8" y="15.86" width="2.6" height="2.57"/><rect class="cls-1" x="17.4" y="15.86" width="2.6" height="2.57"/><rect class="cls-1" x="20" y="15.86" width="2.6" height="2.57"/><rect class="cls-1" x="17.4" y="13.29" width="2.6" height="2.57"/><rect class="cls-1" x="20" y="13.29" width="2.6" height="2.57"/><rect class="cls-1" x="20" y="23.57" width="2.6" height="2.57"/><rect class="cls-1" x="22.6" y="26.14" width="2.6" height="2.57"/><rect class="cls-1" x="25.2" y="26.14" width="2.6" height="2.57"/><rect class="cls-1" x="22.6" y="23.57" width="2.6" height="2.57"/><rect class="cls-1" x="25.2" y="23.57" width="2.6" height="2.57"/><rect class="cls-1" x="25.2" y="21" width="2.6" height="2.57"/><rect class="cls-1" x="22.6" y="21" width="2.6" height="2.57"/><rect class="cls-1" x="25.2" y="18.43" width="2.6" height="2.57"/><rect class="cls-1" x="25.2" y="33.86" width="2.6" height="2.57"/><rect class="cls-1" x="20" y="5.57" width="2.6" height="2.57"/><rect class="cls-1" x="27.8" y="33.86" width="2.6" height="2.57"/><rect class="cls-1" x="17.4" y="5.57" width="2.6" height="2.57"/><rect class="cls-1" x="20" y="8.14" width="2.6" height="2.57"/><rect class="cls-1" x="17.4" y="8.14" width="2.6" height="2.57"/><rect class="cls-2" x="27.8" y="33.86" width="2.6" height="2.57"/><rect class="cls-2" x="20" y="5.57" width="2.6" height="2.57"/><rect class="cls-2" x="20" y="8.14" width="2.6" height="2.57"/><rect class="cls-2" x="20" y="13.29" width="2.6" height="2.57"/><rect class="cls-2" x="25.2" y="18.43" width="2.6" height="2.57"/><rect class="cls-2" x="25.2" y="23.57" width="2.6" height="2.57"/><rect class="cls-2" x="25.2" y="26.14" width="2.6" height="2.57"/><rect class="cls-2" x="22.6" y="28.71" width="2.6" height="2.57"/><rect class="cls-2" x="25.2" y="21" width="2.6" height="2.57"/><rect class="cls-2" x="25.2" y="33.86" width="2.6" height="2.57"/></svg>