<?xml version="1.0" encoding="utf-8"?>
<!-- Generator: Adobe Illustrator 23.0.1, SVG Export Plug-In . SVG Version: 6.00 Build 0)  -->
<svg version="1.1" id="Calque_1" xmlns="http://www.w3.org/2000/svg" xmlns:xlink="http://www.w3.org/1999/xlink" x="0px" y="0px"
	 viewBox="0 0 40 40" style="enable-background:new 0 0 40 40;" xml:space="preserve">
<style type="text/css">
	.st0{fill-rule:evenodd;clip-rule:evenodd;fill:#FFFFFF;stroke:#000000;stroke-linecap:round;stroke-linejoin:round;}
	.st1{fill:#FFFFFF;stroke:#000000;stroke-linecap:round;stroke-linejoin:round;}
	.st2{opacity:0.3;fill-rule:evenodd;clip-rule:evenodd;enable-background:new    ;}
	.st3{fill:none;stroke:#000000;stroke-width:0.5;stroke-linecap:round;stroke-linejoin:round;}
	.st4{fill:#FFFFFF;stroke:#000000;stroke-miterlimit:10;}
</style>
<path class="st0" d="M7.6,30.3c1.2,0.3,2.3,0.1,2.7-0.6c1.4-2.2,2.9-4.3,4.6-6.2c1.1-0.4,2.2-1,3.1-1.8c1.5-1.4,2.9-2.9,4-4.6
	c0.2-0.3,0.3-0.6,0.5-1c-0.5,1.1-1.2,2.2-2,3.1c-0.2,0,4.3,5.4-1.5,9.5c-6.1,4.3-5.2,8.3-5.2,8.3h21.7C36.4,31.8,35.9,5.2,20,6.8
	C19.5,5,18.6,4.1,17.3,4c-0.2,1.2,0.3,1.9-0.2,3.2l-2.6,0.4c-0.1-0.5-0.3-0.9-0.5-1.3c-0.6-1.1-1.9-1.6-3-1.1
	c-0.6,0.4,0.6,1.2,0.8,2.5c0,0.1-0.2,0.2-0.1,0.3c-4.3,4.4-7.9,14.7-8,14.9c-1.3,2.2-0.6,5.1,1.6,6.4c0.1,0.1,0.3,0.2,0.4,0.2l2,0.8
	"/>
<path class="st1" d="M13.6,36.9h22.1c0.5,0,0.8,0.4,0.8,0.8v0.4c0,0.5-0.4,0.8-0.8,0.8H13.6c-0.5,0-0.9-0.4-0.9-0.8v-0.4
	C12.8,37.3,13.1,36.9,13.6,36.9z"/>
<ellipse transform="matrix(0.5786 -0.8156 0.8156 0.5786 -17.3347 15.0409)" cx="5.9" cy="24.3" rx="1.2" ry="0.5"/>
<path class="st2" d="M20.4,6.5l5.4,0.8l5,4.5l3.1,6.9l1.9,11.7l-0.2,6.2L35,36.9h-2c1.8-1.1,2.2-27.2-12.4-30.1L20.4,6.5"/>
<line class="st3" x1="22.5" y1="6.8" x2="22.2" y2="9.1"/>
<line class="st3" x1="24.3" y1="7.2" x2="23.8" y2="9.4"/>
<line class="st3" x1="26.1" y1="7.8" x2="25.2" y2="9.9"/>
<line class="st3" x1="27.7" y1="8.8" x2="26.5" y2="10.7"/>
<line class="st3" x1="29.1" y1="10" x2="27.6" y2="11.7"/>
<line class="st3" x1="30.4" y1="11.5" x2="28.6" y2="12.8"/>
<line class="st3" x1="31.5" y1="13" x2="29.4" y2="14"/>
<line class="st3" x1="32.2" y1="14.5" x2="30.1" y2="15.4"/>
<line class="st3" x1="32.9" y1="16.1" x2="30.8" y2="16.8"/>
<line class="st3" x1="33.6" y1="17.8" x2="31.3" y2="18.2"/>
<line class="st3" x1="34.2" y1="19.7" x2="31.9" y2="19.9"/>
<line class="st3" x1="34.6" y1="21.6" x2="32.3" y2="21.7"/>
<line class="st3" x1="35" y1="23.5" x2="32.7" y2="23.5"/>
<line class="st3" x1="35.2" y1="25.1" x2="33" y2="25.1"/>
<line class="st3" x1="35.4" y1="26.7" x2="33.1" y2="26.7"/>
<line class="st3" x1="35.6" y1="28.3" x2="33.3" y2="28.3"/>
<line class="st3" x1="35.7" y1="29.9" x2="33.4" y2="29.9"/>
<line class="st3" x1="35.8" y1="31.4" x2="33.5" y2="31.4"/>
<line class="st3" x1="35.8" y1="33.4" x2="33.5" y2="33.3"/>
<line class="st3" x1="35.7" y1="35.1" x2="33.4" y2="35"/>
<path class="st2" d="M11.3,5.9v-1h1c1.1,0.7,2,1.8,2.3,3.1l-0.3,0.1C13.8,7.4,12,5.4,11.3,5.9z"/>
<path class="st2" d="M17.1,5.1v-1h1c1.1,0.7,1.9,1.8,2.3,3.1l-0.6,0.2C19.8,7.3,17.8,4.6,17.1,5.1z"/>
<path class="st2" d="M30.1,36.9h5.1l1.3,0.5v1.2L35.6,39h-5.6C30.1,39,31.6,37.9,30.1,36.9z"/>
<path class="st2" d="M8.8,29.1l4.9-6.3c0,0,4.2-0.8,8.4-7.2l0.2,0.4l-2,3.1l-2,2.5l-2.9,1.8l-0.9,0.3l-4.7,6.2l-1.3,0.3l-1-0.1
	L8.8,29.1z"/>
<ellipse transform="matrix(0.5 -0.866 0.866 0.5 -5.8773 16.7378)" cx="11.6" cy="13.5" rx="2.2" ry="1.1"/>
<rect x="8.5" y="10.9" class="st4" width="6.2" height="5.2"/>
<rect x="3.5" y="25.8" class="st4" width="7.4" height="4.1"/>
<rect x="14.6" y="3.4" class="st4" width="9.2" height="4.9"/>
</svg>
