<svg id="Calque_1" data-name="Calque 1" xmlns="http://www.w3.org/2000/svg" viewBox="0 0 40 40"><defs><style>.cls-1{fill:#191919;}.cls-2{fill:#1a1a1a;}.cls-3{fill:#fff;opacity:0.3;}</style></defs><rect x="6" y="36.45" width="2.55" height="2.55"/><rect x="8.55" y="36.45" width="2.55" height="2.55"/><rect x="11.09" y="36.45" width="2.55" height="2.55"/><rect x="13.64" y="36.45" width="2.55" height="2.55"/><rect x="16.18" y="36.45" width="2.55" height="2.55"/><rect x="18.73" y="36.45" width="2.55" height="2.55"/><rect x="21.27" y="36.45" width="2.55" height="2.55"/><rect x="23.82" y="36.45" width="2.55" height="2.55"/><rect x="26.36" y="36.45" width="2.55" height="2.55"/><rect x="28.91" y="36.45" width="2.55" height="2.55"/><rect x="31.45" y="36.45" width="2.55" height="2.55"/><rect x="31.45" y="33.91" width="2.55" height="2.55"/><rect x="28.91" y="31.36" width="2.55" height="2.55"/><rect x="26.36" y="28.82" width="2.55" height="2.55"/><rect x="23.82" y="26.27" width="2.55" height="2.55"/><rect x="6" y="33.91" width="2.55" height="2.55"/><rect x="8.55" y="31.36" width="2.55" height="2.55"/><rect x="11.09" y="31.36" width="2.55" height="2.55"/><rect x="13.64" y="31.36" width="2.55" height="2.55"/><rect x="16.18" y="31.36" width="2.55" height="2.55"/><rect x="18.73" y="31.36" width="2.55" height="2.55"/><rect x="23.82" y="31.36" width="2.55" height="2.55"/><rect x="26.36" y="31.36" width="2.55" height="2.55"/><rect x="21.27" y="31.36" width="2.55" height="2.55"/><rect x="11.09" y="28.82" width="2.55" height="2.55"/><rect x="13.64" y="26.27" width="2.55" height="2.55"/><rect x="13.64" y="23.73" width="2.55" height="2.55"/><rect x="13.64" y="21.18" width="2.55" height="2.55"/><rect x="13.64" y="18.64" width="2.55" height="2.55"/><rect x="23.82" y="23.73" width="2.55" height="2.55"/><rect x="23.82" y="21.18" width="2.55" height="2.55"/><rect x="23.82" y="18.64" width="2.55" height="2.55"/><rect x="26.36" y="16.09" width="2.55" height="2.55"/><rect x="28.91" y="13.55" width="2.55" height="2.55"/><rect x="28.91" y="11" width="2.55" height="2.55"/><rect x="11.09" y="16.09" width="2.55" height="2.55"/><rect x="8.55" y="13.55" width="2.55" height="2.55"/><rect x="8.55" y="11" width="2.55" height="2.55"/><rect x="11.09" y="13.55" width="2.55" height="2.55"/><rect x="13.64" y="13.55" width="2.55" height="2.55"/><rect x="16.18" y="13.55" width="2.55" height="2.55"/><rect x="18.73" y="13.55" width="2.55" height="2.55"/><rect x="21.27" y="13.55" width="2.55" height="2.55"/><rect x="23.82" y="13.55" width="2.55" height="2.55"/><rect x="26.36" y="13.55" width="2.55" height="2.55"/><rect x="16.18" y="18.64" width="2.55" height="2.55"/><rect x="18.73" y="18.64" width="2.55" height="2.55"/><rect x="21.27" y="18.64" width="2.55" height="2.55"/><rect x="8.55" y="5.91" width="2.55" height="2.55"/><rect x="8.55" y="8.45" width="2.55" height="2.55"/><rect x="13.64" y="8.45" width="2.55" height="2.55"/><rect x="16.18" y="8.45" width="2.55" height="2.55"/><rect x="18.73" y="8.45" width="2.55" height="2.55"/><rect x="26.36" y="3.36" width="2.55" height="2.55"/><rect x="28.91" y="8.45" width="2.55" height="2.55"/><rect x="8.55" y="3.36" width="2.55" height="2.55"/><rect x="11.09" y="3.36" width="2.55" height="2.55"/><rect x="13.64" y="3.36" width="2.55" height="2.55"/><rect x="13.64" y="5.91" width="2.55" height="2.55"/><rect x="21.27" y="3.36" width="2.55" height="2.55"/><rect x="18.73" y="3.36" width="2.55" height="2.55"/><rect x="18.73" y="5.91" width="2.55" height="2.55"/><rect x="23.82" y="3.36" width="2.55" height="2.55"/><rect x="28.91" y="3.36" width="2.55" height="2.55"/><rect x="28.91" y="5.91" width="2.55" height="2.55"/><rect class="cls-1" x="11.09" y="5.91" width="2.55" height="2.55"/><rect class="cls-1" x="11.09" y="11" width="2.55" height="2.55"/><rect class="cls-1" x="11.09" y="8.45" width="2.55" height="2.55"/><rect class="cls-1" x="21.27" y="5.91" width="2.55" height="2.55"/><rect class="cls-1" x="21.27" y="11" width="2.55" height="2.55"/><rect class="cls-1" x="21.27" y="8.45" width="2.55" height="2.55"/><rect class="cls-1" x="23.82" y="5.91" width="2.55" height="2.55"/><rect class="cls-1" x="23.82" y="11" width="2.55" height="2.55"/><rect class="cls-1" x="18.73" y="11" width="2.55" height="2.55"/><rect class="cls-1" x="16.18" y="11" width="2.55" height="2.55"/><rect class="cls-1" x="13.64" y="11" width="2.55" height="2.55"/><rect class="cls-2" x="16.18" y="21.18" width="2.55" height="2.55"/><rect class="cls-2" x="18.73" y="21.18" width="2.55" height="2.55"/><rect class="cls-2" x="18.73" y="23.73" width="2.55" height="2.55"/><rect class="cls-2" x="16.18" y="23.73" width="2.55" height="2.55"/><rect class="cls-2" x="21.27" y="23.73" width="2.55" height="2.55"/><rect class="cls-2" x="18.73" y="26.27" width="2.55" height="2.55"/><rect class="cls-2" x="16.18" y="26.27" width="2.55" height="2.55"/><rect class="cls-2" x="21.27" y="26.27" width="2.55" height="2.55"/><rect class="cls-1" x="28.91" y="33.91" width="2.55" height="2.55"/><rect class="cls-1" x="26.36" y="33.91" width="2.55" height="2.55"/><rect class="cls-1" x="11.09" y="33.91" width="2.55" height="2.55"/><rect class="cls-1" x="8.55" y="33.91" width="2.55" height="2.55"/><rect class="cls-2" x="21.27" y="21.18" width="2.55" height="2.55"/><rect class="cls-1" x="21.27" y="16.09" width="2.55" height="2.55"/><rect class="cls-1" x="23.82" y="16.09" width="2.55" height="2.55"/><rect class="cls-1" x="18.73" y="16.09" width="2.55" height="2.55"/><rect class="cls-1" x="16.18" y="16.09" width="2.55" height="2.55"/><rect class="cls-1" x="13.64" y="16.09" width="2.55" height="2.55"/><rect class="cls-2" x="21.27" y="28.82" width="2.55" height="2.55"/><rect class="cls-1" x="23.82" y="28.82" width="2.55" height="2.55"/><rect class="cls-2" x="18.73" y="28.82" width="2.55" height="2.55"/><rect class="cls-2" x="16.18" y="28.82" width="2.55" height="2.55"/><rect class="cls-1" x="13.64" y="28.82" width="2.55" height="2.55"/><rect class="cls-1" x="21.27" y="33.91" width="2.55" height="2.55"/><rect class="cls-1" x="23.82" y="33.91" width="2.55" height="2.55"/><rect class="cls-1" x="18.73" y="33.91" width="2.55" height="2.55"/><rect class="cls-1" x="16.18" y="33.91" width="2.55" height="2.55"/><rect class="cls-1" x="13.64" y="33.91" width="2.55" height="2.55"/><rect class="cls-1" x="23.82" y="8.45" width="2.55" height="2.55"/><rect class="cls-1" x="26.36" y="5.91" width="2.55" height="2.55"/><rect class="cls-1" x="26.36" y="11" width="2.55" height="2.55"/><rect class="cls-1" x="26.36" y="8.45" width="2.55" height="2.55"/><rect class="cls-3" x="26.36" y="5.91" width="2.55" height="2.55"/><rect class="cls-3" x="26.36" y="8.45" width="2.55" height="2.55"/><rect class="cls-3" x="26.36" y="11" width="2.55" height="2.55"/><rect class="cls-3" x="23.82" y="16.09" width="2.55" height="2.55"/><rect class="cls-3" x="21.27" y="21.18" width="2.55" height="2.55"/><rect class="cls-3" x="21.27" y="23.73" width="2.55" height="2.55"/><rect class="cls-3" x="21.27" y="26.27" width="2.55" height="2.55"/><rect class="cls-3" x="23.82" y="28.82" width="2.55" height="2.55"/><rect class="cls-3" x="28.91" y="33.91" width="2.55" height="2.55"/><rect class="cls-3" x="26.36" y="33.91" width="2.55" height="2.55"/></svg>