<svg id="Calque_1" data-name="Calque 1" xmlns="http://www.w3.org/2000/svg" viewBox="0 0 40 40"><defs><style>.cls-1{fill:#fff;stroke:#000;stroke-miterlimit:10;}.cls-2{opacity:0.3;}.cls-3{opacity:0.3;}</style></defs><path class="cls-1" d="M23.78,27.83A5.82,5.82,0,0,0,26.48,23a5.9,5.9,0,0,0-3.54-5.3,4.1,4.1,0,0,0,1.24-2.93,4,4,0,0,0-.26-1.39,1.83,1.83,0,1,0-2-2.25,4.18,4.18,0,0,0-1.9-.48,4.13,4.13,0,0,0-4.14,4.12,4.06,4.06,0,0,0,1.24,2.93A5.9,5.9,0,0,0,13.6,23a5.82,5.82,0,0,0,2.7,4.83A11.85,11.85,0,0,0,9,39H31.08A11.86,11.86,0,0,0,23.78,27.83Z"/><path class="cls-2" d="M22.53,14.77a3.38,3.38,0,0,1-1.14,2.86c.24.05.59.16.82.23a3.75,3.75,0,0,0,1.51-3.09A3.67,3.67,0,0,0,20,11.11a3.8,3.8,0,0,0-.46.05A3.41,3.41,0,0,1,22.53,14.77Z"/><path class="cls-2" d="M22.47,17.57a2.52,2.52,0,0,1-.3.27c1.82,1,2.42,2.93,2.42,5.16a5.53,5.53,0,0,1-2.35,4.73,4.47,4.47,0,0,0,1,.29c2-.28,2.79-2.91,2.79-5A5.85,5.85,0,0,0,22.47,17.57Z"/><path class="cls-2" d="M23.23,28c-.07.13,0,0-1-.29,3.58,2,5.91,7.78,5.48,9.62-.11.45,0,1.34-.37,1.65h3.28a15.94,15.94,0,0,0-.12-1.84A11.66,11.66,0,0,0,23.23,28Z"/><path class="cls-3" d="M23.72,10.2a1.35,1.35,0,0,0-1.17.66,2.73,2.73,0,0,1,.72-.3c.77-.19,1.49.48,1.48,1.46a1.5,1.5,0,0,1-.31.72,1.37,1.37,0,0,0-.72-2.54Z"/></svg>