<svg id="Calque_1" data-name="Calque 1" xmlns="http://www.w3.org/2000/svg" viewBox="0 0 40 40"><defs><style>.cls-1{fill:#191919;}.cls-2,.cls-3{fill:#fff;}.cls-2{opacity:0.3;}.cls-3{opacity:0.3;}.cls-4{fill:none;stroke:#000;stroke-miterlimit:10;}</style></defs><path class="cls-1" d="M33,39a13.71,13.71,0,0,0-8.37-12.91,6.72,6.72,0,0,0,3.1-5.58,6.84,6.84,0,0,0-4.06-6.12,4.65,4.65,0,0,0,1.12-5,2.11,2.11,0,1,0-2.27-2.6A4.74,4.74,0,0,0,17,14.39a6.86,6.86,0,0,0-4,5.71A5.51,5.51,0,0,0,11.9,20a5.27,5.27,0,0,0-1.37,10.36A14.34,14.34,0,0,0,7.68,39Z"/><path class="cls-2" d="M23.2,11a4,4,0,0,1-1.31,3.31c.27.06.67.19.94.27A4.35,4.35,0,0,0,24.56,11a4.22,4.22,0,0,0-4.22-4.22,4.75,4.75,0,0,0-.53,0A4,4,0,0,1,23.2,11Z"/><path class="cls-2" d="M23.13,14.24a3.38,3.38,0,0,1-.35.31c2.09,1.18,2.78,3.39,2.78,6A6.39,6.39,0,0,1,22.85,26a5.13,5.13,0,0,0,1.15.33c2.25-.32,3.2-3.35,3.2-5.8A6.77,6.77,0,0,0,23.13,14.24Z"/><path class="cls-2" d="M24,26.31c-.08.15,0,0-1.15-.33,4.11,2.3,6.79,9,6.29,11.11-.12.53,0,1.55-.42,1.91h3.76a18.73,18.73,0,0,0-.14-2.13A13.48,13.48,0,0,0,24,26.31Z"/><path class="cls-3" d="M24.56,5.72a1.58,1.58,0,0,0-1.35.77A2.79,2.79,0,0,1,24,6.15c.88-.23,1.71.55,1.7,1.68a1.82,1.82,0,0,1-.36.83,1.59,1.59,0,0,0-.82-2.94Z"/><path class="cls-3" d="M6.49,26.38s2.12,4.76,4.74,4.76a4.75,4.75,0,0,0,3.84-2,4.72,4.72,0,0,1-2.78.91c-2.62,0-5.11-1.87-5.11-4.49"/><path class="cls-3" d="M13.61,19.62a4.72,4.72,0,0,1,2.51,3.51,4.72,4.72,0,0,0-8.44,0l.5-1.32,2.6-1.39,2.46-.77Z"/><path class="cls-4" d="M33,39a13.71,13.71,0,0,0-8.37-12.91,6.72,6.72,0,0,0,3.1-5.58,6.84,6.84,0,0,0-4.06-6.12,4.65,4.65,0,0,0,1.12-5,2.11,2.11,0,1,0-2.27-2.6A4.74,4.74,0,0,0,17,14.39a6.86,6.86,0,0,0-4,5.71A5.51,5.51,0,0,0,11.9,20a5.27,5.27,0,0,0-1.37,10.36A14.34,14.34,0,0,0,7.68,39Z"/></svg>