<svg id="Calque_1" data-name="Calque 1" xmlns="http://www.w3.org/2000/svg" viewBox="0 0 40 40"><defs><style>.cls-1{fill:#191919;}.cls-2,.cls-3{fill:#fff;}.cls-2{opacity:0.3;}.cls-3{opacity:0.3;}.cls-4{fill:none;stroke:#000;stroke-miterlimit:10;}</style></defs><path class="cls-1" d="M37.26,31.23a4.14,4.14,0,0,0-4.14-4.14A4.09,4.09,0,0,0,30,28.56a14.38,14.38,0,0,0-5.65-4.09,7.52,7.52,0,0,0,3.46-6.24,7.65,7.65,0,0,0-4.54-6.86,5.28,5.28,0,0,0,1.59-3.78,5.1,5.1,0,0,0-.34-1.8A2.36,2.36,0,1,0,22,2.88a5.31,5.31,0,0,0-6.17,8.49,7.66,7.66,0,0,0-4.51,6.39,6.16,6.16,0,0,0-1.22-.12A5.9,5.9,0,0,0,8.53,29.23a16.06,16.06,0,0,0-3.19,9.69H33.71a16.69,16.69,0,0,0-.38-3.57A4.12,4.12,0,0,0,37.26,31.23Z"/><path class="cls-2" d="M22.73,7.59a4.42,4.42,0,0,1-1.47,3.7c.31.06.75.21,1,.29a4.84,4.84,0,0,0,2-4,4.73,4.73,0,0,0-4.73-4.73,3.68,3.68,0,0,0-.59.06A4.42,4.42,0,0,1,22.73,7.59Z"/><path class="cls-2" d="M22.65,11.21c-.15.12-.22.24-.38.35,2.33,1.31,3.1,3.79,3.1,6.67a7.16,7.16,0,0,1-3,6.12,6.26,6.26,0,0,0,1.29.37c2.52-.36,3.58-3.76,3.58-6.49A7.58,7.58,0,0,0,22.65,11.21Z"/><path class="cls-2" d="M23.63,24.72c-.09.16-.05,0-1.29-.37C27,26.92,30,34.41,29.39,36.78c-.14.59,0,1.73-.48,2.14h4.22A21,21,0,0,0,33,36.53,15.09,15.09,0,0,0,23.63,24.72Z"/><path class="cls-3" d="M24.26,1.68a1.75,1.75,0,0,0-1.51.85,3.43,3.43,0,0,1,.92-.38c1-.25,1.92.62,1.91,1.88a2.1,2.1,0,0,1-.4.93,1.77,1.77,0,0,0-.92-3.28Z"/><path class="cls-3" d="M35.59,28.5a3.53,3.53,0,0,0-3-.72,2.75,2.75,0,0,1,2.17.8,5,5,0,0,1,.47,5,2.73,2.73,0,0,1-2,1.19,3.53,3.53,0,0,0,2.36-6.26Z"/><path class="cls-3" d="M4,24.8s2.38,5.32,5.32,5.32a5.32,5.32,0,0,0,4.3-2.21,5.28,5.28,0,0,1-3.12,1c-2.94,0-5.73-2.1-5.73-5"/><path class="cls-3" d="M12,17.23a5.3,5.3,0,0,1,2.82,3.92,5.31,5.31,0,0,0-9.47,0l.57-1.48,2.91-1.55,2.75-.86Z"/><path class="cls-4" d="M37.26,31.23a4.14,4.14,0,0,0-4.14-4.14A4.09,4.09,0,0,0,30,28.56a14.38,14.38,0,0,0-5.65-4.09,7.52,7.52,0,0,0,3.46-6.24,7.65,7.65,0,0,0-4.54-6.86,5.28,5.28,0,0,0,1.59-3.78,5.1,5.1,0,0,0-.34-1.8A2.36,2.36,0,1,0,22,2.88a5.31,5.31,0,0,0-6.17,8.49,7.66,7.66,0,0,0-4.51,6.39,6.16,6.16,0,0,0-1.22-.12A5.9,5.9,0,0,0,8.53,29.23a16.06,16.06,0,0,0-3.19,9.69H33.71a16.69,16.69,0,0,0-.38-3.57A4.12,4.12,0,0,0,37.26,31.23Z"/></svg>