<svg id="Calque_1" data-name="Calque 1" xmlns="http://www.w3.org/2000/svg" viewBox="0 0 40 40"><defs><style>.cls-1{fill:#191919;}.cls-2,.cls-3{fill:#fff;}.cls-2{opacity:0.3;}.cls-3{opacity:0.3;}.cls-4{fill:none;stroke:#000;stroke-miterlimit:10;}</style></defs><path class="cls-1" d="M23.79,27.83A5.8,5.8,0,0,0,26.49,23,5.91,5.91,0,0,0,23,17.69a4,4,0,0,0,1-4.32,1.83,1.83,0,1,0-2-2.24,4.06,4.06,0,0,0-1.9-.48,4.12,4.12,0,0,0-4.14,4.11,4,4,0,0,0,1.24,2.93A5.91,5.91,0,0,0,13.61,23a5.82,5.82,0,0,0,2.7,4.84A11.85,11.85,0,0,0,9,39H31.09A11.85,11.85,0,0,0,23.79,27.83Z"/><path class="cls-2" d="M22.55,14.76a3.42,3.42,0,0,1-1.15,2.87,7.06,7.06,0,0,1,.82.23,3.74,3.74,0,0,0,1.52-3.1,3.66,3.66,0,0,0-3.68-3.65,3.42,3.42,0,0,0-.46,0A3.43,3.43,0,0,1,22.55,14.76Z"/><path class="cls-2" d="M22.49,17.56a4,4,0,0,1-.3.28c1.82,1,2.42,2.93,2.42,5.15a5.52,5.52,0,0,1-2.36,4.74,4.72,4.72,0,0,0,1,.29c2-.28,2.79-2.91,2.79-5A5.87,5.87,0,0,0,22.49,17.56Z"/><path class="cls-2" d="M23.25,28c-.07.12,0,0-1-.29,3.58,2,5.92,7.78,5.48,9.62-.1.45,0,1.34-.37,1.65h3.28a16,16,0,0,0-.11-1.84A11.7,11.7,0,0,0,23.25,28Z"/><path class="cls-3" d="M23.74,10.19a1.39,1.39,0,0,0-1.18.66,2.42,2.42,0,0,1,.72-.29c.77-.19,1.5.47,1.48,1.46a1.46,1.46,0,0,1-.31.71,1.37,1.37,0,0,0-.71-2.54Z"/><path class="cls-4" d="M23.79,27.83A5.8,5.8,0,0,0,26.49,23,5.91,5.91,0,0,0,23,17.69a4,4,0,0,0,1-4.32,1.83,1.83,0,1,0-2-2.24,4.06,4.06,0,0,0-1.9-.48,4.12,4.12,0,0,0-4.14,4.11,4,4,0,0,0,1.24,2.93A5.91,5.91,0,0,0,13.61,23a5.82,5.82,0,0,0,2.7,4.84A11.85,11.85,0,0,0,9,39H31.09A11.85,11.85,0,0,0,23.79,27.83Z"/></svg>