<svg id="Calque_1" data-name="Calque 1" xmlns="http://www.w3.org/2000/svg" viewBox="0 0 40 40"><defs><style>.cls-1{fill:#fff;stroke:#000;stroke-miterlimit:10;}.cls-2{opacity:0.3;}.cls-3{opacity:0.3;}</style></defs><path class="cls-1" d="M37.21,31.24a4.16,4.16,0,0,0-7.34-2.69,14.37,14.37,0,0,0-5.7-4.13A8.07,8.07,0,0,0,26.54,22a5.47,5.47,0,0,0,1.73.31,5.37,5.37,0,1,0-3.14-9.72,8.29,8.29,0,0,0-2.05-1.38,5.33,5.33,0,0,0,1.61-3.82,5.49,5.49,0,0,0-.34-1.82,2.38,2.38,0,1,0-2.57-2.92A5.26,5.26,0,0,0,19.32,2a5.37,5.37,0,0,0-3.77,9.19A7.74,7.74,0,0,0,11,17.65a6.26,6.26,0,0,0-1.23-.13,6,6,0,0,0-1.55,11.7A16.22,16.22,0,0,0,5,39H33.63a16.35,16.35,0,0,0-.39-3.6A4.17,4.17,0,0,0,37.21,31.24Z"/><path class="cls-2" d="M22.55,7.38a4.44,4.44,0,0,1-1.49,3.74c.32.06.77.21,1.07.3a4.91,4.91,0,0,0,2-4,4.78,4.78,0,0,0-4.77-4.77,3.93,3.93,0,0,0-.6.06A4.47,4.47,0,0,1,22.55,7.38Z"/><path class="cls-2" d="M22.47,11a4.38,4.38,0,0,1-.39.36c2.36,1.33,3.13,3.83,3.13,6.73a7.24,7.24,0,0,1-3.05,6.18,5.7,5.7,0,0,0,1.29.37c2.55-.36,3.62-3.79,3.62-6.55A7.65,7.65,0,0,0,22.47,11Z"/><path class="cls-2" d="M23.45,24.67c-.09.17-.05,0-1.29-.37,4.64,2.59,7.67,10.15,7.11,12.55-.14.59,0,1.74-.48,2.15H33a19.25,19.25,0,0,0-.15-2.41A15.25,15.25,0,0,0,23.45,24.67Z"/><path class="cls-3" d="M24.09,1.42a1.76,1.76,0,0,0-1.52.86,3.08,3.08,0,0,1,.93-.38c1-.26,1.94.62,1.92,1.9a2,2,0,0,1-.4.93,1.81,1.81,0,0,0,.86-1.53A1.79,1.79,0,0,0,24.09,1.42Z"/><path class="cls-3" d="M31.09,12.11a5.35,5.35,0,0,0-4.84-.6,5.28,5.28,0,0,1,3.18.91,5.37,5.37,0,0,1,1.41,7.46,5.28,5.28,0,0,1-2.62,2,5.36,5.36,0,0,0,2.87-9.79Z"/><path class="cls-3" d="M35.52,28.49a3.54,3.54,0,0,0-3-.73,2.75,2.75,0,0,1,2.19.81,5.09,5.09,0,0,1,.47,5,2.76,2.76,0,0,1-2,1.19A3.54,3.54,0,0,0,36,33.53,3.58,3.58,0,0,0,35.52,28.49Z"/><path class="cls-3" d="M3.65,24.75S6.05,30.12,9,30.12a5.35,5.35,0,0,0,4.34-2.23,5.26,5.26,0,0,1-3.14,1c-3,0-5.79-2.11-5.79-5.08"/><path class="cls-3" d="M11.7,17.11a5.34,5.34,0,0,1,2.84,4,5.32,5.32,0,0,0-2.32-2.35A5.38,5.38,0,0,0,5,21l.57-1.49L8.5,18l2.78-.87Z"/></svg>