<svg id="Calque_1" data-name="Calque 1" xmlns="http://www.w3.org/2000/svg" viewBox="0 0 40 40"><defs><style>.cls-1{fill:#fff;stroke:#000;stroke-miterlimit:10;}.cls-2{opacity:0.3;}.cls-3{opacity:0.3;}</style></defs><path class="cls-1" d="M32.51,39a13.7,13.7,0,0,0-8.36-12.89,6.71,6.71,0,0,0,3.09-5.57,6.81,6.81,0,0,0-4.06-6.12A4.7,4.7,0,0,0,24.6,11a4.5,4.5,0,0,0-.3-1.6A2.11,2.11,0,1,0,22,6.83a4.73,4.73,0,0,0-5.5,7.57,6.85,6.85,0,0,0-4,5.7A5.49,5.49,0,0,0,11.42,20,5.26,5.26,0,0,0,10,30.33,14.37,14.37,0,0,0,7.2,39Z"/><path class="cls-2" d="M22.71,11a4,4,0,0,1-1.31,3.31c.28.05.67.18.94.26A4.33,4.33,0,0,0,24.07,11,4.22,4.22,0,0,0,19.85,6.8a3,3,0,0,0-.52.06A3.94,3.94,0,0,1,22.71,11Z"/><path class="cls-2" d="M22.64,14.25a3.4,3.4,0,0,1-.34.32c2.08,1.17,2.77,3.38,2.77,5.95A6.4,6.4,0,0,1,22.37,26a4.9,4.9,0,0,0,1.14.33c2.25-.32,3.2-3.35,3.2-5.79A6.77,6.77,0,0,0,22.64,14.25Z"/><path class="cls-2" d="M23.51,26.31c-.08.15,0,0-1.14-.33,4.1,2.29,6.78,9,6.28,11.09-.12.53,0,1.55-.42,1.91H32a18.74,18.74,0,0,0-.13-2.13A13.48,13.48,0,0,0,23.51,26.31Z"/><path class="cls-3" d="M24.07,5.75a1.57,1.57,0,0,0-1.34.76,3.15,3.15,0,0,1,.82-.34c.89-.22,1.72.55,1.7,1.68a1.72,1.72,0,0,1-.36.83,1.58,1.58,0,0,0-.82-2.93Z"/><path class="cls-3" d="M6,26.38s2.13,4.75,4.75,4.75a4.72,4.72,0,0,0,3.83-2,4.7,4.7,0,0,1-2.78.91c-2.62,0-5.11-1.86-5.11-4.49"/><path class="cls-3" d="M13.12,19.63a4.74,4.74,0,0,1,2.52,3.5,4.74,4.74,0,0,0-8.45,0l.51-1.32,2.59-1.39,2.46-.76Z"/></svg>