<?xml version="1.0" encoding="utf-8"?>
<!-- Generator: Adobe Illustrator 23.0.1, SVG Export Plug-In . SVG Version: 6.00 Build 0)  -->
<svg version="1.1" id="Layer_1" xmlns="http://www.w3.org/2000/svg" xmlns:xlink="http://www.w3.org/1999/xlink" x="0px" y="0px"
	 viewBox="0 0 45 45" style="enable-background:new 0 0 45 45;" xml:space="preserve">
<style type="text/css">
	.st0{fill:#FFFFFF;stroke:#000000;stroke-miterlimit:10;}
	.st1{fill:none;stroke:#000000;stroke-miterlimit:10;}
</style>
<path class="st0" d="M10.3,36.3c-0.5-2,2.9-2.9,5.7-9.5c1.3-3.1,2.4-5.5,2.7-8.9c0.3-2.9-0.2-4.5,1-5.7c1.7-1.7,5.4-1.6,5.8-0.6
	c0.1,0.2-0.1,0.5-0.1,0.6c-0.9,1.7,0,4.2,0.6,6.2c1.6,5.5,0.8,5.8,2.3,9.6c2.4,6,5.1,6.8,4.6,8.6C31.6,41,11.6,40.8,10.3,36.3z"/>
<polygon class="st1" points="17.2,6.8 17.2,1.8 19,3.6 20.8,1.3 22.1,4 25.1,1.3 25.1,6 "/>
</svg>
