<svg id="Calque_1" data-name="Calque 1" xmlns="http://www.w3.org/2000/svg" viewBox="0 0 40 40"><defs><style>.cls-1{fill:#fff;stroke-miterlimit:10;}.cls-1,.cls-2,.cls-6{stroke:#000;}.cls-2{fill:#878787;}.cls-2,.cls-6{stroke-linecap:round;stroke-linejoin:round;}.cls-2,.cls-3,.cls-4,.cls-5{fill-rule:evenodd;}.cls-3,.cls-5{opacity:0.3;}.cls-4,.cls-5{fill:#5ff0ff;}.cls-6{fill:#8c6341;}.cls-7{opacity:0.3;}</style></defs><path class="cls-1" d="M26.69,27.06c0-5,.25-11.72,1.7-12.43-9.49-3.94-18.27,5.2-14.33,5.72,2.32.31-.23,15.72-2.79,17.31l3.17,0L13,37.15a21.42,21.42,0,0,0,3.35-3.85,7.71,7.71,0,0,1-.84,4.39l4.15,0a11.81,11.81,0,0,1,1.79-4.45c-.07,1.05,1.46,3,2.11,4.47l5.95,0C30.3,37.79,26.75,33.31,26.69,27.06Z"/><path class="cls-2" d="M33.35,14.77c.42-.5,4.28,1.83,3.31,4.26-.8-1-3.51-2.79-5.68-2.13Z"/><path class="cls-2" d="M2.92,8.76c10.16,0,18,2.41,25.68,7.43l.55-1a1.21,1.21,0,0,1,1.66-.44,1.2,1.2,0,0,1,.44,1.65l-.64,1.12c.84.6,1.69,1.23,2.54,1.89l1.54-4.6C26.27,6.4,15.86,7.74,2.92,8.76Z"/><path class="cls-3" d="M22.36,25.71l4-4.24.41,7.36,1.83,6.42V38H23.55S24.9,35.08,22.36,25.71Z"/><path class="cls-1" d="M28.54,11.93s1.48,5.43,0,9.14c0,0-4.58,6-6.57,7.1l-1.92,2.22a6.73,6.73,0,0,0-3-3.33c-5.86-3.17-6.17-11.72-6.17-11.72A11.17,11.17,0,0,1,12,12c1.67-2.77,6.21-6.94,6.21-6.94s2.22-2.27,4.33-2.44c0,0-1.07,2.3,2.29,4.19A10.08,10.08,0,0,1,28.54,11.93Z"/><path d="M20.33,26.72a18.9,18.9,0,0,1-7.44-9.46c-.61-1.74,1.16-3.82,1.59-4.09,2.08-2.09,5.64-2,5.85-2s3.77-.1,5.86,2a4.77,4.77,0,0,1,1.59,4.09A24.33,24.33,0,0,1,20.33,26.72Z"/><path class="cls-4" d="M14.72,16a4.67,4.67,0,0,0,4.7,1.6A4.66,4.66,0,0,0,14.72,16Z"/><path class="cls-5" d="M14.5,16.86a4.86,4.86,0,0,0,4.63,1.61A9.85,9.85,0,0,1,14.5,16.86Z"/><path class="cls-4" d="M25.9,16a4.67,4.67,0,0,1-4.7,1.59A4.67,4.67,0,0,1,25.9,16Z"/><path class="cls-5" d="M26.12,16.86a4.86,4.86,0,0,1-4.63,1.61A9.85,9.85,0,0,0,26.12,16.86Z"/><path class="cls-3" d="M20.46,29.92l5.28-5.4L27.84,22l1.36-2.39-.3-5.93L27,8.88,23.81,6.13l-1.4-2.34s.42-1.35-.45-1l-1,.49c-.39,2.77.55,4.56,2.32,6.48,3.2,2.8,3.54,7.48,3.54,7.48s-6.22,11.92-7,12.55Z"/><rect class="cls-6" x="29.59" y="12.97" width="2.19" height="24.81" rx="0.58" transform="translate(12.12 -9.85) rotate(22.63)"/><rect class="cls-1" x="9.59" y="36.32" width="21.48" height="2.68" rx="1"/><path class="cls-7" d="M24.36,36.57h5.79L31,38.14,30,39l-5.65-.2S25.3,38.05,24.36,36.57Z"/><polygon class="cls-3" points="35.53 13.95 26.22 36.31 27.28 36.31 36.23 14.92 36.77 14.34 35.53 13.95"/><path class="cls-3" d="M28.53,13.09a13.47,13.47,0,0,1,4.21,0l1.52,1.15-2.07,4.35-1.5-.86.81-1.87-.81-1.23-1.43.17c-.11,0-.46.51-.46.51Z"/><path class="cls-3" d="M13.91,35.89l-1.07-.17c.05.29,3.3-3.33,3.87-3.94C16.71,31.78,15.39,35.38,13.91,35.89Z"/><path class="cls-3" d="M19.08,36s.84-3.55,3.06-4.54l-.48,2.11L20.25,36.1l-1.32.11Z"/></svg>