<?xml version="1.0" encoding="utf-8"?>
<!-- Generator: Adobe Illustrator 23.0.1, SVG Export Plug-In . SVG Version: 6.00 Build 0)  -->
<svg version="1.1" id="Calque_1" xmlns="http://www.w3.org/2000/svg" xmlns:xlink="http://www.w3.org/1999/xlink" x="0px" y="0px"
	 viewBox="0 0 40 40" style="enable-background:new 0 0 40 40;" xml:space="preserve">
<style type="text/css">
	.st0{stroke:#000000;stroke-width:0.5;stroke-miterlimit:10;}
	.st1{fill:#FFFFFF;stroke:#000000;stroke-width:0.5;stroke-miterlimit:10;}
</style>
<path class="st0" d="M20,8.9c-1,0-1,0.5-5.3,3.4c-2.3,1.6-3.2,2-4,3.3c-0.7,1.1-0.9,2.1-1.1,3.1c-0.5,2.8,0,5,0.5,7
	c0.8,3.2,1.3,5.2,3.3,6.7c0.8,0.6,1.6,0.8,2.4,1.1c1.2,0.4,4.9,1.6,8.4-0.3c2.6-1.4,3.7-3.7,4-4.5c0.8-1.7,0.8-3.2,0.7-4.7
	c0-1.6-0.1-5.8-3.1-10.2C24.3,11.6,22.5,8.8,20,8.9z"/>
<path class="st0" d="M37,6.1c-0.2,0.2-0.1,0.5-0.1,0.6C37.3,9.3,13.9,38,13,38.2c0,0-0.2,0-0.2,0.1c-0.1,0.2-0.1,0.5,0.1,0.6
	c0.2,0.1,0.5-0.3,0.5-0.4c0.5-0.6,22.4-26.1,25.4-31.1c0.1-0.1,0.3-0.5,0.2-0.8C38.7,6,37.4,5.7,37,6.1z"/>
<path class="st0" d="M3,15.9c0.1,0.1,1.4-1,2.5-1.8c1.6-1.1,2.9-1.6,4.7-2.2c2.5-0.9,7.3-2.1,13.1-2c5.3,0,11.7,1.1,13.2,2.3
	c0.1,0.1,0.4,0.3,0.7,0.3c0.9-0.1,1.8-2.1,1.1-3C38.3,9.1,38,9,38,9c-0.9-0.3-1.6-0.6-1.8-0.6c-2.3-0.3-2.7-0.8-6.2-1
	c-1.4-0.1-3.6,0.1-6.6,0.1c0,0-9.7,0.7-15.7,4.2c-0.8,0.5-1.5,1-2,1.4c-0.1,0.1-1.4,1.1-2.4,2.5C3.1,15.6,3,15.8,3,15.9z"/>
<path class="st1" d="M14.9,23.5c0.1,0.2,0,0.3,0.1,0.7c0,0.3,0.1,0.6,0.3,1.1c0.2,0.5,0.2,0.7,0.4,1c0.2,0.4,0.5,0.6,0.7,0.8
	c0.3,0.3,0.5,0.4,0.9,0.6c0.4,0.2,0.5,0.3,0.7,0.4c0.6,0.2,1.1,0,1.3-0.1c0.4-0.1,0.4-0.3,1.1-0.6c0.3-0.2,0.5-0.2,0.8-0.4
	c0.3-0.2,0.5-0.3,0.6-0.5c0.1-0.1,0.1-0.2,0.2-0.8c0.1-0.5,0.2-0.7,0.2-0.9c0.1-0.3,0.1-0.4,0.2-0.6c0-0.3,0-0.4,0-0.6
	c0-0.6,0.6-1.2,0.8-1.2c0.1,0,0,0.3,0,1c0,0.3,0,0.4,0.1,0.8c0,0.3,0,0.5,0,0.6c-0.1,0.4-0.3,0.4-0.5,0.7c-0.1,0.3,0,0.6,0,0.6
	c0.1,0.2,0.1,0.2,0.2,0.5c0,0.1,0.1,0.4,0,0.7c-0.1,0.2-0.3,0.4-0.4,0.5c-0.2,0.1-0.2,0.1-0.5,0.3c-0.3,0.2-0.5,0.3-0.6,0.5
	c-0.1,0.1,0,0.1-0.2,0.4c-0.2,0.5-0.3,0.6-0.4,0.6c0,0-0.1,0.1-0.5,0.1c-0.4,0-0.7,0-0.9,0c-0.2,0-0.6,0-1.1,0c-0.5,0-0.7,0.1-1.1,0
	c-0.2,0-0.3,0-0.5-0.1c-0.3-0.1-0.5-0.3-0.8-0.8c-0.4-0.6-0.7-0.8-0.9-1c-0.4-0.2-0.6-0.2-0.7-0.5c-0.1-0.1-0.1-0.2-0.1-0.7
	c0-0.4,0-0.6,0-0.8c0-0.4,0-0.3,0-1.3c0-0.6,0-0.6,0-0.8C14.2,23.3,14,23,14.1,23C14.2,22.9,14.8,23.1,14.9,23.5z"/>
<path class="st1" d="M13.2,17.3c0,0.2,0,0.4-0.1,0.7c-0.1,0.3-0.2,0.5-0.3,0.8c-0.3,0.6-0.3,0.5-0.3,0.7c0,0.3,0.1,0.4,0.3,1.1
	c0,0.2,0.1,0.4,0.1,0.6c0.1,0.6,0,0.8,0.2,0.9c0.1,0.2,0.3,0.2,0.6,0.3c0.5,0.2,0.6,0,1,0.2c0.4,0.2,0.3,0.4,0.7,0.6
	c0.3,0.2,0.6,0.1,0.7,0.3c0,0.1,0,0.2,0.1,0.3c0,0.3,0,0.4,0,0.5c0,0.2,0.2,0.4,0.4,0.6c0.4,0.3,0.8,0.5,1.3,0.6
	c0.3,0.1,0.6,0.2,1.2,0.2c0.3,0,0.6,0,0.8,0c0.6-0.1,0.9-0.1,1.1-0.3c0.1-0.1,0.2-0.3,0.4-0.5c0.1-0.2,0.1-0.3,0.2-0.3
	c0-0.1,0-0.2,0.1-0.4c0-0.4,0-0.4,0-0.5c0-0.1,0.1-0.3,0.2-0.5c0.2-0.2,0.4-0.2,0.6-0.3c0.3-0.1,0.4-0.1,0.5-0.2
	c0.1-0.1,0.1-0.2,0.2-0.3c0.2-0.1,0.4,0.1,0.8,0c0.2,0,0.3-0.1,0.4-0.1c0.1,0,0.4-0.2,0.6-0.5c0.1-0.2,0.1-0.2,0.2-0.6
	c0.2-0.4,0.2-0.4,0.3-0.6c0.1-0.2,0.1-0.5,0.1-0.7c0-0.2-0.1-0.3-0.3-0.6c-0.3-0.4-0.4-0.4-0.5-0.7c-0.1-0.2-0.2-0.5-0.2-0.8
	c0-0.1,0.1-0.1,0.2-0.3c0.1-0.2,0.2-0.4,0.2-0.5c0,0,0-0.3-0.2-0.5c-0.2-0.2-0.4,0-0.5-0.2c-0.1-0.1-0.1-0.3-0.1-0.5
	c0-0.4,0.1-0.5,0.1-0.7c0-0.3-0.2-0.4-0.3-0.6c-0.4-0.4-0.9-0.5-1.1-0.6c-1.1-0.3-2.2-0.3-2.7-0.3c-0.2,0,0,0-2.2,0.2
	c-0.7,0.1-1.2,0.1-1.9,0.3c-0.6,0.1-0.9,0.2-1.3,0.5c-0.7,0.5-0.9,1.2-0.9,1.4C13.3,15.9,13.3,16.4,13.2,17.3z"/>
<path class="st0" d="M13.7,17.2c0.1-0.1,0.4,0.1,0.6,0.2c0.1,0.1,0.2,0.2,0.4,0.3c0.2,0.2,0.2,0.3,0.4,0.4c0.3,0.2,0.4,0.4,0.6,0.4
	c0.3,0.1,0.5-0.1,0.7,0c0.2,0.1,0.1,0.3,0.3,0.5c0.2,0.2,0.5,0.2,0.5,0.2c0.3,0,0.5-0.2,0.6-0.1c0.1,0.1-0.1,0.2-0.2,0.5
	c-0.1,0.3,0,0.4,0,0.7c-0.1,0.4-0.5,0.6-0.6,0.6c-0.1,0.1-0.2,0.1-1,0.1c-1.2,0-1.1,0-1.3,0c-0.3,0-0.4,0.1-0.6,0
	c-0.2-0.1-0.3-0.3-0.4-0.5c0-0.1-0.1-0.3-0.1-0.9c0-0.3,0-0.6,0-0.8c0-0.6,0-0.4,0.1-0.9C13.7,17.4,13.6,17.2,13.7,17.2z"/>
<path class="st0" d="M19.9,19.4c-0.1,0.1,0.1,0.3,0.3,0.6c0.2,0.3,0.3,0.5,0.5,0.6c0.3,0.2,0.6,0.3,0.7,0.3c0.4,0.1,0.7,0.1,0.9,0
	c0.4-0.1,0.4-0.1,0.7-0.2c0.3,0,0.4,0.1,0.6,0c0.2-0.1,0.3-0.3,0.4-0.5c0.1-0.2,0.1-0.4,0.1-0.6c0-0.2-0.1-0.4-0.2-0.7
	c-0.1-0.3-0.1-0.4-0.2-0.6c0,0,0,0,0-0.4c0-0.2,0-0.4,0-0.4c0,0-0.1-0.2-0.2-0.2c-0.1,0-0.1,0-0.3,0.2c-0.2,0.2-0.2,0.3-0.3,0.5
	c-0.2,0.2-0.3,0.1-0.8,0.4c-0.5,0.2-0.5,0.4-0.9,0.5c0,0,0,0-0.6,0.2C20.1,19.2,19.9,19.3,19.9,19.4z"/>
<path class="st0" d="M18.8,20.4c-0.2,0-0.3,0.3-0.5,0.8c-0.1,0.3-0.2,0.5-0.3,0.7c-0.1,0.3,0,0.2-0.2,1c-0.1,0.3-0.1,0.5,0,0.5
	c0.1,0.1,0.3-0.1,0.4-0.1c0.3-0.2,0.3-0.4,0.5-0.5c0.2,0,0.3,0.4,0.7,0.5c0.1,0,0.2,0.1,0.4,0c0.1-0.1,0.1-0.3,0.1-0.6
	c0-0.2,0-0.3-0.2-0.8c-0.1-0.4-0.1-0.4-0.1-0.5c-0.1-0.2-0.1-0.4-0.4-0.6C19.1,20.5,19,20.4,18.8,20.4z"/>
<path class="st0" d="M22.7,30.2c0.2-0.6,0.2-0.6,0.4-1c0.1-0.3,0.3-0.8,0.4-1.4c0.2-1,0.1-1,0.3-1.9c0.1-0.5,0.2-1,0.5-1.6
	c0.4-0.7,0.9-1.1,1.2-1.3c0.6-0.5,0.8-0.3,1-0.6c0.3-0.3,0.4-0.8,0.3-3c0-1.5-0.1-2.3-0.2-2.7c-0.1-0.3-0.3-0.5-1.8-1.7
	c-1.4-1.1-1.6-1.2-1.8-1.4c-0.7-0.3-1.3-0.2-2-0.2c-1,0.1-1.7,0.3-2.9,0.8c-1,0.4-1.5,0.6-1.9,1c-0.7,0.7-0.6,1.2-1.2,1.6
	c-0.8,0.5-1.1-0.1-2.2,0.3c-0.9,0.3-1.4,1-1.7,1.3c-0.4,0.5-0.7,0.9-0.9,1.6c-0.3,1.4,0.3,2.7,0.5,3c0.3,0.6,0.4,0.5,1.3,1.6
	c0.9,1.1,0.9,1.3,1.8,2.4c0.8,1,0.9,0.9,1.5,1.7c0.3,0.4,0.8,1.2,1.4,2.3c1,1.9,1.4,2.8,1.3,3.3c-0.8,2.4-11-0.9-11.7-0.9
	c0,0-0.2,0-0.3-0.1c0-0.1,0-0.2,0-0.4c0.1-0.4,0.4-0.6,0.4-0.6c0.3-0.3,0.2-1.5,0-3.9c-0.1-0.8-0.1-1.2,0-1.7
	c0.1-0.2,0.2-0.5,0.5-1.1C7,25,7.2,24.8,7.3,24.5c0.3-0.6,0.8-1.2,1.1-1.6c0.3-0.4,0.4-0.6,0.5-0.8c0.1-0.4-0.1-0.7-0.1-1.2
	c-0.1-0.5,0-0.9,0.1-1.8c0-0.4,0.1-1.1,0.3-1.9c0.2-0.7,0.3-1.3,0.7-1.9c0.5-0.8,0.7-0.6,1.4-1.5c0.7-0.9,0.6-1.4,1.3-2.1
	c0.2-0.2,0.4-0.3,0.7-0.7c0.4-0.5,0.6-0.9,0.7-1.1c0.6-1.2,1.5-2.1,1.6-2.3c0.9-0.9,1.7-1.3,2.7-1.7c0.8-0.4,1.5-0.6,1.8-0.7
	c0.7-0.2,2-0.6,2.6-1.1c0.3-0.2,0.5-0.4,0.6-0.8C23.3,3.1,23.4,3,23.4,3c0.1,0,0.1,0.3,0.1,0.5c0.1,0.4,0.3,0.6,0.5,1
	c0.1,0.2,0.3,0.5,0.7,1.3c0.4,0.8,0.4,1.2,0.8,2.2c0.3,1,0.6,1.7,1,2.5c0.6,1.1,0.8,1.1,1.8,2.7c0.9,1.6,1,2.1,0.9,2.4
	c-0.1,0.3-0.2,0.4-0.5,1.4c-0.3,0.9-0.3,1.1-0.3,1.2c0.1,0.5,0.3,0.6,0.6,1.2c0.3,0.5,0.3,0.9,0.4,1.3c0.5,1.4,1.5,1.3,2.3,2.7
	c0.2,0.3,0.3,0.9,0.6,2.1c0.5,2,0.8,3.6,0.8,3.6c0.2,1,0.3,2,0.9,2.2c0.2,0.1,0.4,0.1,0.5,0.3c0,0.2-0.2,0.4-0.3,0.5
	c-0.6,0.5-1.4,0.2-1.6,0.1c-1.1-0.4-2.6,0.2-5.7,1.3c-1.2,0.4-3.8,1.5-4.7,1c-0.1-0.1-0.5-0.3-0.5-0.6c-0.1-0.3,0.1-0.6,0.2-0.8
	C22.3,32,21.9,32.4,22.7,30.2z"/>
</svg>
