<svg id="Calque_1" data-name="Calque 1" xmlns="http://www.w3.org/2000/svg" viewBox="0 0 40 40"><defs><style>.cls-1{fill:#191919;}.cls-2,.cls-7{fill:#fff;}.cls-2,.cls-4,.cls-6,.cls-8,.cls-9{fill-rule:evenodd;}.cls-2,.cls-6,.cls-9{opacity:0.3;}.cls-3{fill:none;stroke-miterlimit:10;}.cls-3,.cls-4,.cls-5{stroke:#000;}.cls-4{fill:#878787;}.cls-4,.cls-5{stroke-linecap:round;stroke-linejoin:round;}.cls-5{fill:#8c6341;}.cls-7{opacity:0.3;}.cls-8,.cls-9{fill:#ff5252;}</style></defs><path class="cls-1" d="M26.75,26.7c-.05-5,.24-11.72,1.69-12.44C19,10.33,10.17,19.46,14.11,20c2.33.31-.23,15.72-2.79,17.31l3.18,0-1.41-.53a21.42,21.42,0,0,0,3.35-3.85,7.71,7.71,0,0,1-.84,4.39l4.15,0a11.81,11.81,0,0,1,1.79-4.45c-.07,1.05,1.46,3,2.12,4.47l5.94,0C30.35,37.43,26.8,32.94,26.75,26.7Z"/><path class="cls-2" d="M22.34,25.68l4-4.24.41,7.37,1.83,6.42V38H23.53S24.88,35.06,22.34,25.68Z"/><path class="cls-2" d="M13.89,35.87l-1.07-.17c0,.28,3.3-3.33,3.87-3.94C16.69,31.76,15.37,35.35,13.89,35.87Z"/><path class="cls-2" d="M19.06,35.93s.84-3.55,3.06-4.53l-.48,2.11-1.41,2.57-1.32.11Z"/><path class="cls-3" d="M26.75,26.7c-.05-5,.24-11.72,1.69-12.44C19,10.33,10.17,19.46,14.11,20c2.33.31-.23,15.72-2.79,17.31l3.18,0-1.41-.53a21.42,21.42,0,0,0,3.35-3.85,7.71,7.71,0,0,1-.84,4.39l4.15,0a11.81,11.81,0,0,1,1.79-4.45c-.07,1.05,1.46,3,2.12,4.47l5.94,0C30.35,37.43,26.8,32.94,26.75,26.7Z"/><path class="cls-4" d="M33.33,14.74c.42-.5,4.28,1.83,3.31,4.27-.8-1-3.51-2.79-5.68-2.14Z"/><path class="cls-4" d="M2.9,8.74c10.16,0,18,2.41,25.68,7.43l.55-1a1.21,1.21,0,1,1,2.1,1.21l-.64,1.12c.84.6,1.69,1.22,2.54,1.89l1.54-4.61C26.25,6.38,15.84,7.72,2.9,8.74Z"/><path class="cls-1" d="M28.52,11.9s1.48,5.44,0,9.14c0,0-4.58,6-6.58,7.11L20,30.37a6.82,6.82,0,0,0-3-3.34c-5.86-3.16-6.17-11.71-6.17-11.71A11.17,11.17,0,0,1,12,12c1.67-2.77,6.21-6.94,6.21-6.94s2.22-2.27,4.33-2.44c0,0-1.07,2.29,2.29,4.19A10,10,0,0,1,28.52,11.9Z"/><path class="cls-2" d="M20.44,29.89l5.28-5.39L27.82,22l1.36-2.39-.3-5.94L26.93,8.86,23.79,6.1l-1.4-2.34s.42-1.34-.45-1l-1,.49c-.4,2.76.55,4.55,2.32,6.48,3.2,2.8,3.54,7.47,3.54,7.47s-6.22,11.93-7,12.55Z"/><rect class="cls-5" x="29.57" y="12.94" width="2.19" height="24.81" rx="0.58" transform="translate(12.11 -9.85) rotate(22.63)"/><polygon class="cls-6" points="35.51 13.93 26.2 36.29 27.26 36.29 36.21 14.89 36.75 14.31 35.51 13.93"/><path class="cls-6" d="M28.51,13.06a13.25,13.25,0,0,1,4.21,0l1.52,1.15-2.07,4.35-1.5-.86.81-1.87-.81-1.24-1.43.17c-.11,0-.46.52-.46.52Z"/><path class="cls-3" d="M28.52,11.9s1.48,5.44,0,9.14c0,0-4.58,6-6.58,7.11L20,30.37a6.82,6.82,0,0,0-3-3.34c-5.86-3.16-6.17-11.71-6.17-11.71A11.17,11.17,0,0,1,12,12c1.67-2.77,6.21-6.94,6.21-6.94s2.22-2.27,4.33-2.44c0,0-1.07,2.29,2.29,4.19A10,10,0,0,1,28.52,11.9Z"/><rect class="cls-1" x="9.57" y="36.29" width="21.48" height="2.68" rx="1"/><path class="cls-7" d="M24.34,36.54h5.79L31,38.11,30,39l-5.65-.2S25.28,38,24.34,36.54Z"/><rect class="cls-3" x="9.57" y="36.29" width="21.48" height="2.68" rx="1"/><path d="M20.31,26.69a18.86,18.86,0,0,1-7.44-9.46c-.61-1.74,1.16-3.81,1.59-4.08,2.08-2.09,5.64-2,5.85-2s3.77-.1,5.86,2a4.76,4.76,0,0,1,1.59,4.08A24.33,24.33,0,0,1,20.31,26.69Z"/><path class="cls-8" d="M14.7,16a4.67,4.67,0,0,0,4.7,1.59A4.67,4.67,0,0,0,14.7,16Z"/><path class="cls-9" d="M14.48,16.84a4.88,4.88,0,0,0,4.63,1.61A9.85,9.85,0,0,1,14.48,16.84Z"/><path class="cls-8" d="M25.88,16a4.67,4.67,0,0,1-4.7,1.59A4.67,4.67,0,0,1,25.88,16Z"/><path class="cls-9" d="M26.1,16.84a4.86,4.86,0,0,1-4.63,1.61A10,10,0,0,0,26.1,16.84Z"/></svg>