<svg id="Calque_1" data-name="Calque 1" xmlns="http://www.w3.org/2000/svg" viewBox="0 0 40 40"><defs><style>.cls-1,.cls-2{fill:#191919;}.cls-1,.cls-25,.cls-26,.cls-27,.cls-4{fill-rule:evenodd;}.cls-10,.cls-11,.cls-12,.cls-13,.cls-14,.cls-15,.cls-16,.cls-17,.cls-18,.cls-19,.cls-20,.cls-21,.cls-22,.cls-23,.cls-24,.cls-3,.cls-4,.cls-5,.cls-6,.cls-7,.cls-8,.cls-9{fill:#fff;}.cls-4{opacity:0.3;}.cls-5{stroke:red;}.cls-10,.cls-11,.cls-12,.cls-13,.cls-14,.cls-15,.cls-16,.cls-17,.cls-18,.cls-19,.cls-20,.cls-21,.cls-22,.cls-23,.cls-24,.cls-25,.cls-28,.cls-5,.cls-6,.cls-7,.cls-8,.cls-9{stroke-linecap:round;stroke-linejoin:round;}.cls-10,.cls-11,.cls-12,.cls-13,.cls-14,.cls-15,.cls-16,.cls-17,.cls-18,.cls-19,.cls-20,.cls-21,.cls-22,.cls-23,.cls-24,.cls-27,.cls-5,.cls-6,.cls-7,.cls-8,.cls-9{stroke-width:0.5px;}.cls-6{stroke:#ff0062;}.cls-7{stroke:#ff00bd;}.cls-8{stroke:#f800ff;}.cls-9{stroke:#cd00ff;}.cls-10{stroke:#80f;}.cls-11{stroke:#5000ff;}.cls-12{stroke:#0903ff;}.cls-13{stroke:#005cff;}.cls-14{stroke:#00b7ff;}.cls-15{stroke:aqua;}.cls-16{stroke:#00ffda;}.cls-17{stroke:#00ff5b;}.cls-18{stroke:#64ff00;}.cls-19{stroke:#a8ff00;}.cls-20{stroke:#f9ff00;}.cls-21{stroke:#ffe000;}.cls-22{stroke:#ffb600;}.cls-23{stroke:#ff5b00;}.cls-24{stroke:#ff2a00;}.cls-25,.cls-27,.cls-28{fill:none;}.cls-25,.cls-26,.cls-27,.cls-28{stroke:#000;}.cls-26{fill:#fcee21;}.cls-26,.cls-27{stroke-miterlimit:10;}</style></defs><path class="cls-1" d="M6,30c1.19.24,2.24.07,2.56-.56a44.88,44.88,0,0,1,4.49-6,8.76,8.76,0,0,0,3-1.76,21.18,21.18,0,0,0,3.86-4.48,3.93,3.93,0,0,0,.43-.95,10.68,10.68,0,0,1-1.9,3c-.21,0,4.17,5.23-1.44,9.22-5.88,4.18-5,8-5,8h21c.91-5,.41-30.68-15-29.12-.46-1.82-1.37-2.65-2.58-2.69-.19,1.18.27,1.8-.16,3.06l-2.56.37a4.68,4.68,0,0,0-.5-1.3A2.35,2.35,0,0,0,9.23,5.68c-.53.39.6,1.2.79,2.45,0,.12-.16.23-.09.33-4.2,4.25-7.68,14.2-7.79,14.38A4.52,4.52,0,0,0,4,29.26L6,30"/><rect class="cls-2" x="10.94" y="36.45" width="23" height="2" rx="0.85"/><ellipse class="cls-3" cx="4.29" cy="24.23" rx="1.13" ry="0.51" transform="translate(-17.96 13.71) rotate(-54.65)"/><path class="cls-4" d="M18.36,7l5.2.76,4.82,4.31,3,6.7,1.86,11.36-.17,6-.63.33H30.56c1.67-1,2.11-26.35-12-29.14L18.36,7"/><line class="cls-5" x1="20.35" y1="7.33" x2="20.06" y2="9.52"/><line class="cls-6" x1="22.11" y1="7.65" x2="21.6" y2="9.8"/><line class="cls-7" x1="23.86" y1="8.27" x2="22.95" y2="10.29"/><line class="cls-8" x1="25.42" y1="9.23" x2="24.28" y2="11.12"/><line class="cls-9" x1="26.76" y1="10.41" x2="25.28" y2="12.05"/><line class="cls-10" x1="28.04" y1="11.81" x2="26.27" y2="13.13"/><line class="cls-11" x1="29.03" y1="13.31" x2="27.04" y2="14.27"/><line class="cls-12" x1="29.75" y1="14.76" x2="27.7" y2="15.58"/><line class="cls-13" x1="30.47" y1="16.26" x2="28.38" y2="16.96"/><line class="cls-14" x1="31.09" y1="17.93" x2="28.92" y2="18.34"/><line class="cls-15" x1="31.66" y1="19.83" x2="29.46" y2="20"/><line class="cls-16" x1="32.07" y1="21.58" x2="29.87" y2="21.68"/><line class="cls-17" x1="32.41" y1="23.44" x2="30.21" y2="23.47"/><line class="cls-18" x1="32.69" y1="25.02" x2="30.48" y2="25.03"/><line class="cls-19" x1="32.87" y1="26.58" x2="30.66" y2="26.58"/><line class="cls-20" x1="33.04" y1="28.13" x2="30.83" y2="28.14"/><line class="cls-21" x1="33.13" y1="29.65" x2="30.92" y2="29.65"/><line class="cls-22" x1="33.21" y1="31.11" x2="31" y2="31.12"/><line class="cls-23" x1="33.21" y1="33.04" x2="31.01" y2="32.97"/><line class="cls-24" x1="33.12" y1="34.69" x2="30.92" y2="34.58"/><path class="cls-4" d="M9.53,6.45v-1h1a5.08,5.08,0,0,1,2.2,3l-.27.1C12,7.83,10.18,6,9.53,6.45Z"/><path class="cls-4" d="M15.16,5.64v-1h1a5,5,0,0,1,2.2,3l-.56.14S15.81,5.13,15.16,5.64Z"/><path class="cls-4" d="M27.7,36.45h5l1.25.44v1.19l-.86.37H27.7S29.19,37.4,27.7,36.45Z"/><ellipse class="cls-3" cx="12.42" cy="14.76" rx="2.12" ry="1.04" transform="translate(-6.72 12.37) rotate(-42.79)"/><path class="cls-4" d="M7.13,28.89l4.78-6.07s4.09-.76,8.16-7l.21.4-1.9,3-2,2.45-2.81,1.79-.86.32L8.16,29.84l-1.27.27L6,30Z"/><path class="cls-25" d="M6,30c1.19.24,2.24.07,2.56-.56a44.88,44.88,0,0,1,4.49-6,8.76,8.76,0,0,0,3-1.76,21.18,21.18,0,0,0,3.86-4.48,3.93,3.93,0,0,0,.43-.95,10.68,10.68,0,0,1-1.9,3c-.21,0,4.17,5.23-1.44,9.22-5.88,4.18-5,8-5,8h21c.91-5,.41-30.68-15-29.12-.46-1.82-1.37-2.65-2.58-2.69-.19,1.18.27,1.8-.16,3.06l-2.56.37a4.68,4.68,0,0,0-.5-1.3A2.35,2.35,0,0,0,9.23,5.68c-.53.39.6,1.2.79,2.45,0,.12-.16.23-.09.33-4.2,4.25-7.68,14.2-7.79,14.38A4.52,4.52,0,0,0,4,29.26L6,30"/><path class="cls-26" d="M13.78,8.41,3.36,4,11,12.56C11.08,12.85,15,10.82,13.78,8.41Z"/><path class="cls-27" d="M12.2,7.74c.6.33,0,3.42-2.47,3.38"/><path class="cls-27" d="M10.17,6.89c.76,0,.65,2.87-1.87,2.63"/><path class="cls-27" d="M8,5.94c.16-.14,1,2.12-1.11,1.95"/><rect class="cls-28" x="11" y="36.45" width="23" height="2" rx="0.85"/></svg>