<svg id="Calque_1" data-name="Calque 1" xmlns="http://www.w3.org/2000/svg" viewBox="0 0 40 40"><defs><style>.cls-1,.cls-2{fill:#191919;}.cls-1,.cls-25,.cls-26,.cls-27,.cls-4{fill-rule:evenodd;}.cls-10,.cls-11,.cls-12,.cls-13,.cls-14,.cls-15,.cls-16,.cls-17,.cls-18,.cls-19,.cls-20,.cls-21,.cls-22,.cls-23,.cls-24,.cls-3,.cls-4,.cls-5,.cls-6,.cls-7,.cls-8,.cls-9{fill:#fff;}.cls-4{opacity:0.3;}.cls-5{stroke:red;}.cls-10,.cls-11,.cls-12,.cls-13,.cls-14,.cls-15,.cls-16,.cls-17,.cls-18,.cls-19,.cls-20,.cls-21,.cls-22,.cls-23,.cls-24,.cls-25,.cls-28,.cls-5,.cls-6,.cls-7,.cls-8,.cls-9{stroke-linecap:round;stroke-linejoin:round;}.cls-10,.cls-11,.cls-12,.cls-13,.cls-14,.cls-15,.cls-16,.cls-17,.cls-18,.cls-19,.cls-20,.cls-21,.cls-22,.cls-23,.cls-24,.cls-27,.cls-5,.cls-6,.cls-7,.cls-8,.cls-9{stroke-width:0.5px;}.cls-6{stroke:#ff0062;}.cls-7{stroke:#ff00bd;}.cls-8{stroke:#f800ff;}.cls-9{stroke:#cd00ff;}.cls-10{stroke:#80f;}.cls-11{stroke:#5000ff;}.cls-12{stroke:#0903ff;}.cls-13{stroke:#005cff;}.cls-14{stroke:#00b7ff;}.cls-15{stroke:aqua;}.cls-16{stroke:#00ffda;}.cls-17{stroke:#00ff5b;}.cls-18{stroke:#64ff00;}.cls-19{stroke:#a8ff00;}.cls-20{stroke:#f9ff00;}.cls-21{stroke:#ffe000;}.cls-22{stroke:#ffb600;}.cls-23{stroke:#ff5b00;}.cls-24{stroke:#ff2a00;}.cls-25,.cls-27,.cls-28{fill:none;}.cls-25,.cls-26,.cls-27,.cls-28{stroke:#000;}.cls-26{fill:#fcee21;}.cls-26,.cls-27{stroke-miterlimit:10;}</style></defs><path class="cls-1" d="M7.33,30.36c1.23.26,2.3.08,2.62-.56a46.19,46.19,0,0,1,4.6-6.14,9,9,0,0,0,3-1.8,21.86,21.86,0,0,0,3.94-4.58,3.83,3.83,0,0,0,.44-1,10.94,10.94,0,0,1-1.95,3c-.21,0,4.27,5.35-1.47,9.43-6,4.28-5.11,8.18-5.11,8.18H34.91c.93-5.06.43-31.37-15.33-29.77-.47-1.86-1.41-2.72-2.64-2.76-.19,1.21.28,1.85-.17,3.14l-2.62.37a4.18,4.18,0,0,0-.51-1.32,2.37,2.37,0,0,0-3-1.12c-.54.4.62,1.22.81,2.51,0,.12-.16.23-.09.33C7.1,12.67,3.54,22.85,3.43,23A4.61,4.61,0,0,0,5.36,29.6l2,.76"/><rect class="cls-2" x="12.42" y="36.95" width="23.52" height="2.05" rx="0.85"/><ellipse class="cls-3" cx="5.62" cy="24.46" rx="1.15" ry="0.52" transform="translate(-17.58 14.89) rotate(-54.65)"/><path class="cls-4" d="M20,6.82l5.31.78L30.25,12l3,6.84,1.9,11.62L35,36.62l-.64.33h-1.9C34.19,35.88,34.64,10,20.18,7.16L20,6.82"/><line class="cls-5" x1="22.04" y1="7.17" x2="21.75" y2="9.41"/><line class="cls-6" x1="23.84" y1="7.51" x2="23.32" y2="9.7"/><line class="cls-7" x1="25.63" y1="8.14" x2="24.7" y2="10.2"/><line class="cls-8" x1="27.23" y1="9.12" x2="26.06" y2="11.05"/><line class="cls-9" x1="28.59" y1="10.33" x2="27.09" y2="12.01"/><line class="cls-10" x1="29.9" y1="11.75" x2="28.09" y2="13.11"/><line class="cls-11" x1="30.92" y1="13.29" x2="28.88" y2="14.27"/><line class="cls-12" x1="31.66" y1="14.78" x2="29.56" y2="15.61"/><line class="cls-13" x1="32.39" y1="16.31" x2="30.25" y2="17.02"/><line class="cls-14" x1="33.02" y1="18.02" x2="30.8" y2="18.43"/><line class="cls-15" x1="33.61" y1="19.95" x2="31.36" y2="20.13"/><line class="cls-16" x1="34.03" y1="21.75" x2="31.77" y2="21.85"/><line class="cls-17" x1="34.38" y1="23.65" x2="32.12" y2="23.68"/><line class="cls-18" x1="34.66" y1="25.27" x2="32.4" y2="25.27"/><line class="cls-19" x1="34.85" y1="26.86" x2="32.59" y2="26.86"/><line class="cls-20" x1="35.02" y1="28.45" x2="32.76" y2="28.45"/><line class="cls-21" x1="35.11" y1="30" x2="32.85" y2="30"/><line class="cls-22" x1="35.19" y1="31.49" x2="32.94" y2="31.5"/><line class="cls-23" x1="35.19" y1="33.47" x2="32.94" y2="33.39"/><line class="cls-24" x1="35.1" y1="35.16" x2="32.85" y2="35.04"/><path class="cls-4" d="M11,6.28v-1h1a5.1,5.1,0,0,1,2.25,3L14,8.39C13.46,7.69,11.65,5.77,11,6.28Z"/><path class="cls-4" d="M16.74,5.44v-1h1a5.14,5.14,0,0,1,2.25,3l-.58.15S17.41,4.93,16.74,5.44Z"/><path class="cls-4" d="M29.56,37h5.1l1.27.45v1.21l-.87.39h-5.5S31.08,37.92,29.56,37Z"/><ellipse class="cls-3" cx="13.93" cy="14.78" rx="2.17" ry="1.06" transform="translate(-6.33 13.4) rotate(-42.79)"/><path class="cls-4" d="M8.53,29.22,13.41,23s4.18-.78,8.35-7.12l.21.4-1.95,3-2,2.51-2.87,1.83-.88.33L9.58,30.19l-1.3.28-.95-.11Z"/><path class="cls-25" d="M7.33,30.36c1.23.26,2.3.08,2.62-.56a46.19,46.19,0,0,1,4.6-6.14,9,9,0,0,0,3-1.8,21.86,21.86,0,0,0,3.94-4.58,3.83,3.83,0,0,0,.44-1,10.94,10.94,0,0,1-1.95,3c-.21,0,4.27,5.35-1.47,9.43-6,4.28-5.11,8.18-5.11,8.18H34.91c.93-5.06.43-31.37-15.33-29.77-.47-1.86-1.41-2.72-2.64-2.76-.19,1.21.28,1.85-.17,3.14l-2.62.37a4.18,4.18,0,0,0-.51-1.32,2.37,2.37,0,0,0-3-1.12c-.54.4.62,1.22.81,2.51,0,.12-.16.23-.09.33C7.1,12.67,3.54,22.85,3.43,23A4.61,4.61,0,0,0,5.36,29.6l2,.76"/><path class="cls-26" d="M15.32,8.28,4.67,3.77l7.83,8.75C12.56,12.82,16.52,10.74,15.32,8.28Z"/><path class="cls-27" d="M13.71,7.6c.61.33,0,3.49-2.53,3.45"/><path class="cls-27" d="M11.64,6.72c.77,0,.66,2.94-1.92,2.69"/><path class="cls-27" d="M9.36,5.76c.17-.15,1,2.16-1.13,2"/><rect class="cls-28" x="12.48" y="36.95" width="23.52" height="2.05" rx="0.85"/></svg>