<svg id="Calque_1" data-name="Calque 1" xmlns="http://www.w3.org/2000/svg" viewBox="0 0 40 40"><defs><style>.cls-1,.cls-10,.cls-11,.cls-12,.cls-13,.cls-14,.cls-15,.cls-16,.cls-17,.cls-18,.cls-19,.cls-2,.cls-20,.cls-21,.cls-22,.cls-23,.cls-4,.cls-5,.cls-6,.cls-7,.cls-8,.cls-9{fill:#fff;}.cls-1,.cls-24,.cls-25,.cls-26,.cls-3{fill-rule:evenodd;}.cls-2,.cls-24,.cls-25,.cls-26{stroke:#000;}.cls-10,.cls-11,.cls-12,.cls-13,.cls-14,.cls-15,.cls-16,.cls-17,.cls-18,.cls-19,.cls-2,.cls-20,.cls-21,.cls-22,.cls-23,.cls-24,.cls-4,.cls-5,.cls-6,.cls-7,.cls-8,.cls-9{stroke-linecap:round;stroke-linejoin:round;}.cls-3{opacity:0.3;}.cls-4{stroke:red;}.cls-10,.cls-11,.cls-12,.cls-13,.cls-14,.cls-15,.cls-16,.cls-17,.cls-18,.cls-19,.cls-20,.cls-21,.cls-22,.cls-23,.cls-26,.cls-4,.cls-5,.cls-6,.cls-7,.cls-8,.cls-9{stroke-width:0.5px;}.cls-5{stroke:#ff0062;}.cls-6{stroke:#ff00bd;}.cls-7{stroke:#f800ff;}.cls-8{stroke:#cd00ff;}.cls-9{stroke:#80f;}.cls-10{stroke:#5000ff;}.cls-11{stroke:#0903ff;}.cls-12{stroke:#005cff;}.cls-13{stroke:#00b7ff;}.cls-14{stroke:aqua;}.cls-15{stroke:#00ffda;}.cls-16{stroke:#00ff5b;}.cls-17{stroke:#64ff00;}.cls-18{stroke:#a8ff00;}.cls-19{stroke:#f9ff00;}.cls-20{stroke:#ffe000;}.cls-21{stroke:#ffb600;}.cls-22{stroke:#ff5b00;}.cls-23{stroke:#ff2a00;}.cls-24,.cls-26{fill:none;}.cls-25{fill:#fcee21;}.cls-25,.cls-26{stroke-miterlimit:10;}</style></defs><path class="cls-1" d="M6,30c1.2.24,2.25.07,2.56-.56a44.88,44.88,0,0,1,4.49-6,8.84,8.84,0,0,0,3-1.76,21.44,21.44,0,0,0,3.85-4.48,3.58,3.58,0,0,0,.43-.95,10.68,10.68,0,0,1-1.9,3c-.2,0,4.17,5.23-1.44,9.22-5.87,4.18-5,8-5,8H33c.91-5,.41-30.68-15-29.12-.46-1.82-1.37-2.65-2.57-2.69-.19,1.18.27,1.8-.17,3.06l-2.56.37a4.39,4.39,0,0,0-.5-1.3A2.35,2.35,0,0,0,9.29,5.68c-.53.39.6,1.2.79,2.45,0,.12-.15.23-.09.33C5.8,12.71,2.32,22.66,2.21,22.84A4.52,4.52,0,0,0,4.1,29.26L6,30"/><ellipse cx="12.48" cy="14.76" rx="2.12" ry="1.04" transform="translate(-6.71 12.41) rotate(-42.79)"/><rect class="cls-2" x="11" y="36.45" width="23" height="2" rx="0.85"/><ellipse cx="4.36" cy="24.23" rx="1.13" ry="0.51" transform="translate(-17.93 13.77) rotate(-54.65)"/><path class="cls-3" d="M18.43,7l5.19.76,4.82,4.31,3,6.7,1.86,11.36-.18,6-.62.33H30.63c1.66-1,2.11-26.35-12-29.14L18.43,7"/><line class="cls-4" x1="20.41" y1="7.33" x2="20.13" y2="9.52"/><line class="cls-5" x1="22.18" y1="7.65" x2="21.66" y2="9.8"/><line class="cls-6" x1="23.92" y1="8.27" x2="23.02" y2="10.29"/><line class="cls-7" x1="25.49" y1="9.23" x2="24.35" y2="11.12"/><line class="cls-8" x1="26.82" y1="10.41" x2="25.35" y2="12.05"/><line class="cls-9" x1="28.1" y1="11.81" x2="26.33" y2="13.13"/><line class="cls-10" x1="29.09" y1="13.31" x2="27.11" y2="14.27"/><line class="cls-11" x1="29.82" y1="14.76" x2="27.77" y2="15.58"/><line class="cls-12" x1="30.54" y1="16.26" x2="28.44" y2="16.96"/><line class="cls-13" x1="31.15" y1="17.93" x2="28.98" y2="18.34"/><line class="cls-14" x1="31.73" y1="19.83" x2="29.52" y2="20"/><line class="cls-15" x1="32.13" y1="21.58" x2="29.93" y2="21.68"/><line class="cls-16" x1="32.48" y1="23.44" x2="30.27" y2="23.47"/><line class="cls-17" x1="32.75" y1="25.02" x2="30.55" y2="25.03"/><line class="cls-18" x1="32.94" y1="26.58" x2="30.73" y2="26.58"/><line class="cls-19" x1="33.1" y1="28.13" x2="30.9" y2="28.14"/><line class="cls-20" x1="33.19" y1="29.65" x2="30.98" y2="29.65"/><line class="cls-21" x1="33.28" y1="31.11" x2="31.07" y2="31.12"/><line class="cls-22" x1="33.28" y1="33.04" x2="31.07" y2="32.97"/><line class="cls-23" x1="33.19" y1="34.69" x2="30.98" y2="34.58"/><path class="cls-3" d="M9.59,6.45v-1h1a5,5,0,0,1,2.2,3l-.26.1C12,7.83,10.25,6,9.59,6.45Z"/><path class="cls-3" d="M15.22,5.64v-1h1a5,5,0,0,1,2.21,3l-.57.14S15.88,5.13,15.22,5.64Z"/><path class="cls-3" d="M27.77,36.45h5l1.25.44v1.19l-.85.37H27.77S29.26,37.4,27.77,36.45Z"/><path class="cls-3" d="M7.2,28.89,12,22.82s4.08-.76,8.16-7l.2.4-1.9,3-2,2.45-2.81,1.79-.86.32L8.23,29.84,7,30.11,6,30Z"/><path class="cls-24" d="M6,30c1.2.24,2.25.07,2.56-.56a44.88,44.88,0,0,1,4.49-6,8.84,8.84,0,0,0,3-1.76,21.44,21.44,0,0,0,3.85-4.48,3.58,3.58,0,0,0,.43-.95,10.68,10.68,0,0,1-1.9,3c-.2,0,4.17,5.23-1.44,9.22-5.87,4.18-5,8-5,8H33c.91-5,.41-30.68-15-29.12-.46-1.82-1.37-2.65-2.57-2.69-.19,1.18.27,1.8-.17,3.06l-2.56.37a4.39,4.39,0,0,0-.5-1.3A2.35,2.35,0,0,0,9.29,5.68c-.53.39.6,1.2.79,2.45,0,.12-.15.23-.09.33C5.8,12.71,2.32,22.66,2.21,22.84A4.52,4.52,0,0,0,4.1,29.26L6,30"/><path class="cls-25" d="M13.84,8.41,3.43,4l7.65,8.56C11.14,12.85,15,10.82,13.84,8.41Z"/><path class="cls-26" d="M12.26,7.74c.6.33.05,3.42-2.47,3.38"/><path class="cls-26" d="M10.24,6.89c.76,0,.64,2.87-1.88,2.63"/><path class="cls-26" d="M8,5.94c.17-.14,1,2.12-1.1,1.95"/></svg>