<svg id="Calque_1" data-name="Calque 1" xmlns="http://www.w3.org/2000/svg" viewBox="0 0 40 40"><defs><style>.cls-1,.cls-10,.cls-11,.cls-12,.cls-13,.cls-14,.cls-15,.cls-16,.cls-17,.cls-18,.cls-19,.cls-2,.cls-20,.cls-21,.cls-22,.cls-23,.cls-4,.cls-5,.cls-6,.cls-7,.cls-8,.cls-9{fill:#fff;}.cls-1,.cls-24,.cls-25,.cls-26,.cls-3{fill-rule:evenodd;}.cls-2,.cls-24,.cls-25,.cls-26{stroke:#000;}.cls-10,.cls-11,.cls-12,.cls-13,.cls-14,.cls-15,.cls-16,.cls-17,.cls-18,.cls-19,.cls-2,.cls-20,.cls-21,.cls-22,.cls-23,.cls-24,.cls-4,.cls-5,.cls-6,.cls-7,.cls-8,.cls-9{stroke-linecap:round;stroke-linejoin:round;}.cls-3{opacity:0.3;}.cls-4{stroke:red;}.cls-10,.cls-11,.cls-12,.cls-13,.cls-14,.cls-15,.cls-16,.cls-17,.cls-18,.cls-19,.cls-20,.cls-21,.cls-22,.cls-23,.cls-26,.cls-4,.cls-5,.cls-6,.cls-7,.cls-8,.cls-9{stroke-width:0.5px;}.cls-5{stroke:#ff0062;}.cls-6{stroke:#ff00bd;}.cls-7{stroke:#f800ff;}.cls-8{stroke:#cd00ff;}.cls-9{stroke:#80f;}.cls-10{stroke:#5000ff;}.cls-11{stroke:#0903ff;}.cls-12{stroke:#005cff;}.cls-13{stroke:#00b7ff;}.cls-14{stroke:aqua;}.cls-15{stroke:#00ffda;}.cls-16{stroke:#00ff5b;}.cls-17{stroke:#64ff00;}.cls-18{stroke:#a8ff00;}.cls-19{stroke:#f9ff00;}.cls-20{stroke:#ffe000;}.cls-21{stroke:#ffb600;}.cls-22{stroke:#ff5b00;}.cls-23{stroke:#ff2a00;}.cls-24,.cls-26{fill:none;}.cls-25{fill:#fcee21;}.cls-25,.cls-26{stroke-miterlimit:10;}</style></defs><path class="cls-1" d="M7.4,30.36c1.22.26,2.3.08,2.62-.56a45.49,45.49,0,0,1,4.59-6.14,9,9,0,0,0,3-1.8,21.29,21.29,0,0,0,3.94-4.58,3.58,3.58,0,0,0,.45-1,10.94,10.94,0,0,1-1.95,3c-.21,0,4.27,5.35-1.47,9.43C12.61,33.05,13.5,37,13.5,37H35c.93-5.06.42-31.37-15.34-29.77-.47-1.86-1.4-2.72-2.63-2.76-.19,1.21.27,1.85-.17,3.14l-2.62.37a4.43,4.43,0,0,0-.51-1.32C13,5.34,11.37,5,10.74,5.49s.61,1.22.8,2.51c0,.12-.15.23-.09.33C7.16,12.67,3.6,22.85,3.49,23A4.62,4.62,0,0,0,5.43,29.6l2,.76"/><ellipse cx="14" cy="14.78" rx="2.17" ry="1.06" transform="translate(-6.31 13.44) rotate(-42.79)"/><rect class="cls-2" x="12.48" y="36.95" width="23.52" height="2.05" rx="0.85"/><ellipse cx="5.69" cy="24.46" rx="1.15" ry="0.52" transform="translate(-17.55 14.95) rotate(-54.65)"/><path class="cls-3" d="M20.08,6.82l5.31.78L30.32,12l3,6.84,1.9,11.62-.18,6.15-.64.33H32.55c1.7-1.07,2.16-26.94-12.3-29.79l-.17-.34"/><line class="cls-4" x1="22.1" y1="7.17" x2="21.81" y2="9.41"/><line class="cls-5" x1="23.91" y1="7.51" x2="23.38" y2="9.7"/><line class="cls-6" x1="25.69" y1="8.14" x2="24.77" y2="10.2"/><line class="cls-7" x1="27.3" y1="9.12" x2="26.13" y2="11.05"/><line class="cls-8" x1="28.66" y1="10.33" x2="27.15" y2="12.01"/><line class="cls-9" x1="29.97" y1="11.75" x2="28.16" y2="13.11"/><line class="cls-10" x1="30.98" y1="13.29" x2="28.95" y2="14.27"/><line class="cls-11" x1="31.72" y1="14.78" x2="29.62" y2="15.61"/><line class="cls-12" x1="32.46" y1="16.31" x2="30.32" y2="17.02"/><line class="cls-13" x1="33.09" y1="18.02" x2="30.87" y2="18.43"/><line class="cls-14" x1="33.67" y1="19.95" x2="31.42" y2="20.13"/><line class="cls-15" x1="34.09" y1="21.75" x2="31.84" y2="21.85"/><line class="cls-16" x1="34.44" y1="23.65" x2="32.19" y2="23.68"/><line class="cls-17" x1="34.73" y1="25.27" x2="32.47" y2="25.27"/><line class="cls-18" x1="34.91" y1="26.86" x2="32.65" y2="26.86"/><line class="cls-19" x1="35.08" y1="28.45" x2="32.83" y2="28.45"/><line class="cls-20" x1="35.17" y1="30" x2="32.91" y2="30"/><line class="cls-21" x1="35.26" y1="31.49" x2="33" y2="31.5"/><line class="cls-22" x1="35.26" y1="33.47" x2="33" y2="33.39"/><line class="cls-23" x1="35.17" y1="35.16" x2="32.92" y2="35.04"/><path class="cls-3" d="M11,6.28v-1h1a5.16,5.16,0,0,1,2.26,3L14,8.39C13.52,7.69,11.71,5.77,11,6.28Z"/><path class="cls-3" d="M16.8,5.44v-1h1a5.15,5.15,0,0,1,2.26,3l-.58.15S17.47,4.93,16.8,5.44Z"/><path class="cls-3" d="M29.62,37h5.11L36,37.4v1.21l-.87.39H29.62S31.15,37.92,29.62,37Z"/><path class="cls-3" d="M8.59,29.22,13.48,23s4.18-.78,8.35-7.12l.21.4-1.95,3-2,2.51-2.87,1.83-.87.33L9.65,30.19l-1.3.28-.95-.11Z"/><path class="cls-24" d="M7.4,30.36c1.22.26,2.3.08,2.62-.56a45.49,45.49,0,0,1,4.59-6.14,9,9,0,0,0,3-1.8,21.29,21.29,0,0,0,3.94-4.58,3.58,3.58,0,0,0,.45-1,10.94,10.94,0,0,1-1.95,3c-.21,0,4.27,5.35-1.47,9.43C12.61,33.05,13.5,37,13.5,37H35c.93-5.06.42-31.37-15.34-29.77-.47-1.86-1.4-2.72-2.63-2.76-.19,1.21.27,1.85-.17,3.14l-2.62.37a4.43,4.43,0,0,0-.51-1.32C13,5.34,11.37,5,10.74,5.49s.61,1.22.8,2.51c0,.12-.15.23-.09.33C7.16,12.67,3.6,22.85,3.49,23A4.62,4.62,0,0,0,5.43,29.6l2,.76"/><path class="cls-25" d="M15.39,8.28,4.74,3.77l7.83,8.75C12.63,12.82,16.59,10.74,15.39,8.28Z"/><path class="cls-26" d="M13.77,7.6c.62.33.05,3.49-2.52,3.45"/><path class="cls-26" d="M11.7,6.72c.78,0,.66,2.94-1.92,2.69"/><path class="cls-26" d="M9.43,5.76c.16-.15,1,2.16-1.13,2"/></svg>