<svg id="Calque_1" data-name="Calque 1" xmlns="http://www.w3.org/2000/svg" xmlns:xlink="http://www.w3.org/1999/xlink" viewBox="0 0 1366 768"><defs><style>.cls-1{fill:url(#Dégradé_sans_nom_4);}.cls-2{fill:url(#Dégradé_sans_nom_4-2);}.cls-3{fill:#f8f5f2;opacity:0.3;}.cls-4{fill-rule:evenodd;opacity:0.15;fill:url(#Dégradé_sans_nom_4-3);}.cls-5{opacity:0.75;}.cls-6{fill:url(#Dégradé_sans_nom_4-4);}.cls-7{fill:#101218;}.cls-8{fill:url(#Dégradé_sans_nom_4-5);}.cls-9{fill:url(#Dégradé_sans_nom_4-6);}</style><linearGradient id="Dégradé_sans_nom_4" x1="1226.01" y1="467.29" x2="1226.01" y2="769.01" gradientUnits="userSpaceOnUse"><stop offset="0" stop-color="#101218"/><stop offset="0.11" stop-color="#13151c"/><stop offset="0.6" stop-color="#1d212c"/><stop offset="1" stop-color="#202531"/></linearGradient><linearGradient id="Dégradé_sans_nom_4-2" x1="1225.5" y1="322.08" x2="1225.5" y2="635.75" xlink:href="#Dégradé_sans_nom_4"/><linearGradient id="Dégradé_sans_nom_4-3" x1="901.2" y1="72" x2="901.2" y2="767.68" xlink:href="#Dégradé_sans_nom_4"/><linearGradient id="Dégradé_sans_nom_4-4" x1="551.82" y1="535" x2="551.82" y2="768.85" xlink:href="#Dégradé_sans_nom_4"/><linearGradient id="Dégradé_sans_nom_4-5" x1="797.84" y1="431.42" x2="797.84" y2="767.85" gradientTransform="matrix(-1, 0, 0, 1, 948.03, 0)" xlink:href="#Dégradé_sans_nom_4"/><linearGradient id="Dégradé_sans_nom_4-6" x1="751.58" y1="284" x2="751.58" y2="757.96" gradientTransform="matrix(-1, 0, 0, 1, 948.03, 0)" xlink:href="#Dégradé_sans_nom_4"/></defs><g id="Dragon"><path class="cls-1" d="M1333.64,478.92c-18.24,9-37.23,99.52-36.64,162.56.73,78.69,46.06,127.77,36.6,127.52H1117.11c1.89,1.2,34.37-149,49.23-174.23C1191.77,551.58,1214.06,429.38,1333.64,478.92Z"/><path class="cls-2" d="M1137.72,417.08s25-28.22,40.45-31.26c0,0,46.64-30,65.41-59.48,0,0,9.57,6.9-12.47,53.9,0,0,59.11,4.48,101.38-58.16,0,0,15.26,21.2-42.63,72.45,0,0,51,11.38,100.17-25.46,0,0-5.56,26.65-46.26,46.77,0,0,65.41,11.25,106.23-12.13,0,0-9.2,27.5-39,36.22-10.25-5.37-1.68,123.06-110.45,108.92,0,0,33.43,34.64,18.54,56.69,0,0-11.63-22-60.81-29.43,0,0,16.24,54,.85,59.64,0,0-21.32-28.63-90.13-45.57,0,0-89.88-13.8-69.64,32.47,0,0-32.23-23.13-39.38-77.76,0,0,35.25,29.79,42.27-9.57,0,0,52.82,41.9,71.47-2,0,0,19.37-36.95-29-58.39,0,0-36-19-53.78,19.64,0,0-13.21-23.74-33.32-20.23l-1.93,25.8-30.41-19.13-9.44,25.2s-21.27-28.79-13-89.31C1002.93,417,1105.27,447.78,1137.72,417.08Z"/><path class="cls-3" d="M1166.34,434.59l62.22-22.28s-.76,30.73-16.9,38.41C1211.66,450.72,1177.76,469.92,1166.34,434.59Z"/><path class="cls-3" d="M1178.62,465.6s47.78-5.77,63-20.92C1241.7,448.49,1219.09,479.16,1178.62,465.6Z"/></g><path id="Phantom" class="cls-4" d="M1112.67,466.22V280.7C1112.67,152.63,1018,72,901.2,72S689.73,152.63,689.73,280.7V466.22s-21.15,278.27-42.3,301.46h82c-1.8-28,16.1-78.65,33.36-139.14C783.42,556.2,778,707,783.7,767.68H883.9c2.09-36,6.69-68.49,17.3-92.76,10.68,28.45,15.84,59.67,17.3,92.76h100.2c5.73-60.67,20.92-284,20.92-208.7,0,60.68,19.71,180.86,33.36,208.7h82C1133.82,744.49,1112.67,466.22,1112.67,466.22ZM808.92,385.06a45.85,45.85,0,0,1-44.51-58,45.87,45.87,0,0,0,89,0,45.85,45.85,0,0,1-44.51,58Zm0-34.79c-25.48,0-46.14-36.34-46.14-81.16S783.44,188,808.92,188s46.14,36.33,46.14,81.16S834.4,350.27,808.92,350.27Zm184.56,34.79a45.85,45.85,0,0,1-44.51-58,45.87,45.87,0,0,0,89,0,45.85,45.85,0,0,1-44.51,58Zm0-34.79c-25.48,0-46.14-36.34-46.14-81.16S968,188,993.48,188s46.14,36.33,46.14,81.16S1019,350.27,993.48,350.27Z"/><g id="PixelKnight" class="cls-5"><polygon class="cls-6" points="626.99 601.81 626.99 585.11 626.99 568.41 610.28 568.41 610.28 551.7 593.58 551.7 576.88 551.7 560.17 551.7 560.17 535 543.47 535 526.77 535 510.06 535 493.36 535 493.36 551.7 493.36 568.41 510.06 568.41 510.06 585.11 493.36 585.11 493.36 601.81 476.65 601.81 476.65 618.52 459.95 618.52 459.95 635.22 459.95 651.92 476.65 651.92 476.65 668.63 493.36 668.63 510.06 668.63 510.06 651.92 526.77 651.92 543.47 651.92 560.17 651.92 560.17 668.63 543.47 668.63 543.47 685.33 526.77 685.33 526.77 702.03 510.06 702.03 510.06 718.74 510.06 735.44 493.36 735.44 493.36 752.15 493.36 768.85 510.06 768.85 526.77 768.85 543.47 768.85 560.17 768.85 576.88 768.85 593.58 768.85 610.28 768.85 626.99 768.85 643.69 768.85 643.69 752.15 643.69 735.44 626.99 735.44 626.99 718.74 626.99 702.03 626.99 685.33 643.69 685.33 643.69 668.63 643.69 651.92 643.69 635.22 643.69 618.52 643.69 601.81 626.99 601.81"/><rect class="cls-7" x="510.06" y="585.11" width="16.7" height="16.7"/><rect class="cls-3" x="543.47" y="551.7" width="16.7" height="16.7"/><polygon class="cls-3" points="610.28 568.41 593.58 568.41 593.58 585.11 593.58 601.81 610.28 601.81 610.28 585.11 610.28 568.41"/><polygon class="cls-3" points="610.28 601.81 610.28 618.52 610.28 635.22 610.28 651.92 610.28 668.63 610.28 685.33 626.99 685.33 626.99 668.63 626.99 651.92 626.99 635.22 626.99 618.52 626.99 601.81 610.28 601.81"/><polygon class="cls-3" points="593.58 702.03 576.88 702.03 576.88 718.74 593.58 718.74 610.28 718.74 610.28 702.03 610.28 685.33 593.58 685.33 593.58 702.03"/><rect class="cls-3" x="493.36" y="635.22" width="16.7" height="16.7"/><rect class="cls-3" x="560.17" y="618.52" width="16.7" height="16.7"/><rect class="cls-3" x="576.88" y="601.81" width="16.7" height="16.7"/><polygon class="cls-3" points="593.58 735.44 593.58 752.15 610.28 752.15 626.99 752.15 626.99 735.44 610.28 735.44 593.58 735.44"/></g><g id="Elephant"><path class="cls-8" d="M15.15,456.19c4.49,19.15,41.7,114.35,39.82,168-2.84,80.68-19.83,141.19,0,143.64H284.88c2.7,0-10.92-148.45-29.69-185C235.5,544.42,231.63,367,15.15,456.19Z"/><path class="cls-9" d="M165.37,481.43s-3.82,21.34-10.3,45.16-15.62,50.12-26.29,60c-6.6,6.13-21.07-2.68-37.91-17.77C53.24,535.12,3.76,470,3.76,470s-43.44-81.57-18.29-145.6,179.9-32.77,179.9-32.77S307.15,261.9,348.31,431.88c0,0,78.2,85.31,65.55,184.47-11.2,87.83-6.48,60.28-15.94,84.59-3.59,9.23-14.35,21.49,3.6,39.45,0,0-12.75,26.11-47,14.67,0,0-43.22-10.23-24.39-46.49,20.32-39.15,15.28-82.73,13.64-88.05-3-9.61-6.3-61.34-47.25-85.62,0,0-57.17,34.19-82.32,25.81,0,0-42.6-13.68-51.07-25.81C157.53,527,150.93,538.43,165.37,481.43Z"/><circle class="cls-3" cx="258.29" cy="404.49" r="26.93"/><path class="cls-3" d="M296.5,534.76a366.51,366.51,0,0,1-50.29,23.54s22.47,54,87.52,53c0,0,50.31,5.08,56.91-27.45,0,0-.56-17.86-15.24-16.26C353,570,332.08,587.47,296.5,534.76Z"/></g></svg>