<?xml version="1.0" encoding="utf-8"?>
<!-- Generator: Adobe Illustrator 23.0.1, SVG Export Plug-In . SVG Version: 6.00 Build 0)  -->
<svg version="1.1" id="Layer_2" xmlns="http://www.w3.org/2000/svg" xmlns:xlink="http://www.w3.org/1999/xlink" x="0px" y="0px"
	 viewBox="0 0 40 40" style="enable-background:new 0 0 40 40;" xml:space="preserve">
<style type="text/css">
	.st0{fill:#FFFFFF;stroke:#000000;stroke-miterlimit:10;}
	.st1{opacity:0.5;}
	.st2{display:none;opacity:0.3;fill-rule:evenodd;clip-rule:evenodd;enable-background:new    ;}
	.st3{display:none;opacity:0.3;fill-rule:evenodd;clip-rule:evenodd;}
	.st4{display:none;opacity:0.5;}
</style>
<path class="st0" d="M7.1,20.1"/>
<path class="st1" d="M32.6,22.4c-0.1-5.8-0.2-8.7-1.7-11.1c-2.2-3.4-6.3-6-11.2-5.9c-5.3,0.1-9.6,3.4-11.4,7.1
	c-0.9,1.8-1,4.4-1.2,9.8c-0.1,2.7,0,3.6,0.6,4.4c1.5,2,3.7,1.1,5.7,3.3C15,31.6,14.3,33,16,34c0.9,0.6,1.8,0.6,3.7,0.6
	c2.2,0,3.2,0,4.2-0.6c1.6-1.1,0.8-2.5,2.3-4.1c1.9-2.1,4.1-1.1,5.6-3C32.5,26.1,32.7,25,32.6,22.4z M14.4,25.5
	c-1.5,0-2.8-2.2-2.8-4.9s1.2-4.9,2.8-4.9s2.8,2.2,2.8,4.9S15.9,25.5,14.4,25.5z M25.4,25.5c-1.5,0-2.8-2.2-2.8-4.9s1.2-4.9,2.8-4.9
	s2.8,2.2,2.8,4.9S27,25.5,25.4,25.5z"/>
<path class="st2" d="M14.4,26.2c-1.3,0-2.3-0.9-2.7-2.1c-0.1,0.2-0.1,0.5-0.1,0.7c0,1.5,1.2,2.8,2.8,2.8s2.8-1.2,2.8-2.8l0,0
	c0-0.2,0-0.5-0.1-0.7C16.7,25.3,15.6,26.2,14.4,26.2z"/>
<path class="st2" d="M25.4,26.2c-1.3,0-2.4-0.9-2.7-2.1c-0.1,0.2-0.1,0.5-0.1,0.7c-0.1,1.5,1.1,2.9,2.6,3c1.5,0.1,2.9-1.1,3-2.6
	c0-0.1,0-0.2,0-0.4c0-0.2,0-0.5-0.1-0.7C27.8,25.3,26.7,26.2,25.4,26.2z"/>
<path class="st2" d="M28.3,11.9c-2.9-4.2-7-5.7-8.3-6c0.6,0,1.3,0,2,0.2c1.5,0.2,2.6,0.7,3.5,1.1c0.9,0.4,2.1,1.1,3.3,2.4
	c0.5,0.5,1.3,1.3,2,2.6c0.8,1.6,1,3,1.1,4.8c0,0.4,0.1,1.4,0.1,3.4c0,1.1,0.1,1.6,0.1,2.3c0,2.4-0.1,3.2-0.6,3.8
	c-0.3,0.4-0.7,0.7-0.7,0.7c-0.4,0.3-0.9,0.5-1.6,0.7c-0.4,0.1-0.7,0.2-1,0.2c0.6-0.6,1.5-1.7,2-3.2c0-0.1,0.2-0.8,0.3-1.6
	C31.4,16.5,28.3,11.9,28.3,11.9z"/>
<path class="st3" d="M17.1,30.6c0.2-0.2,0.7-0.2,0.9,0c0.2,0.2,0,0.6,0,1.5c0,0.9,0.3,1.3,0,1.5c-0.2,0.2-0.6,0.2-0.9,0
	c-0.3-0.2,0-0.6,0-1.5C17.1,31.2,16.8,30.9,17.1,30.6z"/>
<path class="st3" d="M18.7,30.6c0.2-0.2,0.7-0.2,0.9,0c0.2,0.2,0,0.6,0,1.5c0,0.9,0.3,1.3,0,1.5c-0.2,0.2-0.6,0.2-0.9,0
	c-0.3-0.2,0-0.6,0-1.5C18.7,31.2,18.4,30.9,18.7,30.6z"/>
<path class="st3" d="M20.3,30.6c0.2-0.2,0.7-0.2,0.9,0c0.2,0.2,0,0.6,0,1.5c0,0.9,0.3,1.3,0,1.5c-0.2,0.2-0.6,0.2-0.9,0
	c-0.3-0.2,0-0.6,0-1.5C20.3,31.2,20,30.9,20.3,30.6z"/>
<path class="st3" d="M21.9,30.6c0.2-0.2,0.7-0.2,0.9,0c0.2,0.2,0,0.6,0,1.5c0,0.9,0.3,1.3,0,1.5c-0.2,0.2-0.6,0.2-0.9,0
	c-0.3-0.2,0-0.6,0-1.5C21.9,31.2,21.6,30.9,21.9,30.6z"/>
<ellipse class="st4" cx="25.4" cy="20.6" rx="2.8" ry="4.9"/>
<ellipse class="st4" cx="14.4" cy="20.6" rx="2.8" ry="4.9"/>
</svg>
