<svg id="Calque_1" data-name="Calque 1" xmlns="http://www.w3.org/2000/svg" xmlns:xlink="http://www.w3.org/1999/xlink" viewBox="0 0 50 50"><defs><style>.cls-1{fill:url(#Dégradé_sans_nom_7);}.cls-2{fill:url(#Dégradé_sans_nom_7-2);}</style><linearGradient id="Dégradé_sans_nom_7" x1="25" y1="2.27" x2="25" y2="34.53" gradientUnits="userSpaceOnUse"><stop offset="0" stop-color="#f8f5f2"/><stop offset="0.2" stop-color="#d4f1ea"/><stop offset="0.65" stop-color="#79e5d7"/><stop offset="1" stop-color="#2edcc7"/></linearGradient><linearGradient id="Dégradé_sans_nom_7-2" x1="25" y1="21.05" x2="25" y2="47.73" xlink:href="#Dégradé_sans_nom_7"/></defs><path class="cls-1" d="M11.73,12.81h0l3.62,3.62v18.1L39.48,10.39V3.49a1.22,1.22,0,0,0-1.21-1.22H34.66a1.22,1.22,0,0,0-1.21,1.22V8H28.62V3.49a1.22,1.22,0,0,0-1.21-1.22H22.59a1.22,1.22,0,0,0-1.21,1.22V8H16.55V3.49a1.22,1.22,0,0,0-1.21-1.22H11.73a1.22,1.22,0,0,0-1.21,1.22V11.6C10.74,11.87,11.3,12.39,11.73,12.81Z"/><path class="cls-2" d="M39.48,42.9h0l-4.82-3.62V21.05L9.31,46.39v.12a1.22,1.22,0,0,0,1.21,1.22h29a1.22,1.22,0,0,0,1.21-1.22v-2.4A6.56,6.56,0,0,0,39.48,42.9Z"/></svg>