<svg id="Calque_1" data-name="Calque 1" xmlns="http://www.w3.org/2000/svg" xmlns:xlink="http://www.w3.org/1999/xlink" viewBox="0 0 200 50"><defs><style>.cls-1{fill:#f8f5f2;}.cls-2{fill:url(#Dégradé_sans_nom_14);}.cls-3{fill:url(#Dégradé_sans_nom_14-2);}.cls-4{fill:url(#Dégradé_sans_nom_14-3);}.cls-5{fill:url(#Dégradé_sans_nom_14-4);}.cls-6{fill:url(#Dégradé_sans_nom_14-5);}.cls-7{fill:url(#Dégradé_sans_nom_14-6);}.cls-8{fill:url(#Dégradé_sans_nom_14-7);}</style><linearGradient id="Dégradé_sans_nom_14" x1="75.71" y1="21.18" x2="75.71" y2="36.07" gradientUnits="userSpaceOnUse"><stop offset="0" stop-color="#f8f5f2"/><stop offset="0.26" stop-color="#bdeee5"/><stop offset="0.62" stop-color="#70e4d5"/><stop offset="0.87" stop-color="#40decb"/><stop offset="1" stop-color="#2edcc7"/></linearGradient><linearGradient id="Dégradé_sans_nom_14-2" x1="93.96" y1="21.32" x2="93.96" y2="35.7" xlink:href="#Dégradé_sans_nom_14"/><linearGradient id="Dégradé_sans_nom_14-3" x1="56.16" y1="21.2" x2="56.16" y2="42.15" xlink:href="#Dégradé_sans_nom_14"/><linearGradient id="Dégradé_sans_nom_14-4" x1="30.69" y1="21.41" x2="30.69" y2="32.82" xlink:href="#Dégradé_sans_nom_14"/><linearGradient id="Dégradé_sans_nom_14-5" x1="36.97" y1="21.41" x2="36.97" y2="42.15" xlink:href="#Dégradé_sans_nom_14"/><linearGradient id="Dégradé_sans_nom_14-6" x1="7.34" y1="13.85" x2="7.34" y2="35.71" xlink:href="#Dégradé_sans_nom_14"/><linearGradient id="Dégradé_sans_nom_14-7" x1="16.14" y1="13.85" x2="16.14" y2="35.71" xlink:href="#Dégradé_sans_nom_14"/></defs><path class="cls-1" d="M113.68,13.85h.17a9.45,9.45,0,0,1,6.86,3.09,10.5,10.5,0,0,1,1.68,2.45c-1.19.62-1.81.93-1.85.93a9.7,9.7,0,0,0-1-1.55,7.45,7.45,0,0,0-5.72-2.83h-.09a7.43,7.43,0,0,0-5.87,3,9.45,9.45,0,0,0-1.94,5.75v.15a9.23,9.23,0,0,0,2.53,6.42,7.36,7.36,0,0,0,5.35,2.34,7.49,7.49,0,0,0,5.81-2.91,12.82,12.82,0,0,0,1-1.52l1.84.95a10.31,10.31,0,0,1-1.81,2.6,9.39,9.39,0,0,1-14.11-.46,11.58,11.58,0,0,1-2.67-7.42v-.15a11.31,11.31,0,0,1,3.14-7.9A9.37,9.37,0,0,1,113.68,13.85Z"/><path class="cls-1" d="M128.78,13.85h2l.05.05v9.24A5.7,5.7,0,0,1,135,21.5q4.35,0,5.78,3.15a5.45,5.45,0,0,1,.4,2.07v9l0,0h-2l0,0V26.74c0-1.64-.91-2.66-2.73-3a5.21,5.21,0,0,0-1.12-.09h-.6a3.66,3.66,0,0,0-3.49,1.75,4.23,4.23,0,0,0-.27,1.52v8.8l-.05,0h-2l0,0V13.9Z"/><path class="cls-1" d="M154.2,21.39a6.58,6.58,0,0,1,5.27,2.72,7.39,7.39,0,0,1,1.45,4.17v.17q0,.69-.09.69H149.5a5.32,5.32,0,0,0,.6,2,4.92,4.92,0,0,0,2.58,2.33,4.8,4.8,0,0,0,1.48.27A4.53,4.53,0,0,0,157.7,32a4.91,4.91,0,0,0,.68-1.15h0c.81.32,1.44.59,1.9.81a7.17,7.17,0,0,1-1.46,2.19,6.54,6.54,0,0,1-4.68,2,6.67,6.67,0,0,1-5.33-2.74,7.58,7.58,0,0,1-1.44-4.4v-.14a7.33,7.33,0,0,1,2.13-5.22A6.48,6.48,0,0,1,154.2,21.39Zm-4.49,5.69h8.93a5.1,5.1,0,0,0-2.12-2.88,4.3,4.3,0,0,0-2.38-.7,4.54,4.54,0,0,0-3.71,2A5.23,5.23,0,0,0,149.71,27.08Z"/><path class="cls-1" d="M172,21.3h.21a6.07,6.07,0,0,1,2.9.74,4.4,4.4,0,0,1,.95.64,6.41,6.41,0,0,1,.74.74,1.72,1.72,0,0,1,.22.35c-.91.52-1.5.87-1.79,1.06h0a3,3,0,0,0-.8-.78,4.49,4.49,0,0,0-4.87.12,1.74,1.74,0,0,0-.67,1.31.9.9,0,0,0,.43.82,1.66,1.66,0,0,0,.46.29,10.66,10.66,0,0,0,2.24.72l1.9.37a5.93,5.93,0,0,1,1.22.42,4.9,4.9,0,0,1,.91.55,4.55,4.55,0,0,1,.56.52,3.54,3.54,0,0,1,.89,2.3v.09a3.87,3.87,0,0,1-1,2.51,4.84,4.84,0,0,1-.61.58,6.53,6.53,0,0,1-.87.54,6.79,6.79,0,0,1-2.94.67h-.19a6.65,6.65,0,0,1-3.18-.81,5.79,5.79,0,0,1-2.27-2.28s.3-.18.87-.49l.95-.53a3.93,3.93,0,0,0,2,1.72,5,5,0,0,0,1.73.3,4.54,4.54,0,0,0,2.36-.61,2.49,2.49,0,0,0,.54-.42,1.87,1.87,0,0,0,.49-1.22c0-.66-.41-1.18-1.24-1.57a4.93,4.93,0,0,0-.86-.27,23.15,23.15,0,0,1-3.75-.91q-2.76-1-2.76-3.27v-.05a3.65,3.65,0,0,1,1-2.5,4.54,4.54,0,0,1,.68-.6A5.14,5.14,0,0,1,170,21.6,6.65,6.65,0,0,1,172,21.3Z"/><path class="cls-1" d="M188.49,21.3h.21a6.07,6.07,0,0,1,2.9.74,4.4,4.4,0,0,1,1,.64,6.41,6.41,0,0,1,.74.74,1.72,1.72,0,0,1,.22.35c-.91.52-1.5.87-1.79,1.06h0a3.14,3.14,0,0,0-.8-.78,4.49,4.49,0,0,0-4.87.12,1.74,1.74,0,0,0-.67,1.31.9.9,0,0,0,.43.82,1.66,1.66,0,0,0,.46.29,10.66,10.66,0,0,0,2.24.72l1.9.37a6.15,6.15,0,0,1,1.22.42,4.9,4.9,0,0,1,.91.55,4.55,4.55,0,0,1,.56.52,3.54,3.54,0,0,1,.89,2.3v.09a3.87,3.87,0,0,1-1,2.51,4.84,4.84,0,0,1-.61.58,6.53,6.53,0,0,1-.87.54,6.79,6.79,0,0,1-2.94.67h-.19a6.65,6.65,0,0,1-3.18-.81,5.79,5.79,0,0,1-2.27-2.28s.3-.18.87-.49l.95-.53a3.93,3.93,0,0,0,2,1.72,5,5,0,0,0,1.73.3,4.54,4.54,0,0,0,2.36-.61,2.49,2.49,0,0,0,.54-.42,1.87,1.87,0,0,0,.49-1.22c0-.66-.41-1.18-1.24-1.57a4.93,4.93,0,0,0-.86-.27,23.15,23.15,0,0,1-3.75-.91q-2.76-1-2.76-3.27v-.05a3.65,3.65,0,0,1,1-2.5,4.54,4.54,0,0,1,.68-.6,5.14,5.14,0,0,1,1.56-.75A6.65,6.65,0,0,1,188.49,21.3Z"/><path class="cls-2" d="M75.49,21.18h.43a6.39,6.39,0,0,1,4.2,1.75,8,8,0,0,1,1.36,1.67,8.16,8.16,0,0,1,1.09,4v.45q0,.42-.06.42H71.82A4.69,4.69,0,0,0,73,31.89a3.7,3.7,0,0,0,2.75,1.3,3.83,3.83,0,0,0,3.25-2,2.28,2.28,0,0,1,.3-.51c1.71.78,2.58,1.18,2.6,1.2a8.93,8.93,0,0,1-.94,1.57,6.61,6.61,0,0,1-5.18,2.58h-.06a6.63,6.63,0,0,1-5.29-2.73,7.93,7.93,0,0,1-1.52-4.68V28.6a7.68,7.68,0,0,1,2.67-5.91A6.56,6.56,0,0,1,75.49,21.18Zm-3.41,5.6h7.25A5,5,0,0,0,78.16,25a3.7,3.7,0,0,0-2.48-1,3.88,3.88,0,0,0-3.36,2.16Z"/><path class="cls-3" d="M95.36,21.32h.37a6.41,6.41,0,0,1,3.06.86v0c-.42,1.89-.64,2.88-.68,3a4.81,4.81,0,0,0-2.54-.94h-.24a3.47,3.47,0,0,0-2.52,1.06c-.55.67-.82,1.93-.82,3.79v6.57l0,.05h-2.8l0-.05v-14l0,0H92l0,0v1.08A5.15,5.15,0,0,1,95.36,21.32Z"/><path class="cls-4" d="M62.37,24.8c-.19-.3-.4-.6-.64-.91a7.93,7.93,0,0,0-.7-.76,7.52,7.52,0,0,0-1.12-.87A7.23,7.23,0,0,0,56,21.2l-.64,0a11.63,11.63,0,0,0-1.19.25,4.61,4.61,0,0,0-.93.39,6.16,6.16,0,0,0-.78.52,5.27,5.27,0,0,0-.67.65V21.47H48.93V42.13l0,0h2.86V29.07h0a.6.6,0,0,1,0-.12v-.6a5.18,5.18,0,0,1,.15-1q.16-.46.3-.75a6.33,6.33,0,0,1,.36-.61,4,4,0,0,1,.66-.76,4,4,0,0,1,1-.72A4.24,4.24,0,0,1,56,24.08h.12A4.17,4.17,0,0,1,58.8,25a5,5,0,0,1,.58.57,4.59,4.59,0,0,1,1.12,3A4.68,4.68,0,0,1,60.29,30a4.5,4.5,0,0,1-1,1.73,5.24,5.24,0,0,1-.59.56,4.14,4.14,0,0,1-2.51.89H56a4.29,4.29,0,0,1-1.68-.4l-.17-.1v3a5.87,5.87,0,0,0,2,.34,7.14,7.14,0,0,0,4.68-1.74l.26-.23a7.83,7.83,0,0,0,.78-.89,7.55,7.55,0,0,0,1.52-4.56A7.65,7.65,0,0,0,62.37,24.8Z"/><path class="cls-5" d="M30.73,29l1.67,3.8L34,29.2l-1.05-2.46-2.12-5c-.08-.19-.12-.29-.13-.3h-3.3l.36.83Z"/><polygon class="cls-6" points="30.87 42.15 33.99 42.15 34.44 41.13 37.2 34.82 39.87 28.71 43.07 21.41 40 21.41 30.87 42.15"/><polygon class="cls-7" points="8.66 13.85 6.07 13.85 6.03 13.9 6.03 35.67 6.07 35.71 8.66 35.71 8.66 13.85"/><polygon class="cls-8" points="21.21 13.85 18.41 13.85 18.36 13.9 18.36 23.33 11.02 23.33 11.02 26.23 18.39 26.23 18.39 35.67 18.42 35.71 21.21 35.71 21.26 35.67 21.26 13.9 21.21 13.85"/></svg>