<svg id="Calque_1" data-name="Calque 1" xmlns="http://www.w3.org/2000/svg" viewBox="0 0 50 50"><defs><style>.cls-1{fill:#2edcc7;}</style></defs><path class="cls-1" d="M11.73,12.81h0l3.62,3.62v18.1L39.48,10.39V3.49a1.22,1.22,0,0,0-1.21-1.22H34.66a1.22,1.22,0,0,0-1.21,1.22V8H28.62V3.49a1.22,1.22,0,0,0-1.21-1.22H22.59a1.22,1.22,0,0,0-1.21,1.22V8H16.55V3.49a1.22,1.22,0,0,0-1.21-1.22H11.73a1.22,1.22,0,0,0-1.21,1.22V11.6C10.74,11.87,11.3,12.39,11.73,12.81Z"/><path class="cls-1" d="M39.48,42.9h0l-4.82-3.62V21.05L9.31,46.39v.12a1.22,1.22,0,0,0,1.21,1.22h29a1.22,1.22,0,0,0,1.21-1.22v-2.4A6.56,6.56,0,0,0,39.48,42.9Z"/></svg>